<?xml version="1.0" standalone="no"?>
<!DOCTYPE svg PUBLIC "-//W3C//DTD SVG 1.1//EN" "http://www.w3.org/Graphics/SVG/1.1/DTD/svg11.dtd" >
<svg>
<metadata>
Created by FontForge 20120731 at Mon Jul 30 17:22:20 2018
 By www-data
</metadata>
<defs>
<font id="UmpquaLight" horiz-adv-x="300" >
  <font-face 
    font-family="Umpqua"
    font-weight="400"
    font-stretch="normal"
    units-per-em="1000"
    panose-1="0 0 0 0 0 0 0 0 0 0"
    ascent="800"
    descent="-200"
    x-height="519.477"
    cap-height="933.32"
    bbox="-114.027 -313.021 1134.38 1015.33"
    underline-thickness="0"
    underline-position="0"
    unicode-range="U+000A-00A0"
  />
<missing-glyph horiz-adv-x="502" 
 />
    <glyph glyph-name=".notdef" horiz-adv-x="502" 
 />
    <glyph glyph-name=".notdef" horiz-adv-x="502" 
 />
    <glyph glyph-name="LF" unicode="&#xa;" horiz-adv-x="0" 
 />
    <glyph glyph-name="controlCR" unicode="&#xd;" horiz-adv-x="0" 
 />
    <glyph glyph-name="space" unicode=" " horiz-adv-x="340" 
 />
    <glyph glyph-name="exclam" unicode="!" 
d="M114.271 300.724c-4.50684 0 -8.14746 3.50586 -8.2793 8.0127l-9.27734 309.944l0.283203 301.439c0 4.58203 3.71484 8.29688 8.27832 8.29688h82.8936c4.56348 0 8.27832 -3.71484 8.27832 -8.29688l-0.0380859 -301.439l-10.5029 -309.981
c-0.131836 -4.46875 -3.77148 -7.97559 -8.27832 -7.97559h-63.3574zM160.656 147.117c36.5439 -5.35547 64.0938 -37.1855 64.0938 -74.0312c0 -41.2959 -33.6777 -74.8789 -75.0869 -74.8789c-28.2471 0 -53.835 15.5566 -66.7705 40.5791
c-5.46875 10.5029 -8.35352 22.3633 -8.35352 34.2803c0 4.0166 0.320312 8.08984 0.980469 12.0879c1.28223 7.80664 3.75195 15.293 7.37207 22.2324c14.6514 28.209 45.3877 44.3125 77.7646 39.7305z" />
    <glyph glyph-name="quotedbl" unicode="&#x22;" horiz-adv-x="455" 
d="M379.581 863.438c0 -39.3154 -31.8857 -71.2959 -71.1826 -71.4658c-1.20703 -2.73438 -0.641602 -23.5518 0.56543 -42.2383l0.0751953 -1.05566l-1.03711 0.113281c-13.709 1.5459 -40.4854 23.8906 -56.9844 53.458c-12.54 22.5146 -23.835 57.0596 -6.44922 93.9238
c11.1445 23.4766 36.0732 38.6367 63.5469 38.6367c3.54492 0 6.97656 -0.245117 10.4834 -0.716797v0c34.7529 -5.18555 60.9824 -35.5449 60.9824 -70.6553zM157.452 934.094c34.7529 -5.16699 60.9639 -35.5439 60.9639 -70.6543
c0 -39.2969 -31.8867 -71.2959 -71.1455 -71.4658c-1.22559 -2.73438 -0.640625 -23.5332 0.566406 -42.2393l0.0566406 -1.05566l-1.03711 0.113281c-13.7275 1.5459 -40.5039 23.8906 -56.9844 53.4951c-12.54 22.4961 -23.7979 57.041 -6.37402 93.8867
c11.1445 23.4766 36.0537 38.6367 63.4707 38.6367c3.54492 0 6.97656 -0.245117 10.4834 -0.716797z" />
    <glyph glyph-name="quotesingle" unicode="'" 
d="M160.28 931.209c36.3369 -5.41211 63.752 -37.1846 63.7705 -73.8789c0 -25.3242 -8.25879 -51.7236 -23.25 -74.333c-13.8779 -20.9688 -31.9238 -36.2803 -49.498 -41.9941c-0.490234 -0.169922 -1.01855 -0.245117 -1.52734 -0.245117
c-1.05566 0 -2.09277 0.320312 -2.97949 0.980469c-1.43262 1.01855 -2.2998 2.67773 -2.2998 4.43164l-0.131836 34.8848c0 0.961914 -0.735352 1.73535 -1.73438 1.83008c-25.6074 2.24414 -47.9521 17.2539 -59.7754 40.1641
c-5.43066 10.5781 -8.29688 22.4385 -8.29688 34.2617c0 4.07324 0.339844 8.12695 1.01855 12.0684c1.22559 7.69336 3.67676 15.1602 7.27832 22.2129c12.9922 24.9092 38.4297 40.3711 66.4502 40.3711c3.75293 0 7.44922 -0.263672 10.9756 -0.753906z" />
    <glyph glyph-name="parenleft" unicode="(" horiz-adv-x="553" 
d="M476.786 918.519c-82.4971 -17.499 -159.847 -75.0869 -217.793 -162.185c-57.0781 -85.7783 -89.04 -189.96 -90.0205 -293.388c-0.830078 -86.0801 28.5107 -186.642 78.499 -268.95c40.7305 -67.1484 113.63 -153.737 229.371 -185.001l0.942383 -0.263672v-98.1484
l-1.45215 0.226562c-121.851 18.5361 -230.539 93.8486 -306.003 212.041c-76.8779 120.398 -109.104 270.854 -90.7559 423.687c14.2178 118.268 58.7754 225.712 128.902 310.68c70.127 85.0244 158.847 139.086 256.542 156.302
c2.31934 0.395508 4.62012 0.71582 6.93945 0.999023c1.4707 0.188477 2.92285 0.376953 4.375 0.583984l1.45215 0.226562v-96.583z" />
    <glyph glyph-name="parenright" unicode=")" horiz-adv-x="553" 
d="M472.77 543.538c18.3662 -152.832 -13.8809 -303.307 -90.7588 -423.687c-75.4639 -118.211 -184.152 -193.505 -306.003 -212.06l-1.4707 -0.207031v99.0908l0.942383 0.263672c193.694 52.3457 293.03 267.518 291.031 453.009
c-2.56445 240.439 -119.493 426.421 -290.974 462.776l-0.999023 0.226562v89.3799l1.45215 -0.226562c1.45215 -0.226562 2.92285 -0.396484 4.375 -0.584961c2.30078 -0.283203 4.63867 -0.603516 6.95801 -1c97.6953 -17.2344 186.396 -71.2773 256.543 -156.302
c70.127 -84.9863 114.704 -192.412 128.903 -310.68z" />
    <glyph glyph-name="comma" unicode="," 
d="M160.262 145.195c36.3555 -5.41211 63.752 -37.1865 63.7705 -73.8809c0 -25.3242 -8.25879 -51.7236 -23.2305 -74.3516c-13.8975 -20.9688 -31.9434 -36.2803 -49.499 -41.9746c-0.508789 -0.188477 -1.03711 -0.263672 -1.5459 -0.263672
c-1.03711 0 -2.09277 0.339844 -2.99805 1c-1.41406 1.01855 -2.2627 2.65918 -2.2627 4.41309l-0.131836 34.9033c0 0.961914 -0.753906 1.71582 -1.75293 1.81055c-25.626 2.2627 -47.9707 17.2725 -59.7559 40.1641c-5.50586 10.748 -8.29688 22.2695 -8.29688 34.2812
c0 4.11035 0.339844 8.16406 1 12.0674c1.24414 7.65527 3.67676 15.1416 7.29688 22.1943c12.9736 24.9092 38.4297 40.3906 66.4316 40.3906c3.6582 0 7.35449 -0.263672 10.9746 -0.753906z" />
    <glyph glyph-name="hyphen" unicode="-" horiz-adv-x="495" 
d="M412.203 424.082c3.50684 0 6.35449 -2.82812 6.35449 -6.33496v-85.6465c0 -3.50684 -2.86621 -6.33496 -6.35449 -6.33496h-331.327c-3.48828 0 -6.33594 2.82812 -6.33594 6.33496v85.6465c0 3.50684 2.86621 6.33496 6.33594 6.33496h331.327z" />
    <glyph glyph-name="period" unicode="." horiz-adv-x="263" 
d="M141.405 145.195c36.3555 -5.41211 63.7549 -37.1865 63.7549 -73.9004c0 -41.2012 -33.5273 -74.7275 -74.7285 -74.7275c-28.0957 0 -53.5713 15.4814 -66.4316 40.4473c-5.52539 10.748 -8.31641 22.2695 -8.31641 34.2812
c0 4.07324 0.339844 8.12695 1.01855 12.0684c1.24414 7.69336 3.67676 15.1797 7.29688 22.1943c12.9736 24.9092 38.4297 40.3906 66.4316 40.3906c3.6582 0 7.35449 -0.263672 10.9746 -0.753906z" />
    <glyph glyph-name="zero" unicode="0" horiz-adv-x="742" 
d="M650.832 760.067c10.126 -30.7549 15.5752 -63.7373 15.5752 -98.0938v-354.295c0 -34.3379 -5.44922 -67.3184 -15.5752 -98.0732c0 -0.508789 -0.113281 -0.999023 -0.376953 -1.35742c-15.8018 -48.1787 -42.8604 -90.8135 -77.8203 -124.774
c-52.874 -51.5156 -123.906 -82.8926 -202.104 -82.8926c-1.71582 0 -3.33789 0 -5.05371 0.113281h-0.376953c-38.6748 0.62207 -75.4824 9.03223 -109.085 23.7217c-0.245117 0.131836 -0.490234 0.245117 -0.867188 0.376953
c-31.377 13.709 -59.9072 32.9805 -84.6094 56.5703c-50.5352 48.0654 -84.873 114.157 -93.6416 188.527c-0.490234 3.69629 -0.867188 7.52441 -1.1123 11.3525c-0.245117 3.09277 -0.490234 6.18555 -0.62207 9.27832c0 0.490234 0 0.980469 -0.113281 1.60254
c-0.131836 1.73438 -0.245117 3.58203 -0.245117 5.42969c-0.263672 3.33789 -0.263672 6.67578 -0.263672 10.127v354.295c0 3.46973 0 6.80762 0.263672 10.1455c0 1.84766 0.113281 3.69531 0.245117 5.54297c0.113281 0.508789 0.113281 0.999023 0.113281 1.48926
c0.131836 3.09277 0.376953 6.18555 0.62207 9.25879c0.245117 3.82812 0.62207 7.6748 1.1123 11.3711c9.63574 82.0254 50.2715 153.793 109.575 202.726c20.7422 17.1592 43.8604 31.4902 68.6758 42.3701c0.245117 0.113281 0.508789 0.245117 0.867188 0.358398
c33.6025 14.708 70.4102 23.1182 109.085 23.7217c0.131836 0.131836 0.245117 0.131836 0.376953 0c1.71582 0.131836 3.33789 0.131836 5.05371 0.131836c68.3174 0 131.317 -24.0986 181.362 -64.4893c45.0859 -36.3174 79.8008 -85.8535 98.5625 -143.045
c0.263672 -0.490234 0.376953 -0.999023 0.376953 -1.48926zM568.09 347.014l0.0175781 275.732c0 26.9463 -3.6582 52.4971 -10.4844 76.4639c0 0.47168 0 0.943359 -0.169922 1.24512c-12.5957 44.332 -35.6387 83.0254 -65.8652 111.386
c-33.376 31.3398 -75.3125 50.291 -121.077 50.291c-1.05566 0 -2.09277 0 -3.31836 -0.150391h-0.169922c-25.8711 -0.47168 -50.498 -7.20312 -72.8623 -18.6494c-0.169922 0 -0.339844 -0.150391 -0.509766 -0.150391
c-16.6123 -8.61719 -32.1689 -19.5918 -45.9531 -33.2246c-39.5039 -37.9014 -66.752 -93.8486 -73.0312 -157.753c-0.358398 -2.82812 -0.716797 -5.80762 -0.886719 -8.78711c-0.169922 -2.33789 -0.339844 -4.8457 -0.339844 -7.20312
c0 -0.301758 0 -0.923828 -0.169922 -1.24414v-4.22363c-0.188477 -2.50781 -0.188477 -5.16699 -0.188477 -7.99512v-275.738c0 -2.67773 0 -5.33691 0.188477 -7.84473v-4.375c0.169922 -0.320312 0.169922 -0.791992 0.169922 -1.24414
c0 -2.37598 0.169922 -4.88379 0.339844 -7.07129c0.169922 -3.12988 0.52832 -6.10938 0.886719 -8.91895c5.75098 -57.9648 28.6426 -109.349 62.3584 -146.968c16.5938 -18.3281 35.6387 -33.3564 56.6074 -43.8594
c0.169922 -0.150391 0.339844 -0.300781 0.52832 -0.300781c22.3447 -11.4463 46.9902 -18.0088 72.8428 -18.6494h0.169922c1.22559 -0.150391 2.28125 -0.150391 3.31836 -0.150391c52.2324 0 99.751 24.6074 135.051 64.8662
c23.2314 26.3047 41.3906 59.5303 51.8936 96.96c0.169922 0.169922 0.169922 0.791992 0.169922 1.1123c6.80762 23.9668 10.4844 49.6494 10.4844 76.4443z" />
    <glyph glyph-name="one" unicode="1" horiz-adv-x="308" 
d="M232.086 10.6348c0 -3.67676 -2.98145 -6.65332 -6.63965 -6.65332h-83.5908c-3.67676 0 -6.6748 2.97949 -6.6748 6.65625v740.419c0 1.05566 -0.415039 2.05469 -1.15039 2.80859s-1.73438 1.14941 -2.79004 1.14941v0l-50.0078 -0.226562h-0.0371094
c-2.31934 0 -4.41211 1.16895 -5.6377 3.11133c-1.22559 1.97949 -1.33887 4.39355 -0.301758 6.48633l83.8926 169.181c1.1123 2.28125 3.41309 3.69531 5.95898 3.69531h60.1523c3.67676 0 6.6377 -2.97949 6.6377 -6.65625z" />
    <glyph glyph-name="two" unicode="2" horiz-adv-x="630" 
d="M234.16 100.486c-2.52637 -0.0185547 -4.0166 2.82617 -2.58398 4.90039l298.687 431.323c0.113281 0.188477 0.226562 0.358398 0.339844 0.52832l24.5508 43.0684v0.113281c0.490234 0.886719 0.867188 1.75391 1.24414 2.62109
c16.0469 36.3369 24.3252 76.916 22.9678 119.381c-0.113281 1.60254 -0.113281 3.11133 -0.245117 4.7334c-6.54297 133.994 -107.972 241.118 -236.063 257.222c-4.33691 0.641602 -8.78711 1 -13.2188 1.37695c-4.4502 0.376953 -8.90039 0.490234 -13.4639 0.62207
c-2.1123 0.131836 -4.20508 0.131836 -6.42969 0.131836h-0.376953c-4.69531 0 -9.50391 -0.131836 -14.1992 -0.376953c-105.483 -5.65723 -193.524 -71.8057 -233.161 -163.354c-1.60254 -3.67676 0.283203 -7.99512 4.0166 -9.48438
c43.0869 -17.0088 33.1123 -14.1426 77.1611 -30.4727c3.46973 -1.30078 7.27832 0.396484 8.84375 3.73438c41.9932 90.002 124.811 106.614 164.296 107.293c79.3105 1.33887 136.559 -57.1162 155.415 -116.929c15.7266 -49.7998 8.65527 -117.853 -31.3203 -175.252
c-74.54 -107.011 -336.871 -466.303 -382.824 -564.206c-2.20605 -4.71387 1.09375 -10.126 6.31738 -10.1074c69.7881 0.245117 520.119 -1.37695 520.119 -1.37695c4.07324 -0.188477 7.37305 3.11133 7.27832 7.18457l-1.58398 81.1582
c-0.0751953 3.84668 -3.22461 6.93945 -7.07129 6.9209zM590.358 6.91797c-1.58398 -1.52734 -3.61914 -2.33691 -5.78809 -2.33691h-0.414062c-4.43164 0.0185547 -451.066 1.75293 -520.043 1.35645h-0.0185547c-2.86621 0 -5.52539 1.43262 -7.07129 3.84668
c-1.56543 2.48926 -1.77246 5.5625 -0.490234 8.25879c36.3174 77.3682 210.476 321.843 314.525 467.924c28.2852 39.6738 52.7041 73.9365 68.4111 96.4893c43.6719 62.6602 44.709 130.978 31.1318 174.008c-17.7246 56.1738 -72.5596 115.986 -151.437 115.986
c-0.867188 0 -1.75391 0 -2.62109 -0.0185547c-26.7949 -0.452148 -117.777 -9.46582 -163.052 -106.482c-1.86719 -4.0166 -6.54395 -5.97754 -10.5791 -4.46875c-26.6816 9.89941 -33.7344 12.8223 -44.3887 17.2344c-7.0332 2.92285 -15.8018 6.5625 -32.8291 13.2754
c-2.14941 0.848633 -3.90332 2.60254 -4.80859 4.75195c-0.886719 2.16895 -0.886719 4.48828 0.0185547 6.58105c41.4463 95.7725 131.26 158.678 234.367 164.222c4.63867 0.245117 9.44727 0.376953 14.293 0.376953h0.358398c2.2627 0 4.375 0 6.50586 -0.131836
l0.396484 -0.0185547c4.50684 -0.131836 8.76855 -0.245117 13.124 -0.62207c4.39355 -0.358398 8.9375 -0.753906 13.293 -1.37598c130.958 -16.4619 230.746 -125.188 237.271 -258.542c0.0566406 -0.773438 0.0947266 -1.54688 0.132812 -2.32031
c0.0185547 -0.773438 0.0566406 -1.56543 0.113281 -2.37598c1.33887 -41.9561 -6.42969 -82.3281 -23.0801 -120.041c-0.358398 -0.810547 -0.698242 -1.62109 -1.13184 -2.43164v0l-0.188477 -0.452148l-24.5508 -43.0498
c-0.131836 -0.207031 -0.245117 -0.414062 -0.376953 -0.621094l-298.687 -431.361c-0.376953 -0.52832 -0.415039 -1.18848 -0.113281 -1.77344c0.301758 -0.56543 0.867188 -0.905273 1.52734 -0.905273v0l348.694 0.753906h0.0185547
c4.58203 0 8.37207 -3.7334 8.44727 -8.31543l1.58398 -81.1396c0.0566406 -2.35742 -0.885742 -4.6582 -2.54492 -6.28027zM83.8359 8.78613c-8.22168 0 -14.915 -0.0234375 -19.7236 -0.0234375h-0.0185547c-1.94238 0 -3.6582 0.923828 -4.69531 2.5459
c-1.05566 1.67871 -1.1875 3.75293 -0.320312 5.54395c36.2041 77.1416 210.287 321.484 314.28 467.472c28.2852 39.6738 52.7041 73.9551 68.4307 96.5264c37.0156 53.1377 49.084 120.738 31.5098 176.479c-18.0264 57.1162 -73.8223 117.947 -154.132 117.947
c-0.867188 0 -1.77246 -0.0185547 -2.65918 -0.0185547c-27.2285 -0.47168 -119.606 -9.61719 -165.56 -108.123c-1.26367 -2.69629 -4.33691 -3.99707 -7.05176 -3.0166c-26.625 9.88086 -33.6582 12.8037 -44.293 17.2158
c-7.05273 2.9043 -15.8213 6.54395 -32.8672 13.2949c-1.45215 0.56543 -2.63965 1.73438 -3.24316 3.20508c-0.603516 1.43359 -0.603516 2.97949 0 4.375c41.0312 94.7725 129.902 157.036 231.954 162.505c4.58203 0.245117 9.33398 0.376953 14.123 0.376953h0.376953
c2.1875 0 4.28027 0 6.39258 -0.131836l0.433594 -0.0185547c4.46875 -0.113281 8.67383 -0.245117 12.9727 -0.603516c4.33691 -0.358398 8.8252 -0.735352 13.124 -1.35742c129.619 -16.3105 228.39 -123.905 234.839 -255.938
c0.0751953 -0.773438 0.09375 -1.50879 0.112305 -2.2627c0.0380859 -0.810547 0.0761719 -1.64062 0.151367 -2.43262c1.30078 -41.4658 -6.39258 -81.4229 -22.8916 -118.777c-0.339844 -0.830078 -0.679688 -1.64062 -1.15137 -2.4707l-24.5508 -43.1621
c-0.0947266 -0.150391 -0.169922 -0.282227 -0.264648 -0.432617l-298.687 -431.305c-0.961914 -1.39551 -1.0752 -3.20605 -0.283203 -4.69531c0.791992 -1.50879 2.33789 -2.43262 4.01562 -2.43262v0l348.694 0.753906h0.0185547
c3.05469 0 5.58105 -2.46973 5.6377 -5.52441l1.58398 -81.1582c0.0380859 -1.62207 -0.583984 -3.09277 -1.71582 -4.20508c-1.09375 -1.0752 -2.62109 -1.64062 -4.14844 -1.52734c-4.20508 0 -390.876 1.37695 -500.395 1.37695z" />
    <glyph glyph-name="three" unicode="3" horiz-adv-x="593" 
d="M413.165 35.4688c136.729 83.5908 202.817 277.442 59.0176 443.549l-11.2764 13.0674c-0.0380859 0.0751953 -0.0380859 0.150391 0 0.225586c131.938 154.755 70.165 334.589 -56.9277 412.466c-0.603516 0.358398 -1.22559 0.848633 -1.96094 1.24414
c-31.0186 19.9121 -66.6006 33.2061 -104.634 38.0713c-4.20508 0.490234 -8.41016 0.999023 -12.6152 1.37598c-4.31836 0.245117 -8.52344 0.490234 -12.8418 0.603516c-1.97949 0.131836 -4.07227 0.131836 -6.05176 0.131836h-0.376953
c-4.43164 0 -9.01367 -0.131836 -13.5771 -0.376953c-93.6982 -5.05371 -172.65 -60.8125 -213.381 -139.558l86.3818 -40.7109c30.1514 71.0889 97.9971 90.2656 133.259 91.4727c3.82812 0.131836 6.75098 0.188477 10.4658 0
c112.611 -5.6377 168.898 -105.275 166.729 -169.218c-0.188477 -5.73242 0.245117 -7.44824 0 -12.7842c-2.96094 -62.6221 -40.5801 -141.179 -128.036 -141.537l0.641602 -94.4141c118.022 -3.90332 144.572 -123.321 147.08 -156.754
c0.376953 -5.73242 -0.208008 -13.7461 -0.47168 -19.8369c-2.82812 -55.8721 -59.0205 -163.882 -158.809 -172.744l-3.80859 -0.376953c-71.6357 -3.58301 -125.112 7.97559 -174.44 67.9766l-63.5088 -66.9033c-0.0380859 -0.0380859 -0.0380859 -0.113281 0 -0.151367
c47.1982 -56.1357 116.835 -94.4902 196.315 -98.752c4.94043 -0.245117 9.76758 -0.358398 14.5762 -0.358398h0.376953c2.09277 0 4.4502 0 6.54297 0.113281c4.56348 0.131836 9.01367 0.376953 13.709 0.62207c4.56348 0.376953 9.01367 0.867188 13.4639 1.37598
c40.6543 5.33594 78.8203 19.5156 112.046 40.8047c0.735352 0.376953 1.48926 0.999023 2.11133 1.37598zM271.852 -10.0059c-2.09277 -0.0947266 -4.44824 -0.0957031 -6.5791 -0.0957031h-0.376953c-4.82715 0 -9.61621 0.131836 -14.6318 0.358398
c-75.7461 4.03516 -147.627 40.2021 -197.2 99.1855l-0.716797 0.830078l0.735352 0.999023l64.5273 67.9775l0.905273 -1.1123c50.1016 -60.9258 103.522 -70.9951 173.424 -67.5254l3.7334 0.358398c98.2422 8.71191 154.868 116.307 157.678 171.537
c0.0380859 1.39551 0.132812 2.9043 0.208008 4.4502c0.263672 5.12891 0.546875 10.918 0.263672 15.2363c-0.358398 4.77051 -4.26172 47.876 -30.0576 88.8701c-26.7764 42.5967 -65.7529 65.0547 -115.817 66.6953l-1.22559 0.0380859v1.22559l-0.640625 95.6963
h1.26367c82.5723 0.339844 123.604 72.9746 126.79 140.312c0.113281 2.69629 0.0751953 4.43066 0.0185547 6.29785c-0.0566406 1.79102 -0.113281 3.6582 -0.0185547 6.48633c2.20605 65.1113 -55.4756 162.411 -165.541 167.917
c-3.7334 0.188477 -6.76953 0.09375 -10.3525 -0.000976562c-9.71094 -0.339844 -96.0732 -5.71387 -132.108 -90.7002l-0.52832 -1.22559l-1.1875 0.56543l-87.5889 41.2578l0.62207 1.16895c42.8604 82.8936 123.038 135.333 214.417 140.273
c4.50684 0.263672 9.08887 0.358398 13.6523 0.358398h0.376953c1.99902 0 4.12988 0 6.12891 -0.113281c4.29883 -0.131836 8.50391 -0.376953 12.8408 -0.640625c4.26172 -0.358398 8.4668 -0.848633 12.6719 -1.35742c37.751 -4.82715 73.126 -17.7061 105.182 -38.2598
c0.395508 -0.207031 0.847656 -0.508789 1.2998 -0.810547c0.226562 -0.150391 0.433594 -0.282227 0.640625 -0.414062c68.0342 -41.6914 115.892 -112.102 127.997 -188.319c8.69238 -54.8535 3.58203 -138.406 -70.166 -225.335l10.6543 -12.3701
c81.0264 -93.585 87.0605 -183.889 77.8398 -243.154c-12.7471 -81.9502 -64.0371 -157.584 -137.182 -202.312c-0.226562 -0.131836 -0.453125 -0.282227 -0.698242 -0.470703c-0.47168 -0.320312 -0.980469 -0.697266 -1.48926 -0.942383
c-33.5645 -21.4961 -72.5029 -35.6953 -112.46 -40.9189l-1.09375 -0.131836c-4.11035 -0.452148 -8.2207 -0.904297 -12.4258 -1.2627l-2.16895 -0.113281c-3.92188 -0.207031 -7.73047 -0.414062 -11.6152 -0.508789zM55.6445 90.3096l61.792 65.168
c50.3467 -60.5674 106.199 -70.7686 174.648 -67.3555l3.80859 0.376953c56.4189 4.99707 94.5654 40.4092 116.646 69.2217c24.7207 32.3008 41.71 73.3887 43.3125 104.729c0.0566406 1.39551 0.131836 2.88477 0.207031 4.43066
c0.263672 5.18555 0.546875 11.0498 0.263672 15.5566c-0.376953 4.82715 -4.33691 48.5176 -30.4346 90.0205c-27.04 43.0117 -66.2803 65.8467 -116.665 67.8457l-0.62207 91.9443c83.3643 1.09375 124.811 74.5771 128.035 142.725
c0.113281 2.77148 0.0566406 4.58203 0.0185547 6.48633c-0.0566406 1.75391 -0.113281 3.56445 -0.0185547 6.31738c2.24414 66.167 -56.2676 164.956 -167.954 170.537c-3.84668 0.207031 -6.91992 0.112305 -10.5596 -0.000976562
c-44.3125 -1.50879 -105.766 -26.2861 -133.843 -91.0205l-84.0059 39.5801c42.6152 81.3848 121.662 132.844 211.721 137.709c4.4502 0.245117 8.99414 0.376953 13.501 0.376953h0.376953c1.96094 0 4.03516 0 6.01465 -0.131836
c4.31836 -0.131836 8.52344 -0.358398 12.7852 -0.62207c4.18652 -0.376953 8.37305 -0.867188 12.54 -1.35742c37.3545 -4.75195 72.3896 -17.5176 104.22 -37.9395c0.433594 -0.207031 0.791992 -0.452148 1.15039 -0.71582
c0.263672 -0.169922 0.508789 -0.320312 0.753906 -0.490234c67.4121 -41.2959 114.799 -111.046 126.811 -186.547c8.63672 -54.4951 3.48926 -137.577 -70.1826 -223.996l-0.735352 -1.03711l11.9932 -13.9346c80.3848 -92.8682 86.3623 -182.361 77.2354 -241.1
c-12.6152 -81.2334 -63.4521 -156.188 -135.975 -200.538c-0.263672 -0.169922 -0.546875 -0.358398 -0.848633 -0.56543c-0.376953 -0.263672 -0.772461 -0.546875 -1.28125 -0.810547c-33.376 -21.3643 -71.9375 -35.4121 -111.498 -40.6162l-1.0752 -0.113281
c-4.0918 -0.47168 -8.16504 -0.923828 -12.332 -1.26367l-2.1123 -0.113281c-3.90332 -0.207031 -7.69336 -0.395508 -11.5967 -0.508789c-2.03613 -0.113281 -4.33691 -0.113281 -6.39258 -0.113281h-0.452148c-4.78906 0 -9.54102 0.0947266 -14.5 0.358398
c-74.7285 3.99805 -145.667 39.543 -194.75 97.5078z" />
    <glyph glyph-name="four" unicode="4" horiz-adv-x="736" 
d="M608.404 460.532c-0.716797 1.16895 -1.09473 2.5459 -1.09473 3.92285v244.757c0 4.12988 -3.35645 7.48633 -7.48633 7.48633l-74.3516 -0.0380859c-4.05371 0 -7.37207 -3.24316 -7.48535 -7.29688l-6.09082 -240.496
c-0.0751953 -2.82812 -2.39453 -5.09082 -5.24219 -5.07227l-294.878 1.28223c-3.375 0.0185547 -5.52441 3.60156 -3.97852 6.59961l236.555 455.083c2.62109 5.05371 -1.05566 11.0693 -6.75 11.0127l-83.4209 -0.660156
c-2.73438 -0.0185547 -5.24219 -1.52734 -6.54297 -3.94141l-271.024 -504.204c-1.35742 -2.5459 -1.15039 -5.61914 0.56543 -7.95703l34.6396 -47.3486c1.39551 -1.9043 3.62012 -3.03613 5.99609 -3.05469l391.725 -2.35742
c1.09375 0 1.98047 -0.886719 1.98047 -1.96191l2.35742 -355.521c0.0380859 -4.14844 3.41309 -7.48633 7.54297 -7.44824l80.4229 0.753906c4.12988 0.0380859 7.44824 3.39453 7.41016 7.52441l-1.94238 355.312c0 1.09375 0.886719 1.99902 1.98047 1.99902
l42.0879 -0.207031c5.88281 -0.0185547 9.50293 6.39258 6.41016 11.4082zM521.494 2.1123c-0.0751953 0.0185547 -0.0966797 0.0175781 -0.134766 0.0175781c-2.30078 0 -4.4502 0.886719 -6.07227 2.48926c-1.65918 1.64062 -2.56445 3.80957 -2.60254 6.11035
l-2.35742 355.521c0 0.433594 -0.358398 0.791992 -0.791992 0.810547l-391.725 2.33789c-2.75293 0.0185547 -5.35547 1.33887 -6.95801 3.54492l-34.6396 47.3486c-1.96094 2.65918 -2.22461 6.29883 -0.640625 9.22168l271.024 504.166
c1.48926 2.79102 4.39355 4.54492 7.56152 4.56348l83.4404 0.660156h0.0751953c3.05469 0 5.82617 -1.5459 7.41016 -4.14844c1.62207 -2.65918 1.73535 -5.86523 0.321289 -8.59961l-236.555 -455.083c-0.546875 -1.03711 -0.508789 -2.2627 0.0947266 -3.26172
s1.65918 -1.58398 2.82812 -1.60254l294.878 -1.28223h0.0185547c2.20605 0 3.97852 1.73438 4.03516 3.94043l6.09082 240.477c0.113281 4.67676 3.99805 8.4668 8.6748 8.4668l74.3516 0.0380859c4.77051 0 8.67383 -3.88477 8.67383 -8.65527v-244.757
c0 -1.1875 0.339844 -2.31934 0.943359 -3.2998l49.4043 -80.4414c1.67871 -2.73438 1.73535 -5.99609 0.169922 -8.78711c-1.56543 -2.77148 -4.375 -4.39355 -7.54297 -4.39355h-0.0556641l-42.0879 0.188477c-0.207031 0 -0.395508 -0.0947266 -0.545898 -0.226562
c-0.150391 -0.169922 -0.245117 -0.358398 -0.245117 -0.584961l1.96094 -355.312c0.0185547 -4.77051 -3.82812 -8.67383 -8.58008 -8.71191zM437.674 936.563c2.22461 0 4.21973 -1.12891 5.38867 -3.0332s1.26367 -4.26172 0.226562 -6.26074l-236.555 -455.083
c-0.923828 -1.77246 -0.848633 -3.84668 0.188477 -5.5625s2.84766 -2.75293 4.84668 -2.75293l294.878 -1.28223h0.0185547c3.50684 0 6.33496 2.73438 6.41016 6.26074l6.09082 240.496c0.0947266 3.35645 2.9043 6.12793 6.29883 6.12793l74.3516 0.0380859
c3.46973 0 6.29785 -2.82812 6.29785 -6.29785v-244.738c0 -1.60254 0.452148 -3.16797 1.28223 -4.52539l49.4043 -80.4229c1.22559 -1.99902 1.26367 -4.39355 0.131836 -6.41113c-1.13184 -1.99902 -3.1875 -3.20605 -5.48828 -3.20605h-0.0371094l-42.0879 0.207031
h-0.0371094c-0.830078 0 -1.62207 -0.320312 -2.22559 -0.923828s-0.923828 -1.39551 -0.923828 -2.2627l1.94238 -355.332c0.0380859 -3.45117 -2.77148 -6.2793 -6.24121 -6.31738l-80.4229 -0.753906h-0.0371094c-1.65918 0 -3.22461 0.640625 -4.41211 1.80957
c-1.20703 1.16895 -1.86719 2.75293 -1.88574 4.43066l-2.35742 355.521c-0.0185547 1.73438 -1.43262 3.14844 -3.14844 3.14844l-391.743 2.33789c-1.97949 0.0185547 -3.86523 0.999023 -5.03418 2.58301l-34.6582 47.3486
c-1.43262 1.94238 -1.62109 4.58203 -0.470703 6.69434l271.024 504.185c1.0752 2.03613 3.1875 3.2998 5.48828 3.31836l83.4404 0.660156h0.0556641z" />
    <glyph glyph-name="five" unicode="5" horiz-adv-x="634" 
d="M282.678 2.88477c-2.96094 -0.0947266 -5.92285 -0.152344 -8.8457 -0.152344c-68.1475 0 -132.354 25.4189 -195.994 77.501c-3.79004 3.11133 -4.39355 8.74902 -1.33887 12.5771l53.9111 67.5439c1.58398 1.99902 3.94141 3.20605 6.4873 3.30078
c0.113281 0 0.245117 0.0185547 0.339844 0.0185547c2.50781 0 4.92188 -1.05566 6.67578 -2.92285c51.252 -54.9482 136.672 -72.127 207.817 -41.8438c75.3691 32.0938 115.59 105.86 110.329 202.368c-5.86426 107.482 -62.8301 156.188 -109.613 178.081
c-77.9902 36.582 -166.917 20.7617 -201.104 -4.69434c-3.63965 -2.73438 -8.88184 -1.98047 -11.8984 1.65918l-53.7031 64.5459c-1.56543 1.88574 -2.30078 4.35547 -1.99902 6.78809l44.5205 363.006c0.52832 4.4502 4.33691 7.80664 8.8252 7.80664h368.606
c2.39453 0 4.65723 -0.923828 6.33594 -2.63965c1.69727 -1.69727 2.60254 -3.95996 2.58398 -6.35449l-0.830078 -73.9551c-0.0380859 -4.8457 -4.0166 -8.78711 -8.84375 -8.80566l-278.567 -1.73438c-3.03613 -0.0185547 -5.63867 -2.31934 -6.03418 -5.33594
l-29.9629 -227.089c-0.113281 -0.867188 0.188477 -1.71582 0.810547 -2.30078c0.678711 -0.62207 1.58398 -0.867188 2.4707 -0.697266c132.392 26.4561 216.378 -15.9521 263.5 -56.2109c67.2607 -57.418 105.068 -150.946 101.127 -250.188v0
c-3.16797 -79.1787 -32 -153.172 -81.1777 -208.384c-50.6104 -56.7773 -119.644 -89.418 -194.429 -91.8877z" />
    <glyph glyph-name="six" unicode="6" horiz-adv-x="747" 
d="M671.8 313.169c2.96094 -94.8672 -35.3389 -181.101 -97.9805 -239.65c-30.7549 -28.9072 -67.4492 -51.1387 -107.953 -64.3574c-3.09277 -0.999023 -6.18555 -1.97949 -9.27832 -2.97852c-1.60254 -0.490234 -3.20508 -0.867188 -4.80762 -1.22559
c-3.22461 -0.867188 -6.43066 -1.73438 -9.63672 -2.46973c-4.82715 -1.1123 -9.63574 -2.11133 -14.5762 -2.95996c-6.5625 -1.24414 -13.2188 -2.11133 -19.8936 -2.84668c-1.73438 -0.131836 -3.33691 -0.245117 -5.07129 -0.376953
c-3.33789 -0.245117 -6.54395 -0.62207 -9.88184 -0.867188c-1.73438 -0.113281 -3.58203 -0.113281 -5.42969 -0.245117c-92.3965 -3.07324 -176.779 39.165 -232.858 107.973c-40.6543 49.668 -69.335 114.968 -77.123 181.908
c-6.42969 55.2686 -36.3545 578.555 430.777 650.681c5.5625 0.848633 10.8613 -3.0166 11.748 -8.5791l11.5781 -72.5225c0.905273 -5.65723 -3.07324 -10.8428 -8.74902 -11.6729c-176.119 -25.0977 -294.783 -161.411 -316.694 -285.242
c-0.697266 -3.90332 3.95996 -6.35449 7.01465 -3.84668c49.8945 40.8623 120.116 57.2295 149.476 56.8711c5.18555 0 10.3711 0.376953 15.5752 0.376953h7.27832c4.94043 -0.131836 9.88086 -0.376953 14.708 -0.735352
c4.80859 -0.376953 9.74902 -0.867188 14.4443 -1.48926c139.595 -18.1592 250.037 -139.218 257.07 -290.428c0.131836 -1.73438 0.263672 -3.58203 0.263672 -5.31641zM575.95 280.601c0.980469 10.7861 1.375 22.3525 0.771484 33.5156
c-5.29883 105.992 -85.4199 189.263 -183.775 196.899c-7.05273 0.395508 -14.3125 0.602539 -21.5537 0.395508c-79.1592 -2.73438 -145.968 -53.2891 -175.742 -124.604c-7.8252 -18.6113 -13.124 -38.7881 -15.4814 -59.9639
c-0.980469 -9.78613 -1.56543 -19.9873 -1.16895 -30.5469c2.33789 -74.8604 42.3135 -139.52 100.297 -173.989c21.9492 -13.332 46.6514 -22.1572 72.6924 -25.8721c10.3896 -1.16895 21.1562 -1.77246 32.1309 -1.37695c1.56543 0 3.14941 0 4.50684 0.207031
c1.58398 0 3.14941 0.188477 4.71484 0.188477c1.56543 0.207031 3.13086 0.395508 4.50781 0.395508c1.37695 0.207031 2.94238 0.395508 4.11133 0.602539c1.96094 0.188477 3.92188 0.395508 5.88281 0.583984c1.16895 0.376953 2.35645 0.772461 3.71387 0.979492
c0.791992 0.188477 1.77246 0.188477 2.75293 0.395508c1.35742 0.376953 2.73438 0.583984 4.2998 0.979492c1.58398 0.188477 3.14941 0.56543 4.71484 0.960938c81.8936 19.9883 143.611 92.2842 152.625 180.25z" />
    <glyph glyph-name="seven" unicode="7" horiz-adv-x="659" 
d="M309.812 0.301758c-0.0185547 0 -0.0371094 0.000976562 -0.0751953 0.000976562c-3.2998 0 -6.37305 1.43262 -8.46582 3.97852c-2.13086 2.5459 -2.96094 5.88379 -2.32031 9.14551l161.619 812.658c0.188477 0.848633 -0.0380859 1.71582 -0.566406 2.37598
c-0.56543 0.660156 -1.35742 1.05566 -2.24414 1.07422l-372.321 3.28125c-5.99609 0.0566406 -10.8984 4.97852 -10.8984 10.9941v78.6123c0 2.94141 1.15039 5.69434 3.24316 7.78711c2.05566 2.05566 4.82715 3.1875 7.73145 3.1875h0.0556641l485.178 -1.88574
c3.28125 -0.0185547 6.35449 -1.4707 8.44727 -3.99707c2.09277 -2.5459 2.92285 -5.8457 2.31934 -9.05176l-175.195 -908.638c-0.980469 -5.11035 -5.4873 -8.86328 -10.6914 -8.90137z" />
    <glyph glyph-name="eight" unicode="8" horiz-adv-x="738" 
d="M662.41 302.024l-0.00292969 -7.375c0 -34.1113 -1.45215 -66.6768 -11.5781 -97.3184c0 -0.490234 -0.113281 -0.980469 -0.376953 -1.35742c-39.7686 -119.946 -150.079 -206.045 -279.925 -206.045c-151.078 0 -275.852 116.608 -293.633 267.31
c-0.490234 3.71484 -0.867188 7.54297 -1.1123 11.2578c-0.245117 3.07324 -0.490234 6.16602 -0.62207 9.25879c0 0.490234 0 0.980469 -0.113281 1.48926c-0.131836 1.71582 -0.245117 3.58301 -0.245117 5.43066c-0.263672 3.33789 -0.263672 6.67578 -0.263672 10.127
c0 3.82812 0.263672 7.54297 0.376953 11.126v1.35742c0.245117 7.27832 0.735352 14.3311 1.48926 21.3643c0.358398 4.20508 0.980469 8.41016 1.60254 12.5967c11.2383 76.2178 72.6729 162.185 126.527 192.468c-46.4619 41.7676 -75.0488 100.92 -80.0645 157.603
c-12.3887 139.878 88.4365 252.413 221.847 259.578c4.31836 0.245117 8.52344 0.376953 12.7285 0.376953h0.376953c1.96094 0 3.82812 0 5.67578 -0.131836c4.07324 0 8.14648 -0.245117 12.1064 -0.490234c4.07324 -0.376953 8.0332 -0.753906 11.8613 -1.24414
c114.761 -14.8213 205.555 -112.648 211.494 -234.839c0 -1.60254 0.113281 -2.95996 0.113281 -4.5625c2.1123 -63.8672 -32.791 -134.522 -76.8018 -174.932c55.8721 -32.0186 138.652 -125 138.539 -233.048zM228.595 730.856
c-0.697266 -6.6748 -1.05566 -13.5244 -0.71582 -20.5391c2.1123 -69.335 53.0244 -124.962 117.607 -133.73c7.01465 -0.886719 14.3877 -1.22656 21.7607 -1.05664c1.05566 0 2.11133 0.169922 3.16699 0.169922c1.03711 0 2.1123 0.169922 3.14941 0.169922
c1.0752 0.169922 2.1123 0.169922 3.16797 0.358398c0.886719 0 1.75391 0.169922 2.64062 0.339844c1.39551 0 2.62109 0.169922 4.03516 0.339844c0.867188 0.188477 1.58398 0.358398 2.45117 0.52832c0.716797 0 1.39551 0.188477 1.92383 0.358398
c1.05566 0.188477 1.94238 0.358398 2.97949 0.52832c1.0752 0.339844 2.1123 0.698242 3.16797 0.868164c55.6455 13.3506 97.6016 61.793 103.729 120.588c0.886719 7.20312 1.05664 14.7461 0.716797 22.4775c-3.69629 70.9004 -58.1162 126.546 -124.981 131.637
c-4.92188 0.339844 -9.82422 0.339844 -14.7461 0.339844c-67.9404 -2.28125 -122.511 -55.8145 -130.054 -123.377zM551.343 262.607c0.905273 9.23926 1.45215 18.6504 1.09375 28.6064c-2.16895 69.8633 -39.0898 130.147 -92.6797 162.373
c-20.2705 12.4834 -43.0869 20.8184 -67.167 24.0801c-9.5791 1.26367 -19.5352 1.98047 -29.6797 1.62207c-1.45215 0 -2.88477 0 -4.16699 -0.358398c-1.45215 0 -2.9043 -0.169922 -4.33691 -0.169922c-1.45215 -0.188477 -2.9043 -0.546875 -4.16797 -0.546875
c-1.28223 -0.188477 -2.71484 -0.358398 -3.80859 -0.546875c-1.81055 -0.188477 -3.62109 -0.358398 -5.43164 -0.546875c-1.09375 -0.376953 -2.16895 -0.546875 -3.43262 -0.735352c-0.735352 -0.169922 -1.64062 -0.169922 -2.5459 -0.358398
c-1.24414 -0.358398 -2.52637 -0.52832 -3.97852 -0.886719c-1.45215 -0.188477 -2.88477 -0.546875 -4.33691 -0.905273c-75.6709 -18.6494 -132.693 -86.1748 -141.009 -168.352c-0.923828 -10.1445 -1.28223 -20.8174 -0.735352 -31.5088
c4.88379 -98.8271 78.9336 -176.667 169.803 -183.738c6.52441 -0.358398 13.2188 -0.52832 19.9131 -0.358398c73.125 2.35742 134.861 49.8008 162.373 116.402c7.24121 17.3857 12.125 36.2041 14.2939 55.9277z" />
    <glyph glyph-name="nine" unicode="9" horiz-adv-x="634" 
d="M-0.716797 619.077c-2.96094 94.8857 35.3379 181.102 97.96 239.67c30.7549 28.9072 67.4492 51.1582 107.972 64.377c3.09277 0.980469 6.16602 1.96094 9.25879 2.95996c1.60254 0.490234 3.22461 0.867188 4.82715 1.22559
c3.20605 0.867188 6.41211 1.73438 9.63672 2.46973c4.80859 1.1123 9.63574 2.11133 14.5762 2.95996c6.54297 1.24414 13.2178 2.11133 19.8926 2.84668c1.71582 0.131836 3.31836 0.245117 5.05273 0.376953c3.33789 0.245117 6.54395 0.62207 9.88184 0.867188
c1.73438 0.113281 3.58203 0.113281 5.42969 0.245117c92.416 3.09277 176.78 -39.165 232.878 -107.973c40.6357 -49.668 69.335 -114.968 77.123 -181.908c6.41113 -55.0986 36.167 -575.387 -426.553 -650.002c-7.90039 -1.28223 -15.3867 4.24316 -16.6504 12.1436
l-10.2012 63.9043c-1.28223 8.07031 4.35547 15.4434 12.4258 16.6875c172.707 26.5498 289.259 160.242 311.943 282.489c0.830078 4.46875 -4.50586 7.65527 -8.06934 4.78906c-49.7812 -40.0137 -118.984 -56.0605 -148.062 -55.7207
c-5.18555 0 -10.3711 -0.376953 -15.5566 -0.376953h-7.29785c-4.94043 0.131836 -9.88086 0.376953 -14.6895 0.753906c-4.82715 0.358398 -9.76758 0.867188 -14.4629 1.4707c-139.595 18.1592 -250.037 139.236 -257.07 290.428
c-0.131836 1.73438 -0.245117 3.58203 -0.245117 5.31641zM95.1133 651.646c-0.980469 -10.7666 -1.35449 -22.3301 -0.769531 -33.5117c5.29883 -105.992 85.4199 -189.243 183.775 -196.898c7.07129 -0.396484 14.3125 -0.584961 21.5723 -0.396484
c79.1406 2.75293 145.949 53.3076 175.724 124.623c7.84473 18.6113 13.1436 38.7881 15.4814 59.9453c0.980469 9.78613 1.58398 19.9873 1.18848 30.5654c-2.35742 74.8418 -42.333 139.501 -100.316 173.989c-21.9492 13.3125 -46.6328 22.1377 -72.6924 25.8525
c-10.3896 1.1875 -21.1562 1.77246 -32.1309 1.37695c-1.56543 0 -3.13086 0 -4.50781 -0.188477c-1.56543 0 -3.13086 -0.207031 -4.71484 -0.207031c-1.56543 -0.188477 -3.13086 -0.395508 -4.50781 -0.395508c-1.35742 -0.188477 -2.94141 -0.395508 -4.11035 -0.583984
c-1.96094 -0.207031 -3.90332 -0.395508 -5.88281 -0.602539c-1.16895 -0.376953 -2.33789 -0.773438 -3.71484 -0.961914c-0.773438 -0.207031 -1.77246 -0.207031 -2.73438 -0.395508c-1.37695 -0.395508 -2.75391 -0.583984 -4.31934 -0.980469
c-1.56543 -0.207031 -3.13086 -0.583984 -4.71484 -0.980469c-81.8936 -19.9883 -143.611 -92.2842 -152.625 -180.25z" />
    <glyph glyph-name="colon" unicode=":" 
d="M149.306 324.841c-28.1152 0 -53.5723 15.498 -66.4512 40.4639c-5.50586 10.7295 -8.29688 22.251 -8.29688 34.2441c0 4.07324 0.339844 8.14648 1.01855 12.0879c1.22559 7.69336 3.67676 15.1602 7.27832 22.1934c12.9922 24.9287 38.4297 40.3906 66.4502 40.3906
c3.71484 0 7.41113 -0.263672 10.9561 -0.753906h0.0185547c36.3369 -5.39258 63.7539 -37.166 63.7539 -73.8984c0 -41.2012 -33.5264 -74.7275 -74.7275 -74.7275zM160.261 145.872c36.3555 -5.39258 63.7734 -37.166 63.7549 -73.8799
c0 -41.2207 -33.5273 -74.7471 -74.7285 -74.7471c-28.0957 0 -53.5713 15.5 -66.4316 40.4658c-5.52539 10.748 -8.31641 22.251 -8.31641 34.2627c0 4.07324 0.339844 8.12695 1.01855 12.0869c1.24414 7.69336 3.67676 15.1602 7.29688 22.1934
c12.9736 24.9287 38.4297 40.3906 66.4316 40.3906c3.6582 0 7.35449 -0.263672 10.9746 -0.772461z" />
    <glyph glyph-name="semicolon" unicode=";" horiz-adv-x="462" 
d="M147.043 972.787c13.8975 -1.58398 41.0312 -24.2109 57.7568 -54.1924c12.709 -22.7783 24.1553 -57.7949 6.54297 -95.1494c-11.2949 -23.7969 -36.5625 -39.165 -64.3945 -39.165c-3.63965 0 -7.10938 0.245117 -10.6162 0.735352h-0.0185547
c-35.2236 5.24219 -61.7734 36.0156 -61.7734 71.5977c0 39.8057 32.3203 72.2197 72.0889 72.4082c1.24414 2.75293 0.65918 23.8535 -0.566406 42.8232l-0.0566406 1.05566zM371.133 918.595c12.6904 -22.7979 24.1357 -57.8125 6.4668 -95.167
c-11.2949 -23.7783 -36.5244 -39.1465 -64.3193 -39.1465c-3.62012 0 -7.08984 0.245117 -10.5967 0.735352h-0.0185547c-35.2236 5.22363 -61.7734 35.9971 -61.7734 71.5977c0 39.8057 32.3008 72.2197 72.0693 72.4082
c1.24414 2.75293 0.65918 23.8535 -0.566406 42.8232l-0.0566406 1.05566l1.05566 -0.113281c13.8975 -1.58398 41.0322 -24.2119 57.7393 -54.1934z" />
    <glyph glyph-name="question" unicode="?" horiz-adv-x="487" 
d="M411.713 625.378c3.0166 -92.6611 -34.9424 -181.254 -104.108 -243.104c-33.4326 -29.9443 -71.9941 -51.874 -114.591 -65.1865c-3.2998 -1.03711 -6.6377 -2.01758 -9.9375 -2.97949c-1.41406 -0.395508 -2.80957 -0.753906 -4.18652 -1.1123l-0.905273 -0.245117
c-3.41309 -0.848633 -6.78809 -1.67871 -10.2393 -2.43262c-5.01562 -1.15039 -10.2393 -2.1875 -15.4814 -3.05469c-7.25977 -1.1875 -14.3877 -2.14941 -21.1572 -2.82812c-1.5459 -0.150391 -3.05469 -0.282227 -4.60059 -0.414062l-0.735352 -0.0751953
c-3.50684 -0.263672 -6.95801 -0.508789 -10.4463 -0.697266c-1.97949 -0.131836 -3.90332 -0.188477 -5.82715 -0.245117c-1.8291 -0.0751953 -3.62012 -0.09375 -5.41113 -0.09375c-1.45215 0 -2.9043 0.0185547 -4.33691 0.0185547l-3.79004 0.0380859v101.07
l1.5459 -0.0185547h0.0185547c1.05566 0 3.7334 0.791992 5.35547 1.26367c1.20703 0.358398 2.1875 0.641602 2.58398 0.679688c148.137 17.1787 194.26 148.25 199.521 197.296v18.5928c3.62012 43.2002 -15.6133 94.584 -50.1582 134.258
c-26.6445 30.585 -74.0498 67.9023 -148.533 71.9189c-1.45215 0.0751953 -2.56445 0.169922 -3.60156 0.264648c-1.56543 0.150391 -3.05469 0.263672 -5.18555 0.263672l-1.5459 -0.0380859v99.166l2.35742 0.0566406c0.415039 0 0.830078 0.0185547 1.24512 0.0185547
h0.452148c2.48926 0 4.97852 -0.0185547 7.39258 -0.0751953c5.07227 -0.150391 10.1631 -0.395508 15.5752 -0.772461c4.97852 -0.376953 10.1455 -0.905273 15.3496 -1.5459c150.739 -18.7617 265.613 -142.611 273.137 -294.5
c0.131836 -1.79102 0.188477 -3.62012 0.245117 -5.44922v-0.0380859zM160.261 152.622c36.3555 -5.41211 63.7529 -37.167 63.7529 -73.8809c0 -41.2207 -33.5264 -74.7471 -74.7275 -74.7471c-28.1152 0 -53.5713 15.5 -66.4502 40.4658
c-5.50586 10.748 -8.29688 22.2695 -8.29688 34.2627c0 4.11035 0.339844 8.18359 1 12.0684c1.24414 7.6748 3.69531 15.1611 7.29688 22.1943c12.9922 24.9287 38.4482 40.3906 66.4502 40.3906c3.6582 0 7.35449 -0.245117 10.9746 -0.753906z" />
    <glyph glyph-name="A" unicode="A" horiz-adv-x="872" 
d="M530.489 765.178l319.45 -754.09c2.22461 -5.26074 -1.62207 -11.1064 -7.35449 -11.1064h-88.9082c-3.11133 0 -5.95898 1.8291 -7.24121 4.65723l-95.9795 209.213c-1.30078 2.84766 -4.14844 4.6582 -7.27832 4.6582l-424.535 -1.30078
c-3.22461 -0.0185547 -6.10938 -1.94238 -7.35352 -4.92188l-84.835 -205.234c-1.24414 -2.97949 -4.14844 -4.92188 -7.37305 -4.92188l-87.3438 -0.0380859c-5.71387 0 -9.5791 5.8457 -7.35449 11.1064l318.58 751.979l86.4189 204.027
c2.75293 6.48633 11.9355 6.48633 14.6885 0zM258.393 325.482c-2.24414 -5.26074 1.62207 -11.0879 7.33594 -11.0879h342.019c5.73242 0 9.59766 5.82715 7.35352 11.0879l-171.01 403.51c-2.75293 6.48633 -11.9355 6.48633 -14.6885 0z" />
    <glyph glyph-name="A" unicode="&#xc5;" horiz-adv-x="872" 
d="M530.489 765.178l319.45 -754.09c2.22461 -5.26074 -1.62207 -11.1064 -7.35449 -11.1064h-88.9082c-3.11133 0 -5.95898 1.8291 -7.24121 4.65723l-95.9795 209.213c-1.30078 2.84766 -4.14844 4.6582 -7.27832 4.6582l-424.535 -1.30078
c-3.22461 -0.0185547 -6.10938 -1.94238 -7.35352 -4.92188l-84.835 -205.234c-1.24414 -2.97949 -4.14844 -4.92188 -7.37305 -4.92188l-87.3438 -0.0380859c-5.71387 0 -9.5791 5.8457 -7.35449 11.1064l318.58 751.979l86.4189 204.027
c2.75293 6.48633 11.9355 6.48633 14.6885 0zM258.393 325.482c-2.24414 -5.26074 1.62207 -11.0879 7.33594 -11.0879h342.019c5.73242 0 9.59766 5.82715 7.35352 11.0879l-171.01 403.51c-2.75293 6.48633 -11.9355 6.48633 -14.6885 0z" />
    <glyph glyph-name="A" unicode="&#xc4;" horiz-adv-x="872" 
d="M530.489 765.178l319.45 -754.09c2.22461 -5.26074 -1.62207 -11.1064 -7.35449 -11.1064h-88.9082c-3.11133 0 -5.95898 1.8291 -7.24121 4.65723l-95.9795 209.213c-1.30078 2.84766 -4.14844 4.6582 -7.27832 4.6582l-424.535 -1.30078
c-3.22461 -0.0185547 -6.10938 -1.94238 -7.35352 -4.92188l-84.835 -205.234c-1.24414 -2.97949 -4.14844 -4.92188 -7.37305 -4.92188l-87.3438 -0.0380859c-5.71387 0 -9.5791 5.8457 -7.35449 11.1064l318.58 751.979l86.4189 204.027
c2.75293 6.48633 11.9355 6.48633 14.6885 0zM258.393 325.482c-2.24414 -5.26074 1.62207 -11.0879 7.33594 -11.0879h342.019c5.73242 0 9.59766 5.82715 7.35352 11.0879l-171.01 403.51c-2.75293 6.48633 -11.9355 6.48633 -14.6885 0z" />
    <glyph glyph-name="A" unicode="&#xc3;" horiz-adv-x="872" 
d="M530.489 765.178l319.45 -754.09c2.22461 -5.26074 -1.62207 -11.1064 -7.35449 -11.1064h-88.9082c-3.11133 0 -5.95898 1.8291 -7.24121 4.65723l-95.9795 209.213c-1.30078 2.84766 -4.14844 4.6582 -7.27832 4.6582l-424.535 -1.30078
c-3.22461 -0.0185547 -6.10938 -1.94238 -7.35352 -4.92188l-84.835 -205.234c-1.24414 -2.97949 -4.14844 -4.92188 -7.37305 -4.92188l-87.3438 -0.0380859c-5.71387 0 -9.5791 5.8457 -7.35449 11.1064l318.58 751.979l86.4189 204.027
c2.75293 6.48633 11.9355 6.48633 14.6885 0zM258.393 325.482c-2.24414 -5.26074 1.62207 -11.0879 7.33594 -11.0879h342.019c5.73242 0 9.59766 5.82715 7.35352 11.0879l-171.01 403.51c-2.75293 6.48633 -11.9355 6.48633 -14.6885 0z" />
    <glyph glyph-name="A" unicode="&#xc2;" horiz-adv-x="872" 
d="M530.489 765.178l319.45 -754.09c2.22461 -5.26074 -1.62207 -11.1064 -7.35449 -11.1064h-88.9082c-3.11133 0 -5.95898 1.8291 -7.24121 4.65723l-95.9795 209.213c-1.30078 2.84766 -4.14844 4.6582 -7.27832 4.6582l-424.535 -1.30078
c-3.22461 -0.0185547 -6.10938 -1.94238 -7.35352 -4.92188l-84.835 -205.234c-1.24414 -2.97949 -4.14844 -4.92188 -7.37305 -4.92188l-87.3438 -0.0380859c-5.71387 0 -9.5791 5.8457 -7.35449 11.1064l318.58 751.979l86.4189 204.027
c2.75293 6.48633 11.9355 6.48633 14.6885 0zM258.393 325.482c-2.24414 -5.26074 1.62207 -11.0879 7.33594 -11.0879h342.019c5.73242 0 9.59766 5.82715 7.35352 11.0879l-171.01 403.51c-2.75293 6.48633 -11.9355 6.48633 -14.6885 0z" />
    <glyph glyph-name="A" unicode="&#xc1;" horiz-adv-x="872" 
d="M530.489 765.178l319.45 -754.09c2.22461 -5.26074 -1.62207 -11.1064 -7.35449 -11.1064h-88.9082c-3.11133 0 -5.95898 1.8291 -7.24121 4.65723l-95.9795 209.213c-1.30078 2.84766 -4.14844 4.6582 -7.27832 4.6582l-424.535 -1.30078
c-3.22461 -0.0185547 -6.10938 -1.94238 -7.35352 -4.92188l-84.835 -205.234c-1.24414 -2.97949 -4.14844 -4.92188 -7.37305 -4.92188l-87.3438 -0.0380859c-5.71387 0 -9.5791 5.8457 -7.35449 11.1064l318.58 751.979l86.4189 204.027
c2.75293 6.48633 11.9355 6.48633 14.6885 0zM258.393 325.482c-2.24414 -5.26074 1.62207 -11.0879 7.33594 -11.0879h342.019c5.73242 0 9.59766 5.82715 7.35352 11.0879l-171.01 403.51c-2.75293 6.48633 -11.9355 6.48633 -14.6885 0z" />
    <glyph glyph-name="A" unicode="&#xc0;" horiz-adv-x="872" 
d="M530.489 765.178l319.45 -754.09c2.22461 -5.26074 -1.62207 -11.1064 -7.35449 -11.1064h-88.9082c-3.11133 0 -5.95898 1.8291 -7.24121 4.65723l-95.9795 209.213c-1.30078 2.84766 -4.14844 4.6582 -7.27832 4.6582l-424.535 -1.30078
c-3.22461 -0.0185547 -6.10938 -1.94238 -7.35352 -4.92188l-84.835 -205.234c-1.24414 -2.97949 -4.14844 -4.92188 -7.37305 -4.92188l-87.3438 -0.0380859c-5.71387 0 -9.5791 5.8457 -7.35449 11.1064l318.58 751.979l86.4189 204.027
c2.75293 6.48633 11.9355 6.48633 14.6885 0zM258.393 325.482c-2.24414 -5.26074 1.62207 -11.0879 7.33594 -11.0879h342.019c5.73242 0 9.59766 5.82715 7.35352 11.0879l-171.01 403.51c-2.75293 6.48633 -11.9355 6.48633 -14.6885 0z" />
    <glyph glyph-name="B" unicode="B" horiz-adv-x="753" 
d="M589.68 507.881c61.208 -43.8975 121.549 -114.854 121.19 -229.729c-0.490234 -170.236 -148.363 -269.931 -252.508 -275.116c-74.502 -3.80859 -314.715 -0.62207 -371.643 0.188477c-6.76953 0.0947266 -12.1816 5.62012 -12.1816 12.4082v903.716
c0 6.84473 5.5625 12.4072 12.4072 12.4072h318.053c284.545 0 292.031 -303.212 183.663 -404.849c-5.69434 -5.35547 -5.33594 -14.4629 1.01855 -19.0264zM168.841 832.552v-267.403c0 -6.84473 5.54395 -12.3887 12.4072 -12.3887h234.16
c191.412 0 210.702 293.199 -8.54199 292.841c-2.99805 0 -6.18457 0.358398 -9.18262 0.358398h-5.80762l-210.684 -1.01855c-6.82617 -0.0185547 -12.3516 -5.5625 -12.3516 -12.3887zM609.913 267.404c0.999023 9.54102 1.19141 19.2754 0.776367 29.2129
c-2.97949 55.2305 -30.793 103.503 -71.9189 134.107c-26.625 20.0635 -59.002 32.7725 -93.9805 35.3555c-4.56348 0.207031 -8.93848 0.395508 -13.502 0.395508h-250.056c-6.84473 0 -12.4072 -5.54395 -12.4072 -12.4072v-334.175
c0 -6.84473 5.54395 -12.4072 12.4072 -12.4072h255.618c1.39551 0.207031 2.58301 0.207031 3.97852 0.395508c1.39551 0 2.77246 0 4.16797 0.207031c1.39551 0 2.79102 0.188477 4.18652 0.395508c1.1875 0 2.58301 0.188477 3.77051 0.395508
c1.60254 0.188477 3.375 0.395508 5.16602 0.583984c1.1875 0.188477 2.18652 0.395508 3.37402 0.583984c0.791992 0.207031 1.58398 0.207031 2.58301 0.395508c1.1875 0.207031 2.375 0.603516 3.77051 0.791992c1.39551 0.207031 2.79102 0.602539 4.18652 0.999023
c74.1064 17.084 129.752 79.6689 137.879 155.17z" />
    <glyph glyph-name="C" unicode="C" horiz-adv-x="806" 
d="M694.447 173.197c-83.1006 -64.791 -153.588 -75.2578 -212.948 -75.2578c-156.886 0 -365.815 146.892 -358.688 377.186c6.97656 233.104 195.636 372.189 347.336 374.414c61.1895 0.961914 138.916 -3.79004 227.07 -73.4268
c5.12891 -4.05371 12.4268 -3.80859 17.084 0.754883l49.668 48.499c5.50586 5.37402 5.24219 14.4629 -0.735352 19.3086c-94.3955 76.5762 -218.679 115.723 -351.899 95.7539c-198.521 -29.7744 -355.539 -191.601 -384.446 -396.043
c-44.5957 -316.129 215.322 -583.702 522.174 -537.749c79.6689 11.8799 152.53 45.0674 213.211 93.8682c5.9209 4.77051 6.29785 13.708 0.961914 19.1387l-51.5723 52.5723c-4.62012 4.69531 -12.0117 5.03516 -17.2158 0.981445zM549.25 5.50586
c-22.9863 -3.46973 -45.9336 -5.16504 -68.6553 -5.16504c-118.946 0 -232.425 46.4434 -318.995 132.278c-108.142 107.237 -157.64 257.354 -135.86 411.939c14.2178 100.562 58.8135 191.902 128.94 264.18c70.1465 72.2578 158.848 118.211 256.486 132.862
c127.621 19.1396 252.941 -14.9717 352.824 -95.998c3.05469 -2.46973 4.90234 -6.18457 5.09082 -10.1631c0.207031 -4.0918 -1.37695 -8.05176 -4.28125 -10.8994l-49.668 -48.499c-5.01562 -4.90234 -13.0293 -5.26074 -18.6299 -0.829102
c-79.4424 62.7354 -150.645 73.2568 -215.907 73.2568c-3.50684 0 -6.95801 -0.0380859 -10.4463 -0.0947266c-77.8584 -1.13184 -162.77 -38.6182 -227.127 -100.279c-73.6162 -70.5234 -115.874 -167.465 -119.061 -272.985
c-3.80859 -123.171 53.2695 -208.723 101.844 -258.824c70.0898 -72.2773 168.049 -117.175 255.693 -117.175c57.3799 0 127.45 8.91895 212.248 75.0303c5.71387 4.46875 13.7842 3.99707 18.7627 -1.09375l51.5918 -52.5723
c2.80957 -2.86621 4.28027 -6.80762 4.03516 -10.8242c-0.207031 -3.94141 -2.09277 -7.59961 -5.10938 -10.0322c-62.1514 -49.9883 -136.088 -82.5342 -213.776 -94.1123zM480.35 944.448c102.599 0 200.861 -34.6963 282.171 -100.656
c2.58301 -2.09277 4.0918 -5.10938 4.24219 -8.46582c0.169922 -3.41309 -1.15039 -6.75098 -3.58301 -9.12695l-49.668 -48.499c-4.18652 -4.05371 -10.8613 -4.35547 -15.5566 -0.65918c-84.2695 66.5635 -159.318 74.6533 -227.824 73.6729
c-78.4434 -1.15039 -163.938 -38.8818 -228.729 -100.938c-74.0303 -70.957 -116.57 -168.464 -119.757 -274.607c-3.84668 -123.981 53.6094 -210.099 102.504 -260.521c70.4854 -72.7109 169.104 -117.891 257.353 -117.891c54.3818 0 127.809 8.59863 213.681 75.5391
c4.78906 3.7334 11.5205 3.375 15.6504 -0.886719l51.5918 -52.5908c2.35742 -2.37598 3.58301 -5.69434 3.39453 -9.05078c-0.188477 -3.33789 -1.71582 -6.29883 -4.26172 -8.35449c-61.8301 -49.7061 -135.37 -82.083 -212.663 -93.6045
c-142.461 -21.3828 -283.074 24.7588 -385.673 126.471c-107.614 106.709 -156.867 256.128 -135.163 409.94c14.1611 100.071 58.5117 190.997 128.3 262.878c69.7881 71.8994 158.018 117.607 255.166 132.184c23.0615 3.45117 46.0479 5.16699 68.8262 5.16699z" />
    <glyph glyph-name="C" unicode="&#xc7;" horiz-adv-x="806" 
d="M694.447 173.197c-83.1006 -64.791 -153.588 -75.2578 -212.948 -75.2578c-156.886 0 -365.815 146.892 -358.688 377.186c6.97656 233.104 195.636 372.189 347.336 374.414c61.1895 0.961914 138.916 -3.79004 227.07 -73.4268
c5.12891 -4.05371 12.4268 -3.80859 17.084 0.754883l49.668 48.499c5.50586 5.37402 5.24219 14.4629 -0.735352 19.3086c-94.3955 76.5762 -218.679 115.723 -351.899 95.7539c-198.521 -29.7744 -355.539 -191.601 -384.446 -396.043
c-44.5957 -316.129 215.322 -583.702 522.174 -537.749c79.6689 11.8799 152.53 45.0674 213.211 93.8682c5.9209 4.77051 6.29785 13.708 0.961914 19.1387l-51.5723 52.5723c-4.62012 4.69531 -12.0117 5.03516 -17.2158 0.981445zM549.25 5.50586
c-22.9863 -3.46973 -45.9336 -5.16504 -68.6553 -5.16504c-118.946 0 -232.425 46.4434 -318.995 132.278c-108.142 107.237 -157.64 257.354 -135.86 411.939c14.2178 100.562 58.8135 191.902 128.94 264.18c70.1465 72.2578 158.848 118.211 256.486 132.862
c127.621 19.1396 252.941 -14.9717 352.824 -95.998c3.05469 -2.46973 4.90234 -6.18457 5.09082 -10.1631c0.207031 -4.0918 -1.37695 -8.05176 -4.28125 -10.8994l-49.668 -48.499c-5.01562 -4.90234 -13.0293 -5.26074 -18.6299 -0.829102
c-79.4424 62.7354 -150.645 73.2568 -215.907 73.2568c-3.50684 0 -6.95801 -0.0380859 -10.4463 -0.0947266c-77.8584 -1.13184 -162.77 -38.6182 -227.127 -100.279c-73.6162 -70.5234 -115.874 -167.465 -119.061 -272.985
c-3.80859 -123.171 53.2695 -208.723 101.844 -258.824c70.0898 -72.2773 168.049 -117.175 255.693 -117.175c57.3799 0 127.45 8.91895 212.248 75.0303c5.71387 4.46875 13.7842 3.99707 18.7627 -1.09375l51.5918 -52.5723
c2.80957 -2.86621 4.28027 -6.80762 4.03516 -10.8242c-0.207031 -3.94141 -2.09277 -7.59961 -5.10938 -10.0322c-62.1514 -49.9883 -136.088 -82.5342 -213.776 -94.1123zM480.35 944.448c102.599 0 200.861 -34.6963 282.171 -100.656
c2.58301 -2.09277 4.0918 -5.10938 4.24219 -8.46582c0.169922 -3.41309 -1.15039 -6.75098 -3.58301 -9.12695l-49.668 -48.499c-4.18652 -4.05371 -10.8613 -4.35547 -15.5566 -0.65918c-84.2695 66.5635 -159.318 74.6533 -227.824 73.6729
c-78.4434 -1.15039 -163.938 -38.8818 -228.729 -100.938c-74.0303 -70.957 -116.57 -168.464 -119.757 -274.607c-3.84668 -123.981 53.6094 -210.099 102.504 -260.521c70.4854 -72.7109 169.104 -117.891 257.353 -117.891c54.3818 0 127.809 8.59863 213.681 75.5391
c4.78906 3.7334 11.5205 3.375 15.6504 -0.886719l51.5918 -52.5908c2.35742 -2.37598 3.58301 -5.69434 3.39453 -9.05078c-0.188477 -3.33789 -1.71582 -6.29883 -4.26172 -8.35449c-61.8301 -49.7061 -135.37 -82.083 -212.663 -93.6045
c-142.461 -21.3828 -283.074 24.7588 -385.673 126.471c-107.614 106.709 -156.867 256.128 -135.163 409.94c14.1611 100.071 58.5117 190.997 128.3 262.878c69.7881 71.8994 158.018 117.607 255.166 132.184c23.0615 3.45117 46.0479 5.16699 68.8262 5.16699z" />
    <glyph glyph-name="D" unicode="D" horiz-adv-x="742" 
d="M228.786 928.606c240.156 0 423.271 -141.309 476.843 -316.354c97.1299 -317.374 -137.445 -607.896 -440.017 -607.896c-12.332 0 -158.979 0.848633 -195.183 1.05566c-4.48828 0.0185547 -8.0332 3.6582 -8.0332 8.16504v909.128
c0 3.26172 2.63965 5.90137 5.9209 5.90137h160.469zM236.913 92.3037c227.202 3.03613 396.382 165.767 396.363 375.602c0 203.122 -178.005 375.584 -398.626 374.207l-52.6094 1.35742h-0.490234c-0.716797 -0.0380859 -3.69629 -0.169922 -18.1406 -0.320312
c-3.22461 -0.0380859 -5.86426 -2.69727 -5.86426 -5.94043l1.20703 -738.552c0 -3.26172 2.62109 -5.88281 5.88281 -5.90137z" />
    <glyph glyph-name="E" unicode="E" horiz-adv-x="755" 
d="M710.928 15.5186c-0.0185547 -6.75098 -5.5293 -12.2754 -12.2988 -12.2754h-611.799c-6.76953 0 -12.2949 5.50586 -12.2949 12.2754v904.169c0 6.78809 5.52539 12.2939 12.2949 12.2939h611.799c6.76953 0 12.2754 -5.50586 12.2754 -12.2939v-65.2246
c0 -3.2998 -1.28223 -6.39258 -3.62012 -8.71191c-2.31934 -2.31934 -5.39258 -3.56348 -8.6543 -3.56348h-0.0751953l-522.419 2.94141h-0.0371094c-2.5459 0 -4.94043 -0.980469 -6.73145 -2.77148c-1.81055 -1.81055 -2.8291 -4.20508 -2.84766 -6.75098
l-0.640625 -262.086c0 -5.26074 4.26172 -9.55957 9.54199 -9.55957l401.474 -1.13184c6.75098 -0.0380859 12.2383 -5.56348 12.2383 -12.2949v-66.6572c0 -3.2998 -1.28223 -6.39258 -3.60156 -8.71191c-2.33789 -2.31934 -5.46777 -3.63965 -8.72949 -3.58301
l-400.927 2.22461h-0.0751953c-2.52637 0 -4.90234 -0.980469 -6.71289 -2.79102c-1.81055 -1.79102 -2.80957 -4.18555 -2.80957 -6.75v-360.027c0 -5.26074 4.26172 -9.52246 9.50391 -9.54102l522.928 -2.24414c6.73145 -0.0380859 12.2188 -5.54395 12.2188 -12.2949
v-64.6396z" />
    <glyph glyph-name="E" unicode="&#xcb;" horiz-adv-x="755" 
d="M710.928 15.5186c-0.0185547 -6.75098 -5.5293 -12.2754 -12.2988 -12.2754h-611.799c-6.76953 0 -12.2949 5.50586 -12.2949 12.2754v904.169c0 6.78809 5.52539 12.2939 12.2949 12.2939h611.799c6.76953 0 12.2754 -5.50586 12.2754 -12.2939v-65.2246
c0 -3.2998 -1.28223 -6.39258 -3.62012 -8.71191c-2.31934 -2.31934 -5.39258 -3.56348 -8.6543 -3.56348h-0.0751953l-522.419 2.94141h-0.0371094c-2.5459 0 -4.94043 -0.980469 -6.73145 -2.77148c-1.81055 -1.81055 -2.8291 -4.20508 -2.84766 -6.75098
l-0.640625 -262.086c0 -5.26074 4.26172 -9.55957 9.54199 -9.55957l401.474 -1.13184c6.75098 -0.0380859 12.2383 -5.56348 12.2383 -12.2949v-66.6572c0 -3.2998 -1.28223 -6.39258 -3.60156 -8.71191c-2.33789 -2.31934 -5.46777 -3.63965 -8.72949 -3.58301
l-400.927 2.22461h-0.0751953c-2.52637 0 -4.90234 -0.980469 -6.71289 -2.79102c-1.81055 -1.79102 -2.80957 -4.18555 -2.80957 -6.75v-360.027c0 -5.26074 4.26172 -9.52246 9.50391 -9.54102l522.928 -2.24414c6.73145 -0.0380859 12.2188 -5.54395 12.2188 -12.2949
v-64.6396z" />
    <glyph glyph-name="E" unicode="&#xca;" horiz-adv-x="755" 
d="M710.928 15.5186c-0.0185547 -6.75098 -5.5293 -12.2754 -12.2988 -12.2754h-611.799c-6.76953 0 -12.2949 5.50586 -12.2949 12.2754v904.169c0 6.78809 5.52539 12.2939 12.2949 12.2939h611.799c6.76953 0 12.2754 -5.50586 12.2754 -12.2939v-65.2246
c0 -3.2998 -1.28223 -6.39258 -3.62012 -8.71191c-2.31934 -2.31934 -5.39258 -3.56348 -8.6543 -3.56348h-0.0751953l-522.419 2.94141h-0.0371094c-2.5459 0 -4.94043 -0.980469 -6.73145 -2.77148c-1.81055 -1.81055 -2.8291 -4.20508 -2.84766 -6.75098
l-0.640625 -262.086c0 -5.26074 4.26172 -9.55957 9.54199 -9.55957l401.474 -1.13184c6.75098 -0.0380859 12.2383 -5.56348 12.2383 -12.2949v-66.6572c0 -3.2998 -1.28223 -6.39258 -3.60156 -8.71191c-2.33789 -2.31934 -5.46777 -3.63965 -8.72949 -3.58301
l-400.927 2.22461h-0.0751953c-2.52637 0 -4.90234 -0.980469 -6.71289 -2.79102c-1.81055 -1.79102 -2.80957 -4.18555 -2.80957 -6.75v-360.027c0 -5.26074 4.26172 -9.52246 9.50391 -9.54102l522.928 -2.24414c6.73145 -0.0380859 12.2188 -5.54395 12.2188 -12.2949
v-64.6396z" />
    <glyph glyph-name="E" unicode="&#xc9;" horiz-adv-x="755" 
d="M710.928 15.5186c-0.0185547 -6.75098 -5.5293 -12.2754 -12.2988 -12.2754h-611.799c-6.76953 0 -12.2949 5.50586 -12.2949 12.2754v904.169c0 6.78809 5.52539 12.2939 12.2949 12.2939h611.799c6.76953 0 12.2754 -5.50586 12.2754 -12.2939v-65.2246
c0 -3.2998 -1.28223 -6.39258 -3.62012 -8.71191c-2.31934 -2.31934 -5.39258 -3.56348 -8.6543 -3.56348h-0.0751953l-522.419 2.94141h-0.0371094c-2.5459 0 -4.94043 -0.980469 -6.73145 -2.77148c-1.81055 -1.81055 -2.8291 -4.20508 -2.84766 -6.75098
l-0.640625 -262.086c0 -5.26074 4.26172 -9.55957 9.54199 -9.55957l401.474 -1.13184c6.75098 -0.0380859 12.2383 -5.56348 12.2383 -12.2949v-66.6572c0 -3.2998 -1.28223 -6.39258 -3.60156 -8.71191c-2.33789 -2.31934 -5.46777 -3.63965 -8.72949 -3.58301
l-400.927 2.22461h-0.0751953c-2.52637 0 -4.90234 -0.980469 -6.71289 -2.79102c-1.81055 -1.79102 -2.80957 -4.18555 -2.80957 -6.75v-360.027c0 -5.26074 4.26172 -9.52246 9.50391 -9.54102l522.928 -2.24414c6.73145 -0.0380859 12.2188 -5.54395 12.2188 -12.2949
v-64.6396z" />
    <glyph glyph-name="E" unicode="&#xc8;" horiz-adv-x="755" 
d="M710.928 15.5186c-0.0185547 -6.75098 -5.5293 -12.2754 -12.2988 -12.2754h-611.799c-6.76953 0 -12.2949 5.50586 -12.2949 12.2754v904.169c0 6.78809 5.52539 12.2939 12.2949 12.2939h611.799c6.76953 0 12.2754 -5.50586 12.2754 -12.2939v-65.2246
c0 -3.2998 -1.28223 -6.39258 -3.62012 -8.71191c-2.31934 -2.31934 -5.39258 -3.56348 -8.6543 -3.56348h-0.0751953l-522.419 2.94141h-0.0371094c-2.5459 0 -4.94043 -0.980469 -6.73145 -2.77148c-1.81055 -1.81055 -2.8291 -4.20508 -2.84766 -6.75098
l-0.640625 -262.086c0 -5.26074 4.26172 -9.55957 9.54199 -9.55957l401.474 -1.13184c6.75098 -0.0380859 12.2383 -5.56348 12.2383 -12.2949v-66.6572c0 -3.2998 -1.28223 -6.39258 -3.60156 -8.71191c-2.33789 -2.31934 -5.46777 -3.63965 -8.72949 -3.58301
l-400.927 2.22461h-0.0751953c-2.52637 0 -4.90234 -0.980469 -6.71289 -2.79102c-1.81055 -1.79102 -2.80957 -4.18555 -2.80957 -6.75v-360.027c0 -5.26074 4.26172 -9.52246 9.50391 -9.54102l522.928 -2.24414c6.73145 -0.0380859 12.2188 -5.54395 12.2188 -12.2949
v-64.6396z" />
    <glyph glyph-name="F" unicode="F" horiz-adv-x="694" 
d="M126.734 15.3496l0.000976562 103.337h0.452148v345.771c0 5.93945 4.8457 10.7666 10.7852 10.7285l401.304 -2.22461c5.95898 -0.0380859 10.7861 4.78906 10.7861 10.7285v67.0156c0 5.9209 -4.77051 10.71 -10.6914 10.7285l-401.851 1.15039
c-5.9209 0.0185547 -10.71 4.82715 -10.71 10.748l0.641602 262.482c0.0185547 5.9209 4.8457 10.7295 10.7852 10.6914l522.815 -2.96094c5.93945 -0.0380859 10.7852 4.78906 10.7852 10.7285v65.6201c0 5.9209 -4.80859 10.7295 -10.7295 10.7295h-612.176
c-5.9209 0 -10.7295 -4.80859 -10.7295 -10.7295v-904.546c0 -5.9209 4.80859 -10.71 10.7295 -10.71h67.0723c5.9209 0 10.7295 4.79004 10.7295 10.7109zM128.074 15.3525c0.0185547 -6.6748 -5.41504 -12.1074 -12.0713 -12.1074h-67.0723
c-6.6748 0 -12.1055 5.43066 -12.1055 12.1055v904.527c0 6.6748 5.43066 12.1055 12.1055 12.1055h612.176c6.6748 0 12.1055 -5.43066 12.1055 -12.1055v-65.6201c0 -3.24316 -1.28223 -6.29785 -3.58301 -8.56055c-2.28125 -2.28125 -5.29785 -3.52539 -8.52246 -3.52539
h-0.0751953l-522.796 2.94141h-0.0751953c-2.46973 0 -4.78906 -0.942383 -6.56152 -2.69629c-1.77246 -1.77246 -2.77148 -4.11035 -2.79004 -6.61816l-0.640625 -262.482c0 -5.14746 4.18652 -9.35254 9.33398 -9.37109l401.851 -1.13184
c6.65625 -0.0380859 12.0684 -5.4502 12.0684 -12.1064v-67.0352c0 -3.24316 -1.26367 -6.2793 -3.56445 -8.56055c-2.30078 -2.2627 -5.31738 -3.52637 -8.54199 -3.52637h-0.0556641l-401.304 2.22461h-0.0761719c-2.46973 0 -4.82715 -0.961914 -6.58105 -2.71582
c-1.79102 -1.79102 -2.77148 -4.12891 -2.77148 -6.63672v-347.129h-0.452148v-101.976zM48.9307 929.23l612.21 -0.00292969c5.14746 0 9.33398 -4.18652 9.33398 -9.35352v-65.6201c0 -2.50781 -0.980469 -4.8457 -2.75293 -6.63672
c-1.75391 -1.75391 -4.11133 -2.71582 -6.58105 -2.71582h-0.0751953l-522.796 2.96094h-0.0751953c-3.20605 0 -6.22266 -1.24414 -8.50391 -3.50684c-2.30078 -2.28125 -3.58301 -5.31738 -3.58301 -8.56055l-0.640625 -262.482
c-0.0185547 -6.65625 5.39355 -12.0684 12.0498 -12.1064l401.869 -1.15039c5.12891 0 9.31543 -4.20508 9.31543 -9.35254v-67.0352c0 -2.50781 -0.980469 -4.8457 -2.75293 -6.61816s-4.12988 -2.73438 -6.61914 -2.73438h-0.0371094l-401.304 2.22461h-0.0751953
c-3.22461 0 -6.24121 -1.24414 -8.52246 -3.52539c-2.30078 -2.2627 -3.58301 -5.29883 -3.58301 -8.56055v-344.376h-0.452148v-104.729c0 -5.16699 -4.20508 -9.35352 -9.35254 -9.35352h-67.0723c-5.14746 0 -9.35254 4.18652 -9.35254 9.35352v904.527
c0 5.16699 4.20508 9.35352 9.35254 9.35352z" />
    <glyph glyph-name="G" unicode="G" horiz-adv-x="911" 
d="M784.92 87.8145c-28.5869 -20.459 -134.526 -87.1699 -296.768 -87.1699c-127.356 0 -255.128 59.5488 -341.773 159.337c-89.3047 102.806 -127.395 237.799 -107.274 380.09c14.2178 100.58 58.8135 191.921 128.94 264.179
c70.127 72.2393 158.79 118.174 256.41 132.825c58.3418 8.73047 117.514 7.88184 171.142 -2.43262c45.5576 -8.78711 86.7217 -24.3623 115.911 -43.8408c4.80859 -3.20605 6.05273 -9.84375 2.79102 -14.7842l-38.4668 -58.2285
c-3.12988 -4.77051 -9.40918 -6.25977 -14.293 -3.375c-33.2627 19.5166 -104.182 38.2227 -187.396 36.2988c-184.492 -4.46875 -350.335 -183.229 -347.959 -375.037c1.22559 -98.7705 39.2588 -193.053 107.086 -265.442
c68.5996 -73.2012 159.017 -114.252 254.601 -115.553c3.14941 -0.0380859 6.29883 -0.0566406 9.3916 -0.0566406c182.927 0 251.753 74.5771 263.858 89.7568c1.13184 1.43262 1.7168 3.18652 1.7168 5.09082l-0.753906 326.632
c-0.0185547 5.9209 4.80859 10.7861 10.7295 10.8047l75.9727 0.395508h0.0556641c2.86621 0 5.58203 -1.1123 7.61816 -3.14844s3.16797 -4.75195 3.16797 -7.63672v-499.772c0 -4.75195 -2.50781 -8.50488 -6.54297 -9.8252
c-4.12988 -1.35742 -8.63672 0.301758 -11.5029 4.22363l-45.1797 74.8604c-2.71484 3.6582 -7.73047 4.46875 -11.4824 1.80957z" />
    <glyph glyph-name="H" unicode="H" horiz-adv-x="892" 
d="M816.769 4.56348c-0.0380859 -4.26172 -3.50879 -7.73242 -7.75195 -7.73242h-84.8545c-4.24316 0 -7.71289 3.46973 -7.73145 7.71289l-1.05566 445.729c0 2.71484 -2.22461 4.9209 -4.94043 4.93945l-527.209 2.13086
c-1.41406 -0.131836 -2.58301 -0.527344 -3.54492 -1.45117c-0.942383 -0.942383 -1.45117 -2.18652 -1.45117 -3.52539l1.05566 -445.749c0 -4.18652 -3.375 -7.65625 -7.54199 -7.73145l-89.3232 -1.9043c-2.2627 -0.0947266 -4.05371 0.735352 -5.54297 2.1875
c-1.50879 1.4707 -2.33887 3.41309 -2.33887 5.52539v915.822c0 4.26172 3.46973 7.71289 7.73145 7.71289h86.1367c4.26172 0 7.73145 -3.45117 7.73145 -7.71289v-361.14c0 -2.75293 2.20605 -4.95898 4.95898 -4.95898h528.717
c2.73438 0 4.95898 2.22461 4.95898 4.95898v361.14c0 4.26172 3.45117 7.71289 7.71289 7.71289h86.5518c4.26172 0 7.73145 -3.45117 7.73145 -7.71289v-915.954z" />
    <glyph glyph-name="I" unicode="I" horiz-adv-x="208" 
d="M151.116 8.90039c0 -3.84668 -3.12988 -6.99609 -6.99512 -6.99609h-81.4414c-3.84668 0 -6.99609 3.14941 -6.99609 6.99609v917.425c0 3.86523 3.14941 6.99512 6.99609 6.99512h81.4414c3.86523 0 6.99512 -3.12988 6.99512 -6.99512v-917.425z" />
    <glyph glyph-name="I" unicode="&#xcf;" horiz-adv-x="208" 
d="M151.116 8.90039c0 -3.84668 -3.12988 -6.99609 -6.99512 -6.99609h-81.4414c-3.84668 0 -6.99609 3.14941 -6.99609 6.99609v917.425c0 3.86523 3.14941 6.99512 6.99609 6.99512h81.4414c3.86523 0 6.99512 -3.12988 6.99512 -6.99512v-917.425z" />
    <glyph glyph-name="I" unicode="&#xce;" horiz-adv-x="208" 
d="M151.116 8.90039c0 -3.84668 -3.12988 -6.99609 -6.99512 -6.99609h-81.4414c-3.84668 0 -6.99609 3.14941 -6.99609 6.99609v917.425c0 3.86523 3.14941 6.99512 6.99609 6.99512h81.4414c3.86523 0 6.99512 -3.12988 6.99512 -6.99512v-917.425z" />
    <glyph glyph-name="I" unicode="&#xcd;" horiz-adv-x="208" 
d="M151.116 8.90039c0 -3.84668 -3.12988 -6.99609 -6.99512 -6.99609h-81.4414c-3.84668 0 -6.99609 3.14941 -6.99609 6.99609v917.425c0 3.86523 3.14941 6.99512 6.99609 6.99512h81.4414c3.86523 0 6.99512 -3.12988 6.99512 -6.99512v-917.425z" />
    <glyph glyph-name="I" unicode="&#xcc;" horiz-adv-x="208" 
d="M151.116 8.90039c0 -3.84668 -3.12988 -6.99609 -6.99512 -6.99609h-81.4414c-3.84668 0 -6.99609 3.14941 -6.99609 6.99609v917.425c0 3.86523 3.14941 6.99512 6.99609 6.99512h81.4414c3.86523 0 6.99512 -3.12988 6.99512 -6.99512v-917.425z" />
    <glyph glyph-name="J" unicode="J" horiz-adv-x="677" 
d="M405.282 10.6914c-26.7197 -7.4668 -53.8369 -11.0713 -80.5947 -11.0713c-100.335 0 -195.881 50.5918 -248.83 137.275c-1.26367 2.05566 -1.62207 4.50684 -1.01855 6.90137c0.603516 2.37598 2.16895 4.4502 4.28125 5.67578l68.9961 39.8438
c4.26172 2.48926 9.61719 1.01855 12.2197 -3.26172c40.9189 -67.2607 132.26 -102.032 212.551 -80.9697c37.0527 9.74902 123.66 46.6514 127.922 178.723l-0.283203 638.217c0 4.97852 4.07324 9.03223 9.05176 9.03223h83.0254
c4.97852 0 9.05176 -4.05371 9.05176 -9.03223l0.263672 -635.803c-0.207031 -72.541 -19.7803 -134.409 -58.1533 -183.907c-34.2812 -44.1807 -82.1768 -75.8594 -138.482 -91.623z" />
    <glyph glyph-name="K" unicode="K" horiz-adv-x="677" 
d="M305.061 556.587l353.785 -556.587h-109.047l-0.415039 0.641602l-304.57 479.257l-74.0869 -94.0566l3.71484 -385.822h-99.9014v931.359h95.3193v-389.122l20.252 25.5312l58.8135 73.7666l230.427 289.824h120.757l-1.77246 -2.24414z" />
    <glyph glyph-name="L" unicode="L" horiz-adv-x="734" 
d="M667.539 -3.54492c-2.31934 -2.33789 -5.35645 -3.64062 -8.61816 -3.64062h-596.639c-6.65625 0 -12.0488 5.41211 -12.0488 12.0498v907.337c0 6.6377 5.39258 12.0498 12.0488 12.0498h73.0312c3.22461 0 6.26074 -1.26367 8.52344 -3.54492
c2.28125 -2.2627 3.52539 -5.31738 3.52539 -8.52344l-2.14941 -814.487c0 -2.48926 0.961914 -4.82715 2.71582 -6.56152c1.75391 -1.77246 4.07324 -2.73438 6.5625 -2.73438h502.752c6.46777 0 11.8799 -5.28027 12.0303 -11.748l1.67871 -71.4854
c0.0751953 -3.2998 -1.13184 -6.37305 -3.41309 -8.71094z" />
    <glyph glyph-name="M" unicode="M" horiz-adv-x="972" 
d="M895.042 8.91895c0 -4.92188 -3.98047 -8.91895 -8.9209 -8.91895l-87.6445 1.50879c-3.79004 0.0566406 -6.86328 3.18652 -6.86328 6.95801v662.862c0 2.16895 -1.41406 3.46973 -2.73438 3.97852c-1.33887 0.508789 -3.2627 0.452148 -4.67676 -1.13184
l-294.236 -328.141c-1.30078 -1.45215 -3.20508 -2.30078 -5.16602 -2.30078h-0.0371094c-1.94238 0 -3.84668 0.830078 -5.16699 2.28223l-295.877 326.425c-1.45215 1.58398 -3.35645 1.64062 -4.69531 1.1123c-1.28223 -0.508789 -2.69629 -1.80957 -2.69629 -3.95898
l0.697266 -662.617c0 -1.84766 -0.716797 -3.60156 -2.03711 -4.92188c-1.30078 -1.32031 -3.05469 -2.03711 -4.92188 -2.03711h-88.5498c-3.84668 -0.0185547 -6.97656 3.11133 -6.97656 6.93945v927.739c0 2.9043 1.75391 5.4502 4.46973 6.50586
c2.73438 1.03711 5.69531 0.358398 7.6748 -1.8291l392.611 -433.926c0.810547 -0.905273 1.92285 -1.39551 3.12988 -1.39551h0.0185547c1.20703 0 2.31934 0.490234 3.12988 1.39551l394.931 434.058c1.99902 2.1875 4.94043 2.82812 7.69336 1.79102
c2.73438 -1.05566 4.4502 -3.54492 4.4502 -6.48633z" />
    <glyph glyph-name="N" unicode="N" horiz-adv-x="760" 
d="M701.065 -13.0303c-0.886719 -0.301758 -1.77148 -0.453125 -2.6582 -0.453125c-2.28125 0 -4.46875 1.01855 -6.01465 2.9043l-529.019 656.564c-1.71582 2.07422 -4.0918 2.20605 -5.73242 1.62109c-1.65918 -0.584961 -3.4502 -2.16895 -3.4502 -4.84668
l-3.22461 -636.896c-0.0380859 -4.28027 -3.52637 -7.75 -7.80664 -7.75h-79.6875c-2.09277 0 -4.03516 0.810547 -5.50586 2.2998c-1.4707 1.4707 -2.28125 3.41309 -2.28125 5.50586l2.46973 909.298c0.0185547 3.35645 2.05469 6.22266 5.2041 7.33496
c3.18652 1.09375 6.56152 0.169922 8.6543 -2.45117l533.979 -661.523c1.69727 -2.07422 4.05469 -2.22461 5.73242 -1.62109c1.67773 0.584961 3.43164 2.16895 3.43164 4.86523v657.979c0 4.29883 3.50684 7.78711 7.80566 7.78711h77.8398
c2.09277 0 4.05371 -0.810547 5.52441 -2.28125c1.4707 -1.48926 2.28125 -3.4502 2.28125 -5.52441l-2.33789 -925.477c-0.0185547 -3.33789 -2.05469 -6.22266 -5.2041 -7.33496z" />
    <glyph glyph-name="N" unicode="&#xd1;" horiz-adv-x="760" 
d="M701.065 -13.0303c-0.886719 -0.301758 -1.77148 -0.453125 -2.6582 -0.453125c-2.28125 0 -4.46875 1.01855 -6.01465 2.9043l-529.019 656.564c-1.71582 2.07422 -4.0918 2.20605 -5.73242 1.62109c-1.65918 -0.584961 -3.4502 -2.16895 -3.4502 -4.84668
l-3.22461 -636.896c-0.0380859 -4.28027 -3.52637 -7.75 -7.80664 -7.75h-79.6875c-2.09277 0 -4.03516 0.810547 -5.50586 2.2998c-1.4707 1.4707 -2.28125 3.41309 -2.28125 5.50586l2.46973 909.298c0.0185547 3.35645 2.05469 6.22266 5.2041 7.33496
c3.18652 1.09375 6.56152 0.169922 8.6543 -2.45117l533.979 -661.523c1.69727 -2.07422 4.05469 -2.22461 5.73242 -1.62109c1.67773 0.584961 3.43164 2.16895 3.43164 4.86523v657.979c0 4.29883 3.50684 7.78711 7.80566 7.78711h77.8398
c2.09277 0 4.05371 -0.810547 5.52441 -2.28125c1.4707 -1.48926 2.28125 -3.4502 2.28125 -5.52441l-2.33789 -925.477c-0.0185547 -3.33789 -2.05469 -6.22266 -5.2041 -7.33496z" />
    <glyph glyph-name="O" unicode="O" horiz-adv-x="981" 
d="M958.834 465.661c0 255.958 -207.534 463.492 -463.36 463.492c-255.977 0 -463.511 -207.534 -463.511 -463.492s207.534 -463.492 463.511 -463.492c255.826 0 463.36 207.534 463.36 463.492zM862.364 465.661c0 -206.252 -164.354 -373.377 -366.872 -373.377
c-202.688 0 -367.042 167.125 -367.042 373.377s164.354 373.358 367.042 373.358c202.519 0 366.872 -167.106 366.872 -373.358zM960.361 465.68c0 -256.43 -208.553 -465.039 -464.888 -465.039c-256.41 0 -465.02 208.609 -465.02 465.039
c0 256.392 208.609 465.02 465.02 465.02c256.335 0 464.888 -208.628 464.888 -465.02zM495.474 927.645c254.657 0 461.853 -207.252 461.853 -461.966c0 -254.751 -207.195 -461.983 -461.853 -461.983c-254.732 0 -461.965 207.232 -461.965 461.983
c0 254.714 207.232 461.966 461.965 461.966zM495.492 90.7744c203.122 0 368.38 168.181 368.38 374.904c0 206.705 -165.258 374.886 -368.38 374.886c-203.235 0 -368.569 -168.181 -368.569 -374.886c0 -206.724 165.334 -374.904 368.569 -374.904zM860.837 465.66
c0 205.046 -163.881 371.851 -365.344 371.851c-201.538 0 -365.533 -166.805 -365.533 -371.851s163.976 -371.851 365.532 -371.851c201.463 0 365.345 166.805 365.345 371.851z" />
    <glyph glyph-name="O" unicode="&#xd8;" horiz-adv-x="981" 
d="M958.834 465.661c0 255.958 -207.534 463.492 -463.36 463.492c-255.977 0 -463.511 -207.534 -463.511 -463.492s207.534 -463.492 463.511 -463.492c255.826 0 463.36 207.534 463.36 463.492zM862.364 465.661c0 -206.252 -164.354 -373.377 -366.872 -373.377
c-202.688 0 -367.042 167.125 -367.042 373.377s164.354 373.358 367.042 373.358c202.519 0 366.872 -167.106 366.872 -373.358zM960.361 465.68c0 -256.43 -208.553 -465.039 -464.888 -465.039c-256.41 0 -465.02 208.609 -465.02 465.039
c0 256.392 208.609 465.02 465.02 465.02c256.335 0 464.888 -208.628 464.888 -465.02zM495.474 927.645c254.657 0 461.853 -207.252 461.853 -461.966c0 -254.751 -207.195 -461.983 -461.853 -461.983c-254.732 0 -461.965 207.232 -461.965 461.983
c0 254.714 207.232 461.966 461.965 461.966zM495.492 90.7744c203.122 0 368.38 168.181 368.38 374.904c0 206.705 -165.258 374.886 -368.38 374.886c-203.235 0 -368.569 -168.181 -368.569 -374.886c0 -206.724 165.334 -374.904 368.569 -374.904zM860.837 465.66
c0 205.046 -163.881 371.851 -365.344 371.851c-201.538 0 -365.533 -166.805 -365.533 -371.851s163.976 -371.851 365.532 -371.851c201.463 0 365.345 166.805 365.345 371.851z" />
    <glyph glyph-name="O" unicode="&#xd6;" horiz-adv-x="981" 
d="M958.834 465.661c0 255.958 -207.534 463.492 -463.36 463.492c-255.977 0 -463.511 -207.534 -463.511 -463.492s207.534 -463.492 463.511 -463.492c255.826 0 463.36 207.534 463.36 463.492zM862.364 465.661c0 -206.252 -164.354 -373.377 -366.872 -373.377
c-202.688 0 -367.042 167.125 -367.042 373.377s164.354 373.358 367.042 373.358c202.519 0 366.872 -167.106 366.872 -373.358zM960.361 465.68c0 -256.43 -208.553 -465.039 -464.888 -465.039c-256.41 0 -465.02 208.609 -465.02 465.039
c0 256.392 208.609 465.02 465.02 465.02c256.335 0 464.888 -208.628 464.888 -465.02zM495.474 927.645c254.657 0 461.853 -207.252 461.853 -461.966c0 -254.751 -207.195 -461.983 -461.853 -461.983c-254.732 0 -461.965 207.232 -461.965 461.983
c0 254.714 207.232 461.966 461.965 461.966zM495.492 90.7744c203.122 0 368.38 168.181 368.38 374.904c0 206.705 -165.258 374.886 -368.38 374.886c-203.235 0 -368.569 -168.181 -368.569 -374.886c0 -206.724 165.334 -374.904 368.569 -374.904zM860.837 465.66
c0 205.046 -163.881 371.851 -365.344 371.851c-201.538 0 -365.533 -166.805 -365.533 -371.851s163.976 -371.851 365.532 -371.851c201.463 0 365.345 166.805 365.345 371.851z" />
    <glyph glyph-name="O" unicode="&#xd5;" horiz-adv-x="981" 
d="M958.834 465.661c0 255.958 -207.534 463.492 -463.36 463.492c-255.977 0 -463.511 -207.534 -463.511 -463.492s207.534 -463.492 463.511 -463.492c255.826 0 463.36 207.534 463.36 463.492zM862.364 465.661c0 -206.252 -164.354 -373.377 -366.872 -373.377
c-202.688 0 -367.042 167.125 -367.042 373.377s164.354 373.358 367.042 373.358c202.519 0 366.872 -167.106 366.872 -373.358zM960.361 465.68c0 -256.43 -208.553 -465.039 -464.888 -465.039c-256.41 0 -465.02 208.609 -465.02 465.039
c0 256.392 208.609 465.02 465.02 465.02c256.335 0 464.888 -208.628 464.888 -465.02zM495.474 927.645c254.657 0 461.853 -207.252 461.853 -461.966c0 -254.751 -207.195 -461.983 -461.853 -461.983c-254.732 0 -461.965 207.232 -461.965 461.983
c0 254.714 207.232 461.966 461.965 461.966zM495.492 90.7744c203.122 0 368.38 168.181 368.38 374.904c0 206.705 -165.258 374.886 -368.38 374.886c-203.235 0 -368.569 -168.181 -368.569 -374.886c0 -206.724 165.334 -374.904 368.569 -374.904zM860.837 465.66
c0 205.046 -163.881 371.851 -365.344 371.851c-201.538 0 -365.533 -166.805 -365.533 -371.851s163.976 -371.851 365.532 -371.851c201.463 0 365.345 166.805 365.345 371.851z" />
    <glyph glyph-name="O" unicode="&#xd4;" horiz-adv-x="981" 
d="M958.834 465.661c0 255.958 -207.534 463.492 -463.36 463.492c-255.977 0 -463.511 -207.534 -463.511 -463.492s207.534 -463.492 463.511 -463.492c255.826 0 463.36 207.534 463.36 463.492zM862.364 465.661c0 -206.252 -164.354 -373.377 -366.872 -373.377
c-202.688 0 -367.042 167.125 -367.042 373.377s164.354 373.358 367.042 373.358c202.519 0 366.872 -167.106 366.872 -373.358zM960.361 465.68c0 -256.43 -208.553 -465.039 -464.888 -465.039c-256.41 0 -465.02 208.609 -465.02 465.039
c0 256.392 208.609 465.02 465.02 465.02c256.335 0 464.888 -208.628 464.888 -465.02zM495.474 927.645c254.657 0 461.853 -207.252 461.853 -461.966c0 -254.751 -207.195 -461.983 -461.853 -461.983c-254.732 0 -461.965 207.232 -461.965 461.983
c0 254.714 207.232 461.966 461.965 461.966zM495.492 90.7744c203.122 0 368.38 168.181 368.38 374.904c0 206.705 -165.258 374.886 -368.38 374.886c-203.235 0 -368.569 -168.181 -368.569 -374.886c0 -206.724 165.334 -374.904 368.569 -374.904zM860.837 465.66
c0 205.046 -163.881 371.851 -365.344 371.851c-201.538 0 -365.533 -166.805 -365.533 -371.851s163.976 -371.851 365.532 -371.851c201.463 0 365.345 166.805 365.345 371.851z" />
    <glyph glyph-name="O" unicode="&#xd3;" horiz-adv-x="981" 
d="M958.834 465.661c0 255.958 -207.534 463.492 -463.36 463.492c-255.977 0 -463.511 -207.534 -463.511 -463.492s207.534 -463.492 463.511 -463.492c255.826 0 463.36 207.534 463.36 463.492zM862.364 465.661c0 -206.252 -164.354 -373.377 -366.872 -373.377
c-202.688 0 -367.042 167.125 -367.042 373.377s164.354 373.358 367.042 373.358c202.519 0 366.872 -167.106 366.872 -373.358zM960.361 465.68c0 -256.43 -208.553 -465.039 -464.888 -465.039c-256.41 0 -465.02 208.609 -465.02 465.039
c0 256.392 208.609 465.02 465.02 465.02c256.335 0 464.888 -208.628 464.888 -465.02zM495.474 927.645c254.657 0 461.853 -207.252 461.853 -461.966c0 -254.751 -207.195 -461.983 -461.853 -461.983c-254.732 0 -461.965 207.232 -461.965 461.983
c0 254.714 207.232 461.966 461.965 461.966zM495.492 90.7744c203.122 0 368.38 168.181 368.38 374.904c0 206.705 -165.258 374.886 -368.38 374.886c-203.235 0 -368.569 -168.181 -368.569 -374.886c0 -206.724 165.334 -374.904 368.569 -374.904zM860.837 465.66
c0 205.046 -163.881 371.851 -365.344 371.851c-201.538 0 -365.533 -166.805 -365.533 -371.851s163.976 -371.851 365.532 -371.851c201.463 0 365.345 166.805 365.345 371.851z" />
    <glyph glyph-name="O" unicode="&#xd2;" horiz-adv-x="981" 
d="M958.834 465.661c0 255.958 -207.534 463.492 -463.36 463.492c-255.977 0 -463.511 -207.534 -463.511 -463.492s207.534 -463.492 463.511 -463.492c255.826 0 463.36 207.534 463.36 463.492zM862.364 465.661c0 -206.252 -164.354 -373.377 -366.872 -373.377
c-202.688 0 -367.042 167.125 -367.042 373.377s164.354 373.358 367.042 373.358c202.519 0 366.872 -167.106 366.872 -373.358zM960.361 465.68c0 -256.43 -208.553 -465.039 -464.888 -465.039c-256.41 0 -465.02 208.609 -465.02 465.039
c0 256.392 208.609 465.02 465.02 465.02c256.335 0 464.888 -208.628 464.888 -465.02zM495.474 927.645c254.657 0 461.853 -207.252 461.853 -461.966c0 -254.751 -207.195 -461.983 -461.853 -461.983c-254.732 0 -461.965 207.232 -461.965 461.983
c0 254.714 207.232 461.966 461.965 461.966zM495.492 90.7744c203.122 0 368.38 168.181 368.38 374.904c0 206.705 -165.258 374.886 -368.38 374.886c-203.235 0 -368.569 -168.181 -368.569 -374.886c0 -206.724 165.334 -374.904 368.569 -374.904zM860.837 465.66
c0 205.046 -163.881 371.851 -365.344 371.851c-201.538 0 -365.533 -166.805 -365.533 -371.851s163.976 -371.851 365.532 -371.851c201.463 0 365.345 166.805 365.345 371.851z" />
    <glyph glyph-name="P" unicode="P" horiz-adv-x="736" 
d="M433.284 928.456c94.8857 -6.54297 259.92 -70.0342 259.938 -270.667c0 -210.608 -123.642 -283.376 -208.892 -289.919c-88.5312 -6.86328 -257.014 -4.99609 -295.726 -4.44922c-4.48828 0.0566406 -8.07129 -3.56348 -8.07129 -8.03223v-344.791
c0 -4.43164 -3.58301 -8.0332 -8.01465 -8.0332h-89.9453c-4.43164 0 -8.0332 3.60156 -8.0332 8.0332v911.976c0 4.41211 3.50684 8.01367 7.91895 8.03223c48.4043 0.169922 304.004 0.980469 350.824 -2.14941zM586.155 640.309
c0 110.216 -53.458 190.809 -177.798 190.563l-220.413 0.226562c-4.43164 0 -8.01465 -3.58301 -8.01465 -8.0332v-342.811c0 -4.43164 3.58301 -8.0332 8.01465 -8.0332h237.592c91.2842 0 160.619 57.7383 160.619 168.087z" />
    <glyph glyph-name="Q" unicode="Q" horiz-adv-x="958" 
d="M927.4 473.863c0 -148.457 -80.2363 -321.918 -209.63 -396.665c-4.28027 -2.46973 -4.67676 -8.39062 -0.678711 -11.2949l69.7314 -50.46c5.28027 -3.82812 2.71582 -12.1816 -3.80859 -12.2568c-67.5059 -0.905273 -281.433 -3.54492 -309.604 -1.33887
c-242.664 18.8945 -434.963 192.092 -452.744 435.944v1.24414c-0.867188 11.4834 -1.24414 23.0986 -1.24414 34.8271c0 260.785 203.217 472.147 453.989 472.147s453.989 -211.362 453.989 -472.147zM655.714 161.845c101.127 64.1494 168.709 179.796 168.709 312.018
c0 201.651 -157.169 365.062 -351.014 365.062s-351.032 -163.41 -351.032 -365.062c0 -14.2178 0.791992 -28.2656 2.35742 -41.9932c19.9688 -181.852 168.558 -322.936 348.675 -322.936c66.8086 0 129.224 19.3652 182.305 52.9111z" />
    <glyph glyph-name="R" unicode="R" horiz-adv-x="645" 
d="M605.482 14.9912c2.82812 -4.56348 -0.511719 -10.5029 -5.8291 -10.5029l-107.35 -0.245117c-2.46973 0 -4.69434 1.24414 -5.93848 3.33691l-221.62 364.93c-1.22559 2.09277 -3.4502 3.33691 -5.91992 3.33691l-114.384 -0.263672
c-3.20605 0 -5.80859 -2.60254 -5.80859 -5.82715v-362.29c0 -3.82812 -3.09277 -6.9209 -6.80762 -6.9209l-83.1191 -0.546875c-6.54297 -0.0566406 -11.8789 5.24219 -11.8789 11.8047v906.771c0 6.29785 5.14746 11.4082 11.4453 11.3701l300.497 -1.79102
c153.304 1.97949 249.283 -135.013 250.15 -276.832c1.35742 -196.428 -141.442 -257.824 -202.349 -270.175c-4.69531 -0.980469 -7.0332 -6.16602 -4.56348 -10.2393zM145.552 477.748l174.553 -1.22461c100.562 0 168.389 44.1055 167.635 179.985
c-0.490234 111.31 -95.3574 173.064 -140.707 172.216l-200.482 0.848633c-3.84668 0 -6.91992 -3.07324 -6.91992 -6.90137l-0.999023 -338.003c0 -3.82812 3.09277 -6.9209 6.9209 -6.9209z" />
    <glyph glyph-name="S" unicode="S" horiz-adv-x="553" 
d="M44.124 150.494c256.316 -387.878 730.41 63.957 299.652 333.511c-157.037 90.002 -193.694 151.663 -193.789 215.775c-0.283203 172.537 204.216 196.843 267.932 49.6494c2.14941 -4.95898 7.71191 -7.44824 12.7275 -5.44922l64.4326 25.7207
c5.03516 1.99902 7.59961 7.78809 5.60059 12.8232c-99.4678 247.944 -462.418 180.815 -455.14 -80.8369c7.4668 -269.195 412.674 -292.709 366.589 -511.406c-20.3652 -96.583 -182.475 -147.25 -287.901 4.58203c-2.82812 4.0918 -8.24023 5.54395 -12.6719 3.24316
l-63.7354 -33.376c-5.16699 -2.71484 -6.9209 -9.37109 -3.69629 -14.2363zM330.558 3.39062c-15.7266 -3.22461 -31.4307 -4.80859 -46.9688 -4.80859c-89.8701 0 -175.535 53.2695 -240.326 151.323c-1.69727 2.56445 -2.20605 5.75098 -1.43262 8.74902
c0.773438 3.0166 2.79102 5.5625 5.50586 6.99512l63.7539 33.376c4.78906 2.48926 10.8232 0.980469 14.0098 -3.60156c49.9883 -71.9756 120.719 -106.709 189.093 -92.8311c49.7432 10.0508 87.7959 44.5586 96.9229 87.8906
c22.6094 107.256 -65.6201 168.37 -159.017 233.086c-95.5078 66.167 -203.801 141.197 -207.591 278.076c-1.67871 60.2461 16.3672 114.251 52.2129 156.169c32.3203 37.8076 78.4619 64.5088 129.902 75.1816c98.7139 20.459 222.073 -17.9707 275.06 -150.098
c1.0752 -2.65918 1.01855 -5.60059 -0.131836 -8.25977c-1.16895 -2.73438 -3.31836 -4.82715 -6.03418 -5.90234l-64.4512 -25.7207c-5.46875 -2.22461 -11.6729 0.43457 -14.0869 6.01562c-15.4434 35.6768 -40.127 63.2637 -71.4102 79.7627
c-28.5869 15.085 -61.209 19.875 -91.8135 13.5205c-49.7432 -10.3711 -102.862 -53.2314 -102.692 -142.536c0.0751953 -54.1182 23.5518 -117.608 193.279 -214.87l0.0380859 -0.0185547c127.96 -80.0645 190.243 -187.659 170.878 -295.197
c-16.5752 -92.1143 -90.8135 -166.993 -184.7 -186.302zM116.012 198.159c2.84766 0 5.62109 -1.41113 7.35547 -3.88086c50.4785 -72.6914 121.907 -107.746 191.224 -93.6982c50.5547 10.2393 89.248 45.3877 98.5439 89.5117
c22.8916 108.613 -65.8848 170.123 -159.865 235.234c-48.9326 33.8848 -99.5059 68.958 -138.558 112.667c-44.1621 49.498 -66.4502 103.051 -68.1279 163.75c-1.65918 59.7188 16.2168 113.233 51.6855 154.736c32.0371 37.4492 77.7451 63.9238 128.752 74.502
c97.8271 20.3271 220.13 -17.8389 272.683 -148.835c0.867188 -2.14941 0.810547 -4.50684 -0.0947266 -6.67578c-0.961914 -2.20605 -2.69629 -3.90332 -4.90234 -4.79004l-64.4512 -25.7207c-4.43164 -1.75391 -9.42871 0.395508 -11.3896 4.90234
c-15.6133 36.1289 -40.6543 64.0742 -72.333 80.7998c-29.0391 15.293 -62.1699 20.1953 -93.2266 13.709c-50.5547 -10.5215 -104.521 -54.0234 -104.371 -144.572c0.0566406 -36.0723 12.2383 -67.4688 38.2979 -98.8457
c30.3027 -36.4873 81.3281 -75.0107 156.019 -117.815c127.188 -79.6123 189.131 -186.415 169.935 -293.049c-16.4238 -91.2656 -90.002 -165.466 -183.059 -184.624c-105.71 -21.7041 -209.609 31.3203 -285.13 145.609
c-1.35742 2.05566 -1.77246 4.63867 -1.15039 7.07129s2.24414 4.48828 4.4502 5.65723l63.7539 33.376c1.24414 0.660156 2.62109 0.980469 3.95996 0.980469z" />
    <glyph glyph-name="T" unicode="T" horiz-adv-x="745" 
d="M425.082 1.52734c-2.1875 -2.13086 -5.05469 -3.31738 -8.10938 -3.31738h-0.169922l-82.4785 1.0752c-6.29785 0.0751953 -11.4082 5.26074 -11.3896 11.5586l1.84766 807.001c0 2.20605 -0.848633 4.28027 -2.39453 5.8457
c-1.56543 1.5459 -3.63965 2.39453 -5.8457 2.39453h-0.0185547l-254.11 -0.886719h-0.0371094c-6.31738 0 -11.4648 5.11035 -11.5215 11.4463l-0.62207 70.957c-0.0185547 3.09277 1.16895 6.01562 3.35645 8.20312c2.1875 2.22461 5.0918 3.41211 8.18457 3.41211
h640.064c6.35449 0 11.5215 -5.16699 11.5215 -11.54v-69.958c0 -6.35449 -5.14746 -11.5215 -11.502 -11.54l-266.027 -0.376953c-2.20605 0 -4.26172 -0.867188 -5.80762 -2.43262c-1.56543 -1.5459 -2.39551 -3.62012 -2.39551 -5.80762l0.886719 -807.812
c0 -3.11133 -1.22559 -6.03418 -3.43164 -8.22168z" />
    <glyph glyph-name="U" unicode="U" horiz-adv-x="825" 
d="M719.563 138.973c-88.6445 -130.487 -247.928 -136.65 -307.872 -138.97c-60.0771 2.31934 -219.377 8.4668 -308.021 138.991c-58.8887 86.7588 -66.8457 166.937 -66.8457 233.934v551.533c0 1.84766 1.5459 3.375 3.41309 3.41309l84.3076 0.150391
c0.376953 -0.0751953 0.583984 -0.0566406 0.923828 -0.113281c0.867188 -0.188477 2.67773 -0.52832 9.03223 -0.301758l1.16895 0.0380859v-1.16895l1.20703 -489.213c0 -76.1807 5.22363 -162.883 44.125 -228.334c42.125 -70.9004 117.212 -106.709 229.465 -109.387
v0.358398v1.05566c0 0.113281 0 0.226562 0.0185547 0.339844v0.0751953c0.0566406 0.508789 0.263672 1.20605 1.13086 1.20605c0.753906 0 0.999023 0 1.09375 -1.20703h0.0380859c-0.0185547 -0.0566406 -0.0185547 -0.263672 -0.0185547 -0.527344
c0.0185547 -0.358398 0.0371094 -0.791992 0.0371094 -1.32031c86.8906 0.508789 154.001 24.6826 199.426 71.8242c53.4961 55.5137 78.5752 144.63 74.54 264.858l0.0947266 492.965l1.15039 -0.0185547l96.0176 -1.28223c1.32031 0 2.41406 -1.0752 2.41406 -2.41406
l-0.0185547 -552.552c0.0185547 -40.7109 -6.46777 -145.025 -66.8271 -233.934z" />
    <glyph glyph-name="U" unicode="&#xdc;" horiz-adv-x="825" 
d="M719.563 138.973c-88.6445 -130.487 -247.928 -136.65 -307.872 -138.97c-60.0771 2.31934 -219.377 8.4668 -308.021 138.991c-58.8887 86.7588 -66.8457 166.937 -66.8457 233.934v551.533c0 1.84766 1.5459 3.375 3.41309 3.41309l84.3076 0.150391
c0.376953 -0.0751953 0.583984 -0.0566406 0.923828 -0.113281c0.867188 -0.188477 2.67773 -0.52832 9.03223 -0.301758l1.16895 0.0380859v-1.16895l1.20703 -489.213c0 -76.1807 5.22363 -162.883 44.125 -228.334c42.125 -70.9004 117.212 -106.709 229.465 -109.387
v0.358398v1.05566c0 0.113281 0 0.226562 0.0185547 0.339844v0.0751953c0.0566406 0.508789 0.263672 1.20605 1.13086 1.20605c0.753906 0 0.999023 0 1.09375 -1.20703h0.0380859c-0.0185547 -0.0566406 -0.0185547 -0.263672 -0.0185547 -0.527344
c0.0185547 -0.358398 0.0371094 -0.791992 0.0371094 -1.32031c86.8906 0.508789 154.001 24.6826 199.426 71.8242c53.4961 55.5137 78.5752 144.63 74.54 264.858l0.0947266 492.965l1.15039 -0.0185547l96.0176 -1.28223c1.32031 0 2.41406 -1.0752 2.41406 -2.41406
l-0.0185547 -552.552c0.0185547 -40.7109 -6.46777 -145.025 -66.8271 -233.934z" />
    <glyph glyph-name="U" unicode="&#xdb;" horiz-adv-x="825" 
d="M719.563 138.973c-88.6445 -130.487 -247.928 -136.65 -307.872 -138.97c-60.0771 2.31934 -219.377 8.4668 -308.021 138.991c-58.8887 86.7588 -66.8457 166.937 -66.8457 233.934v551.533c0 1.84766 1.5459 3.375 3.41309 3.41309l84.3076 0.150391
c0.376953 -0.0751953 0.583984 -0.0566406 0.923828 -0.113281c0.867188 -0.188477 2.67773 -0.52832 9.03223 -0.301758l1.16895 0.0380859v-1.16895l1.20703 -489.213c0 -76.1807 5.22363 -162.883 44.125 -228.334c42.125 -70.9004 117.212 -106.709 229.465 -109.387
v0.358398v1.05566c0 0.113281 0 0.226562 0.0185547 0.339844v0.0751953c0.0566406 0.508789 0.263672 1.20605 1.13086 1.20605c0.753906 0 0.999023 0 1.09375 -1.20703h0.0380859c-0.0185547 -0.0566406 -0.0185547 -0.263672 -0.0185547 -0.527344
c0.0185547 -0.358398 0.0371094 -0.791992 0.0371094 -1.32031c86.8906 0.508789 154.001 24.6826 199.426 71.8242c53.4961 55.5137 78.5752 144.63 74.54 264.858l0.0947266 492.965l1.15039 -0.0185547l96.0176 -1.28223c1.32031 0 2.41406 -1.0752 2.41406 -2.41406
l-0.0185547 -552.552c0.0185547 -40.7109 -6.46777 -145.025 -66.8271 -233.934z" />
    <glyph glyph-name="U" unicode="&#xda;" horiz-adv-x="825" 
d="M719.563 138.973c-88.6445 -130.487 -247.928 -136.65 -307.872 -138.97c-60.0771 2.31934 -219.377 8.4668 -308.021 138.991c-58.8887 86.7588 -66.8457 166.937 -66.8457 233.934v551.533c0 1.84766 1.5459 3.375 3.41309 3.41309l84.3076 0.150391
c0.376953 -0.0751953 0.583984 -0.0566406 0.923828 -0.113281c0.867188 -0.188477 2.67773 -0.52832 9.03223 -0.301758l1.16895 0.0380859v-1.16895l1.20703 -489.213c0 -76.1807 5.22363 -162.883 44.125 -228.334c42.125 -70.9004 117.212 -106.709 229.465 -109.387
v0.358398v1.05566c0 0.113281 0 0.226562 0.0185547 0.339844v0.0751953c0.0566406 0.508789 0.263672 1.20605 1.13086 1.20605c0.753906 0 0.999023 0 1.09375 -1.20703h0.0380859c-0.0185547 -0.0566406 -0.0185547 -0.263672 -0.0185547 -0.527344
c0.0185547 -0.358398 0.0371094 -0.791992 0.0371094 -1.32031c86.8906 0.508789 154.001 24.6826 199.426 71.8242c53.4961 55.5137 78.5752 144.63 74.54 264.858l0.0947266 492.965l1.15039 -0.0185547l96.0176 -1.28223c1.32031 0 2.41406 -1.0752 2.41406 -2.41406
l-0.0185547 -552.552c0.0185547 -40.7109 -6.46777 -145.025 -66.8271 -233.934z" />
    <glyph glyph-name="U" unicode="&#xd9;" horiz-adv-x="825" 
d="M719.563 138.973c-88.6445 -130.487 -247.928 -136.65 -307.872 -138.97c-60.0771 2.31934 -219.377 8.4668 -308.021 138.991c-58.8887 86.7588 -66.8457 166.937 -66.8457 233.934v551.533c0 1.84766 1.5459 3.375 3.41309 3.41309l84.3076 0.150391
c0.376953 -0.0751953 0.583984 -0.0566406 0.923828 -0.113281c0.867188 -0.188477 2.67773 -0.52832 9.03223 -0.301758l1.16895 0.0380859v-1.16895l1.20703 -489.213c0 -76.1807 5.22363 -162.883 44.125 -228.334c42.125 -70.9004 117.212 -106.709 229.465 -109.387
v0.358398v1.05566c0 0.113281 0 0.226562 0.0185547 0.339844v0.0751953c0.0566406 0.508789 0.263672 1.20605 1.13086 1.20605c0.753906 0 0.999023 0 1.09375 -1.20703h0.0380859c-0.0185547 -0.0566406 -0.0185547 -0.263672 -0.0185547 -0.527344
c0.0185547 -0.358398 0.0371094 -0.791992 0.0371094 -1.32031c86.8906 0.508789 154.001 24.6826 199.426 71.8242c53.4961 55.5137 78.5752 144.63 74.54 264.858l0.0947266 492.965l1.15039 -0.0185547l96.0176 -1.28223c1.32031 0 2.41406 -1.0752 2.41406 -2.41406
l-0.0185547 -552.552c0.0185547 -40.7109 -6.46777 -145.025 -66.8271 -233.934z" />
    <glyph glyph-name="V" unicode="V" horiz-adv-x="832" 
d="M684.792 920.97l-263.255 -690.583l-266.329 691.826c-1.64062 4.28027 -5.75098 7.08984 -10.3145 7.08984h-86.6455c-4.80859 0 -8.1084 -4.82715 -6.35449 -9.2959l362.177 -925.76c1.65918 -4.20508 7.59863 -4.20508 9.25781 -0.0185547l368.438 927.381
c1.4707 3.67676 -1.24512 7.6748 -5.22363 7.6748l-89.9268 -0.150391c-5.26074 -0.0185547 -9.95605 -3.26172 -11.8232 -8.16406zM424.422 -6.20605c-0.961914 -2.41406 -3.14746 -3.89941 -5.71191 -3.89941h-0.0185547
c-2.58301 0.0185547 -4.77051 1.50781 -5.71289 3.90234l-362.177 925.778c-0.980469 2.45117 -0.660156 5.22266 0.810547 7.42871c1.50879 2.1875 3.97852 3.48828 6.61816 3.48828h86.6641c5.01562 0 9.59766 -3.14941 11.4082 -7.84473l265.235 -688.96l262.143 687.678
c2.03613 5.33594 7.22168 8.91895 12.9355 8.9375l89.9453 0.150391h0.0185547c2.24414 0 4.33691 -1.09375 5.60059 -2.96094s1.52734 -4.22461 0.697266 -6.31738zM58.25 928.137l86.6416 -0.0175781c4.03516 0 7.75 -2.5459 9.20215 -6.31738l266.348 -691.845
l1.09375 -2.88477l264.35 693.466c1.67871 4.41211 5.97754 7.3916 10.7109 7.41016l89.9453 0.150391h0.0185547c1.4707 0 2.80957 -0.678711 3.6582 -1.92285c0.830078 -1.24414 1 -2.7334 0.43457 -4.12891l-368.437 -927.381
c-0.678711 -1.75391 -2.2627 -2.37598 -3.50684 -2.37598h-0.0185547c-1.24414 0 -2.80957 0.62207 -3.50684 2.41309l-362.195 925.74c-0.697266 1.77246 -0.470703 3.67676 0.604492 5.22266c1.0752 1.56543 2.75293 2.4707 4.65723 2.4707z" />
    <glyph glyph-name="W" unicode="W" horiz-adv-x="1149" 
d="M400.682 -2.63965c-1.32031 -3.26172 -4.33789 -5.31641 -7.88281 -5.31641h-0.0185547c-3.56348 0.0185547 -6.56152 2.07422 -7.8623 5.39258l-358.217 915.784c-1.35742 3.46973 -0.905273 7.37305 1.1875 10.4658c2.09277 3.07324 5.58105 4.90234 9.31445 4.90234
h77.3682c7.65527 0 14.6318 -4.80859 17.3848 -11.9365l262.049 -680.72c0.395508 -1.01855 1.30078 -1.11328 1.60254 -1.11328c0.283203 0 1.20703 0.0947266 1.58398 1.11328l178.873 469.188c1.1875 3.11133 3.99707 5.05371 7.33496 5.05371
c3.35645 0 6.14746 -1.92383 7.35449 -5.03516l44.6338 -116.043l131.146 -350.523c0.584961 -1.58398 1.99902 -2.14941 3.11133 -2.14941s2.50781 0.56543 3.11133 2.14941l253.544 678.702c1.56543 4.18652 5.61914 7.01465 10.126 7.01465h0.0185547l87.1543 -0.320312
c3.58301 0 6.9209 -1.79102 8.91992 -4.73242c2.01758 -2.94141 2.41406 -6.69336 1.11328 -10.0312l-359.292 -909.581c-1.45215 -3.69629 -4.80859 -5.97754 -8.76855 -5.97754h-0.0556641c-3.97852 0.0185547 -7.33496 2.33789 -8.76758 6.07129l-172.839 453.649
c-0.245117 0.641602 -0.848633 0.716797 -1.03711 0.716797s-0.753906 -0.0566406 -1.03711 -0.716797z" />
    <glyph glyph-name="X" unicode="X" horiz-adv-x="809" 
d="M787.561 6.97656c-1.30078 -2.45117 -3.77344 -3.91992 -6.56445 -3.91992h-99.0723c-5.26074 0 -10.1631 2.62109 -13.124 6.97656l-255.638 380.882c-1.67871 2.52637 -5.73242 2.48828 -7.41016 -0.000976562l-253.997 -378.374
c-3.97852 -5.93945 -10.6162 -9.50293 -17.7812 -9.50293h-96.0547c-2.80957 0 -5.26074 1.4707 -6.56152 3.94043c-1.33887 2.48926 -1.18848 5.37402 0.357422 7.69336l311.735 464.454c3.18652 4.77051 3.18652 10.8984 0 15.6689l-281.282 418.916
c-2.22461 3.31836 -2.41309 7.3916 -0.545898 10.918c1.86719 3.50684 5.37402 5.61914 9.35254 5.61914l91.1338 0.0947266h0.0371094c6.54297 0 12.6152 -3.24316 16.2549 -8.67383l227.334 -338.662c1.67871 -2.48926 5.73242 -2.50781 7.41113 0l229.088 341.283
c2.56445 3.79004 6.80762 6.05273 11.3711 6.05273h0.0371094l93.3965 -0.0947266c4.16699 0 7.8252 -2.20605 9.78613 -5.88281c1.94238 -3.67676 1.73535 -7.93848 -0.583984 -11.3896l-281.132 -418.708c-2.99805 -4.43164 -2.99805 -10.2021 0 -14.6338
l312.075 -464.964c1.56543 -2.33789 1.71582 -5.22266 0.376953 -7.69238z" />
    <glyph glyph-name="Y" unicode="Y" horiz-adv-x="883" 
d="M492.022 4.24316c-1.97949 -1.96094 -4.57812 -3.03418 -7.36914 -3.03418h-0.132812l-95.5273 1.22559c-5.65723 0.0751953 -10.2773 4.77051 -10.2959 10.4463l-0.886719 452.726c0 1.64062 -0.546875 3.28125 -1.58398 4.56348l-348.053 443.335
c-2.48926 3.16797 -2.94141 7.3916 -1.20703 11.0117c1.77246 3.62012 5.37402 5.88281 9.39062 5.90137l98.5059 0.188477h0.0371094c3.14941 0 6.09082 -1.41406 8.08984 -3.88379l288.73 -356.728c1.41406 -1.75391 3.52637 -2.75293 5.78906 -2.75293h0.0371094
c2.28125 0.0185547 4.39355 1.03711 5.78906 2.82812l281.772 357.312c1.99902 2.52637 4.97852 3.97852 8.20312 3.97852l99.8447 0.207031h0.0185547c4.0166 0 7.59961 -2.24414 9.37207 -5.8457s1.33887 -7.8252 -1.1123 -11.0117l-345.64 -446.106
c-1.01855 -1.32031 -1.54688 -2.9043 -1.54688 -4.58301l0.867188 -452.349c0 -2.80957 -1.09375 -5.44922 -3.09277 -7.42871z" />
    <glyph glyph-name="Y" unicode="&#xdd;" horiz-adv-x="883" 
d="M492.022 4.24316c-1.97949 -1.96094 -4.57812 -3.03418 -7.36914 -3.03418h-0.132812l-95.5273 1.22559c-5.65723 0.0751953 -10.2773 4.77051 -10.2959 10.4463l-0.886719 452.726c0 1.64062 -0.546875 3.28125 -1.58398 4.56348l-348.053 443.335
c-2.48926 3.16797 -2.94141 7.3916 -1.20703 11.0117c1.77246 3.62012 5.37402 5.88281 9.39062 5.90137l98.5059 0.188477h0.0371094c3.14941 0 6.09082 -1.41406 8.08984 -3.88379l288.73 -356.728c1.41406 -1.75391 3.52637 -2.75293 5.78906 -2.75293h0.0371094
c2.28125 0.0185547 4.39355 1.03711 5.78906 2.82812l281.772 357.312c1.99902 2.52637 4.97852 3.97852 8.20312 3.97852l99.8447 0.207031h0.0185547c4.0166 0 7.59961 -2.24414 9.37207 -5.8457s1.33887 -7.8252 -1.1123 -11.0117l-345.64 -446.106
c-1.01855 -1.32031 -1.54688 -2.9043 -1.54688 -4.58301l0.867188 -452.349c0 -2.80957 -1.09375 -5.44922 -3.09277 -7.42871z" />
    <glyph glyph-name="Z" unicode="Z" horiz-adv-x="930" 
d="M837.775 12.6719c-0.0185547 -6.42969 -5.25977 -11.6738 -11.6895 -11.6738h-739.854c-4.375 0 -8.37305 2.41406 -10.3721 6.33594c-2.01758 3.88477 -1.69727 8.52344 0.848633 12.0869l573.634 807.228c0.603516 0.848633 0.678711 1.9043 0.207031 2.82812
s-1.3584 1.4707 -2.39551 1.4707l-541.427 0.150391c-6.29785 0 -11.54 5.11035 -11.6533 11.3896l-1.79102 77.8398c-0.0751953 3.14941 1.1123 6.14746 3.31836 8.41016c2.22461 2.28125 5.18555 3.50684 8.35352 3.50684l737.76 0.188477
c4.375 0 8.35352 -2.39453 10.3711 -6.29785c2.01758 -3.88477 1.69727 -8.52344 -0.829102 -12.0869l-562.961 -797.063c-1.13184 -1.60254 -1.28223 -3.58203 -0.358398 -5.31641c0.886719 -1.73438 2.58398 -2.77148 4.52637 -2.77148l532.658 -0.415039
c6.42969 0 11.6533 -5.24219 11.6533 -11.6533v-84.1562z" />
    <glyph glyph-name="a" unicode="a" horiz-adv-x="591" 
d="M543.501 344.037c6.29785 -22.9668 9.74902 -47.1797 9.76758 -72.2588v-264.405c0 -6.90137 -8.67383 -10.0127 -13.0674 -4.65723l-63.6221 77.4629c-1.33887 1.35742 -3.50781 1.33887 -4.88477 0.0185547c-53.873 -51.9688 -123.963 -77.2363 -186.151 -77.2363
c-147.74 0 -267.573 120.455 -267.573 268.818c0 148.608 119.833 268.932 267.573 268.932c122.926 0 226.562 -83.2705 257.958 -196.674zM451.972 244.455c1.37695 8.90039 2.16797 17.9902 2.16797 27.2861c0 93.6787 -75.501 169.369 -168.596 169.369
s-168.577 -75.6904 -168.577 -169.369c0 -84.9863 62.4531 -155.34 143.875 -167.408c8.1084 -1.1875 16.4053 -1.77246 24.7021 -1.77246c83.8174 0 153.379 61.4717 166.428 141.895z" />
    <glyph glyph-name="a" unicode="&#xe5;" horiz-adv-x="591" 
d="M543.501 344.037c6.29785 -22.9668 9.74902 -47.1797 9.76758 -72.2588v-264.405c0 -6.90137 -8.67383 -10.0127 -13.0674 -4.65723l-63.6221 77.4629c-1.33887 1.35742 -3.50781 1.33887 -4.88477 0.0185547c-53.873 -51.9688 -123.963 -77.2363 -186.151 -77.2363
c-147.74 0 -267.573 120.455 -267.573 268.818c0 148.608 119.833 268.932 267.573 268.932c122.926 0 226.562 -83.2705 257.958 -196.674zM451.972 244.455c1.37695 8.90039 2.16797 17.9902 2.16797 27.2861c0 93.6787 -75.501 169.369 -168.596 169.369
s-168.577 -75.6904 -168.577 -169.369c0 -84.9863 62.4531 -155.34 143.875 -167.408c8.1084 -1.1875 16.4053 -1.77246 24.7021 -1.77246c83.8174 0 153.379 61.4717 166.428 141.895z" />
    <glyph glyph-name="a" unicode="&#xe4;" horiz-adv-x="591" 
d="M543.501 344.037c6.29785 -22.9668 9.74902 -47.1797 9.76758 -72.2588v-264.405c0 -6.90137 -8.67383 -10.0127 -13.0674 -4.65723l-63.6221 77.4629c-1.33887 1.35742 -3.50781 1.33887 -4.88477 0.0185547c-53.873 -51.9688 -123.963 -77.2363 -186.151 -77.2363
c-147.74 0 -267.573 120.455 -267.573 268.818c0 148.608 119.833 268.932 267.573 268.932c122.926 0 226.562 -83.2705 257.958 -196.674zM451.972 244.455c1.37695 8.90039 2.16797 17.9902 2.16797 27.2861c0 93.6787 -75.501 169.369 -168.596 169.369
s-168.577 -75.6904 -168.577 -169.369c0 -84.9863 62.4531 -155.34 143.875 -167.408c8.1084 -1.1875 16.4053 -1.77246 24.7021 -1.77246c83.8174 0 153.379 61.4717 166.428 141.895z" />
    <glyph glyph-name="a" unicode="&#xe3;" horiz-adv-x="591" 
d="M543.501 344.037c6.29785 -22.9668 9.74902 -47.1797 9.76758 -72.2588v-264.405c0 -6.90137 -8.67383 -10.0127 -13.0674 -4.65723l-63.6221 77.4629c-1.33887 1.35742 -3.50781 1.33887 -4.88477 0.0185547c-53.873 -51.9688 -123.963 -77.2363 -186.151 -77.2363
c-147.74 0 -267.573 120.455 -267.573 268.818c0 148.608 119.833 268.932 267.573 268.932c122.926 0 226.562 -83.2705 257.958 -196.674zM451.972 244.455c1.37695 8.90039 2.16797 17.9902 2.16797 27.2861c0 93.6787 -75.501 169.369 -168.596 169.369
s-168.577 -75.6904 -168.577 -169.369c0 -84.9863 62.4531 -155.34 143.875 -167.408c8.1084 -1.1875 16.4053 -1.77246 24.7021 -1.77246c83.8174 0 153.379 61.4717 166.428 141.895z" />
    <glyph glyph-name="a" unicode="&#xe2;" horiz-adv-x="591" 
d="M543.501 344.037c6.29785 -22.9668 9.74902 -47.1797 9.76758 -72.2588v-264.405c0 -6.90137 -8.67383 -10.0127 -13.0674 -4.65723l-63.6221 77.4629c-1.33887 1.35742 -3.50781 1.33887 -4.88477 0.0185547c-53.873 -51.9688 -123.963 -77.2363 -186.151 -77.2363
c-147.74 0 -267.573 120.455 -267.573 268.818c0 148.608 119.833 268.932 267.573 268.932c122.926 0 226.562 -83.2705 257.958 -196.674zM451.972 244.455c1.37695 8.90039 2.16797 17.9902 2.16797 27.2861c0 93.6787 -75.501 169.369 -168.596 169.369
s-168.577 -75.6904 -168.577 -169.369c0 -84.9863 62.4531 -155.34 143.875 -167.408c8.1084 -1.1875 16.4053 -1.77246 24.7021 -1.77246c83.8174 0 153.379 61.4717 166.428 141.895z" />
    <glyph glyph-name="a" unicode="&#xe1;" horiz-adv-x="591" 
d="M543.501 344.037c6.29785 -22.9668 9.74902 -47.1797 9.76758 -72.2588v-264.405c0 -6.90137 -8.67383 -10.0127 -13.0674 -4.65723l-63.6221 77.4629c-1.33887 1.35742 -3.50781 1.33887 -4.88477 0.0185547c-53.873 -51.9688 -123.963 -77.2363 -186.151 -77.2363
c-147.74 0 -267.573 120.455 -267.573 268.818c0 148.608 119.833 268.932 267.573 268.932c122.926 0 226.562 -83.2705 257.958 -196.674zM451.972 244.455c1.37695 8.90039 2.16797 17.9902 2.16797 27.2861c0 93.6787 -75.501 169.369 -168.596 169.369
s-168.577 -75.6904 -168.577 -169.369c0 -84.9863 62.4531 -155.34 143.875 -167.408c8.1084 -1.1875 16.4053 -1.77246 24.7021 -1.77246c83.8174 0 153.379 61.4717 166.428 141.895z" />
    <glyph glyph-name="a" unicode="&#xe0;" horiz-adv-x="591" 
d="M543.501 344.037c6.29785 -22.9668 9.74902 -47.1797 9.76758 -72.2588v-264.405c0 -6.90137 -8.67383 -10.0127 -13.0674 -4.65723l-63.6221 77.4629c-1.33887 1.35742 -3.50781 1.33887 -4.88477 0.0185547c-53.873 -51.9688 -123.963 -77.2363 -186.151 -77.2363
c-147.74 0 -267.573 120.455 -267.573 268.818c0 148.608 119.833 268.932 267.573 268.932c122.926 0 226.562 -83.2705 257.958 -196.674zM451.972 244.455c1.37695 8.90039 2.16797 17.9902 2.16797 27.2861c0 93.6787 -75.501 169.369 -168.596 169.369
s-168.577 -75.6904 -168.577 -169.369c0 -84.9863 62.4531 -155.34 143.875 -167.408c8.1084 -1.1875 16.4053 -1.77246 24.7021 -1.77246c83.8174 0 153.379 61.4717 166.428 141.895z" />
    <glyph glyph-name="b" unicode="b" horiz-adv-x="694" 
d="M351.127 524.645c147.25 0 266.594 -117.343 266.594 -262.255s-119.324 -262.388 -266.574 -262.388c-99.751 0 -156.472 49.8945 -182.003 71.4668c-3.54492 2.97949 -8.73047 2.75293 -12.0684 -0.453125l-69.2783 -66.5254
c-4.97852 -4.75195 -13.2568 -1.24512 -13.2568 5.65625v905.79c0 5.26074 4.28027 9.55957 9.56055 9.55957h78.9141c5.28027 0 9.56055 -4.28027 9.56055 -9.56055v-446.201c0 -0.660156 0.753906 -1.01855 1.30078 -0.660156
c82.459 55.9854 144.572 55.5703 177.251 55.5703zM370.305 101.109c79.9512 11.5029 141.387 79.3691 141.387 161.281c0 89.9082 -74.3135 163.033 -165.768 163.033c-64.1689 0 -119.758 -35.8652 -147.251 -88.5312
c-11.6914 -22.2314 -18.3291 -47.5938 -18.3291 -74.502c0 -8.97559 0.773438 -17.7441 2.16895 -26.3242c2.71582 -17.3672 8.37305 -33.5459 16.1797 -48.5557c27.4932 -52.2705 83.082 -88.1543 147.231 -88.1543c8.20215 0 16.3857 0.56543 24.3809 1.75293z" />
    <glyph glyph-name="c" unicode="c" horiz-adv-x="566" 
d="M520.873 146.194l-69.4248 31.7578c-4.28027 1.96094 -9.31543 0.735352 -12.1436 -2.99805c-9.40918 -12.3887 -31.0186 -39.4102 -48.6113 -50.8184h-0.131836c-1.73438 -1.22559 -3.4502 -2.46973 -5.18457 -3.4502
c-0.999023 -0.62207 -1.97949 -1.24414 -2.84668 -1.73438c-2.82812 -1.60254 -5.5625 -3.20508 -8.39062 -4.80762c-3.52637 -1.8291 -7.12793 -3.52637 -10.6729 -5.12891c-5.12891 -2.33789 -13.7275 -5.43066 -19.083 -7.16504
c-1.33887 -0.433594 -2.69629 -0.848633 -4.0918 -1.16895c-2.09277 -0.62207 -4.31738 -1.24414 -6.54199 -1.86621c-1.84766 -0.490234 -3.82715 -0.867188 -5.91992 -1.22559c-0.753906 -0.245117 -1.73438 -0.376953 -2.46973 -0.490234
c-2.1123 -0.508789 -4.33691 -0.867188 -6.56152 -1.24414h-0.113281c-1.97949 -0.376953 -4.07227 -0.62207 -6.29688 -0.867188h-0.131836c-4.69531 -0.358398 -9.39062 -0.735352 -14.1992 -0.735352c-0.62207 -0.245117 -0.999023 -0.245117 -1.60254 -0.245117
c-1.35742 0 -2.60156 0 -4.09082 0.113281c-0.603516 -0.113281 -1.1123 -0.113281 -1.84766 0c-1.22559 -0.113281 -2.58301 -0.113281 -3.94043 -0.113281c-0.508789 0 -1.1123 0 -1.62109 0.245117c-4.94043 0 -9.63574 0.376953 -14.3311 0.735352
c-2.09277 0.245117 -4.18555 0.490234 -6.29785 0.867188h-0.113281c-2.22461 0.376953 -4.33691 0.735352 -6.54297 1.24414c-0.753906 0.113281 -1.62109 0.358398 -2.46973 0.490234c-1.97949 0.358398 -3.95898 0.735352 -5.93848 1.22559
c-2.22461 0.62207 -4.31738 1.1123 -6.54199 1.86621c-2.60254 0.603516 -5.07324 1.4707 -7.41113 2.33789c-4.4502 1.48926 -8.65527 2.95996 -12.9736 4.82715c-2.60254 0.980469 -5.07227 2.22461 -7.54199 3.31836c-1.1123 0.62207 -2.22461 1.1123 -3.4502 1.73438
l-5.07227 2.71582c-1.97949 0.999023 -3.82715 2.11133 -5.6748 3.33691c-0.999023 0.490234 -1.97949 1.1123 -2.84668 1.73438c-1.84766 0.980469 -3.58203 2.22461 -5.18457 3.4502h-0.131836c-1.84766 1.24414 -3.69531 2.46973 -5.29785 3.71387
c-3.46973 2.46973 -6.80762 5.18555 -10.0137 7.90039c-0.376953 0.131836 -0.490234 0.245117 -0.62207 0.376953c-0.245117 0.113281 -0.490234 0.358398 -0.603516 0.62207h-0.131836c-3.33789 2.96094 -6.78906 6.05371 -9.88184 9.25977
c-3.09277 2.84766 -6.05371 6.05371 -8.76855 9.3916c-0.376953 0.490234 -0.867188 0.867188 -1.35742 1.35742c-2.71582 3.09277 -5.31836 6.54395 -7.65625 9.88184c-0.867188 1.24414 -1.62109 2.33789 -2.46973 3.58203
c-18.4229 26.5684 -29.7744 58.5488 -31.0186 93.5088v0.62207c0 2.35742 -0.113281 4.82715 -0.113281 7.0332c0 3.22461 0.113281 6.43066 0.358398 9.52344c0.131836 2.96094 0.376953 6.05371 0.753906 9.01465c2.09277 19.1582 7.41016 37.4297 15.3105 54.2305
c1.22559 2.60254 2.46973 5.07227 3.82715 7.54199c1.60254 3.20605 3.33691 6.41211 5.18457 9.3916c1.48926 2.22461 2.71484 4.31738 4.2041 6.41016c0.735352 1.24414 1.35742 2.22461 2.09277 3.33691c4.94043 7.05273 10.5029 13.8408 16.5557 20.0254
c3.33789 3.94141 7.16602 7.52441 10.9941 11.1074c1.24414 0.999023 2.46973 2.11133 3.71387 3.0918h0.113281c1.86719 1.84766 3.58301 3.0918 5.5625 4.5625c1.1123 0.867188 2.46973 1.97949 3.71387 2.84668c0.603516 0.376953 1.22559 0.867188 1.84766 1.24414
c1.1123 0.735352 1.97949 1.4707 2.95996 2.09277c1.1123 0.735352 2.11133 1.48926 3.22363 1.97949c0.358398 0.245117 0.735352 0.490234 1.09375 0.603516c0.376953 0.263672 0.753906 0.753906 1.24414 0.999023c1.1123 0.867188 2.33789 1.60254 3.71484 2.33789
h0.113281c0.980469 0.62207 1.84766 1.1123 2.71484 1.62109c0.376953 0.113281 0.753906 0.358398 1.24414 0.490234c0.603516 0.490234 1.22559 0.735352 1.84766 1.1123c3.20605 1.97949 6.54395 3.4502 9.88184 5.05273h0.131836
c3.33789 1.73438 6.65625 3.0918 9.99414 4.44922h0.131836c1.97949 0.735352 3.94043 1.48926 6.05273 2.35645c0.113281 0 0.358398 0 0.62207 0.113281h0.113281c1.97949 0.62207 3.71387 1.24414 5.56152 1.73438c1.84766 0.735352 3.69531 1.22559 5.5625 1.60254
c0.358398 0.131836 0.867188 0.245117 1.22559 0.376953h0.131836c0.62207 0.113281 1.1123 0.358398 1.84766 0.490234c1.73438 0.490234 3.58203 0.980469 5.56152 1.35742c1.22559 0.245117 2.46973 0.490234 3.69531 0.735352
c1.37695 0.245117 2.60254 0.376953 4.0918 0.62207c0.358398 0.131836 0.735352 0.131836 1.1123 0.245117c2.09277 0.490234 4.31738 0.62207 6.41016 0.999023h0.131836c2.71582 0.358398 5.31836 0.603516 7.90137 0.735352
c2.60254 0.245117 5.18555 0.376953 7.78809 0.490234h13.0859c2.71582 -0.113281 5.31836 -0.245117 8.0332 -0.490234c2.71582 -0.131836 5.31836 -0.376953 8.03418 -0.735352h0.113281c1.97949 -0.376953 4.2041 -0.508789 6.31641 -0.999023
c0.113281 -0.113281 0.358398 -0.113281 0.490234 -0.113281c0.245117 0 0.358398 -0.131836 0.735352 -0.131836c0.245117 0 0.376953 -0.113281 0.62207 -0.113281c2.33789 -0.263672 4.69531 -0.753906 7.0332 -1.24414h0.131836
c1.97949 -0.376953 3.82715 -0.867188 5.91992 -1.48926c0.245117 0 0.376953 -0.113281 0.62207 -0.113281c0.245117 -0.131836 0.490234 -0.131836 0.867188 -0.245117c0.376953 -0.131836 0.867188 -0.245117 1.22559 -0.376953
c1.97949 -0.376953 3.84668 -0.867188 5.5625 -1.60254c1.97949 -0.490234 3.82715 -1.1123 5.56152 -1.73438h0.131836c0.358398 -0.113281 0.603516 -0.113281 0.735352 -0.113281c2.09277 -0.867188 3.95996 -1.62109 5.9209 -2.35645h0.131836
c6.91992 -2.71484 13.708 -5.80762 20.0059 -9.50391c0.62207 -0.376953 1.35742 -0.62207 1.97949 -1.1123c0.376953 -0.131836 0.735352 -0.376953 1.1123 -0.490234c0.980469 -0.508789 1.73438 -0.999023 2.71484 -1.62109h0.131836
c1.35742 -0.735352 2.58301 -1.4707 3.82715 -2.33789c0.735352 -0.62207 1.4707 -1.1123 2.22461 -1.60254c0.980469 -0.62207 2.22461 -1.24414 3.20508 -1.97949c0.980469 -0.62207 2.09277 -1.35742 2.95996 -2.09277
c0.62207 -0.376953 1.35742 -0.867188 1.86621 -1.24414c0.603516 -0.62207 1.35742 -1.1123 2.09277 -1.73438c0.490234 -0.358398 0.980469 -0.735352 1.48926 -1.1123h0.113281c1.97949 -1.4707 3.82715 -2.71484 5.6748 -4.5625
c1.1123 -0.980469 2.46973 -2.09277 3.58203 -3.0918h0.131836c3.95996 -3.58301 7.65625 -7.16602 11.126 -11.1074c2.33789 -2.22461 4.43066 -4.69434 6.54297 -7.16406c0.56543 -0.678711 1.50781 -1.81055 2.62012 -3.14941
c4.8457 -5.8457 13.2559 -7.31641 19.7988 -3.41309l57.1914 34.1494c6.82617 4.0918 8.31543 12.4834 3.58203 18.8945c-13.3506 18.1025 -28.9453 34.4697 -46.2744 48.7627c-0.735352 0.735352 -1.60254 1.4707 -2.46973 2.09277
c-2.71582 2.22461 -5.43164 4.31738 -8.2793 6.54199h-0.131836c-2.82812 2.1123 -5.78906 4.20508 -8.76855 6.18457c-4.07324 2.82812 -8.67383 5.65625 -12.6719 8.14551c-2.77148 1.60254 -5.52441 3.20508 -8.27734 4.80762
c-2.20605 1.20703 -4.375 2.37598 -6.59961 3.48828c-2.71582 1.4707 -5.56348 2.82812 -8.2793 4.07227c-0.490234 0.376953 -0.867188 0.490234 -1.35742 0.735352c-6.54297 3.09277 -13.1055 5.80762 -19.8936 8.41016
c-2.09277 0.735352 -4.07227 1.4707 -6.18457 2.22461c-3.31836 1.22559 -6.65625 2.33789 -10.126 3.33691c-6.16602 1.96094 -12.3506 3.69531 -18.6484 5.05273c-7.90039 1.73438 -15.8203 3.20508 -23.834 4.31738c-4.0918 0.508789 -8.0332 0.999023 -12.1064 1.35742
c-2.97949 0.263672 -6.05273 0.508789 -9.03223 0.62207c-2.09277 0.245117 -4.18555 0.245117 -6.41016 0.376953h-1.86719c-4.94043 0.113281 -9.88086 0.113281 -14.8213 0c-2.71582 -0.131836 -5.43164 -0.131836 -8.2793 -0.376953
c-2.96094 -0.113281 -6.05371 -0.358398 -9.01465 -0.62207c-4.07324 -0.358398 -8.0332 -0.848633 -12.1064 -1.35742c-8.0332 -1.1123 -15.9336 -2.58301 -23.834 -4.31738c-6.31738 -1.35742 -12.4834 -3.0918 -18.668 -5.05273
c-3.33789 -0.999023 -6.65625 -2.11133 -9.99414 -3.33691c-2.1123 -0.753906 -4.07324 -1.48926 -6.18555 -2.22461h-0.113281c-6.80762 -2.60254 -13.3506 -5.31836 -19.8936 -8.41113c-3.20605 -1.4707 -6.43066 -3.09277 -9.63672 -4.80859
c-2.82812 -1.41406 -5.54395 -2.92285 -8.33496 -4.43164c-3.18652 -1.9043 -6.37305 -3.80859 -9.52246 -5.69434c-3.20605 -2.03613 -6.60059 -4.01562 -9.69336 -6.31641c-2.96094 -1.96094 -5.94043 -4.07324 -8.76855 -6.16602
c-2.84766 -2.22461 -5.56348 -4.31738 -8.27832 -6.54199h-0.131836c-0.735352 -0.62207 -1.60254 -1.35742 -2.33789 -2.11133c-57.9463 -47.5557 -95.6211 -118.456 -98.8271 -198.012c-0.245117 -5.44922 -0.376953 -10.9932 -0.131836 -16.6875
c0.245117 -5.43066 0.490234 -10.8613 1.1123 -16.3105c0.376953 -4.80859 0.999023 -9.63574 1.60254 -14.4443c0.508789 -3.33789 1.1123 -6.67578 1.73438 -10.0137c0 -0.490234 0.131836 -1.1123 0.245117 -1.60254
c0.867188 -4.56348 1.84766 -9.14551 2.95996 -13.5957c0.62207 -2.82812 1.35742 -5.67578 2.22461 -8.3916c0.753906 -2.84766 1.62109 -5.56348 2.46973 -8.27832c0.753906 -2.22461 1.48926 -4.44922 2.22461 -6.67383
c2.22461 -6.29785 4.58203 -12.4639 7.16504 -18.4033c0.867188 -2.22461 1.86621 -4.44922 2.84668 -6.54199c1.48926 -3.20605 2.95996 -6.29883 4.5625 -9.3916c1.24414 -2.46973 2.46973 -4.93945 3.82715 -7.29688
c0.376953 -0.735352 0.753906 -1.35742 1.1123 -2.09277c2.35742 -4.07324 4.82715 -8.14648 7.29688 -12.1064c1.84766 -2.96094 3.82715 -5.92188 5.80664 -8.76953c2.71582 -4.07324 5.67676 -8.14648 8.6377 -11.9932
c0.753906 -1.1123 1.62109 -2.20605 2.46973 -3.20508c2.97949 -3.69629 6.05273 -7.41113 9.27734 -10.9941c1.84766 -2.22461 3.82715 -4.44922 5.91992 -6.54199c1.86719 -2.1123 3.82812 -4.07324 5.94043 -6.05273c2.09277 -1.97949 4.18555 -4.07227 6.29785 -6.05176
c0.245117 -0.376953 0.490234 -0.62207 0.867188 -0.867188c2.71582 -2.46973 5.43164 -4.82715 8.14746 -7.16504c1.73438 -1.60254 3.58203 -3.0918 5.42969 -4.5625c2.97949 -2.46973 6.05273 -4.82715 9.27734 -7.16504
c1.71582 -1.35742 3.4502 -2.60156 5.29785 -3.82715c2.1123 -1.48926 4.4502 -3.0918 6.6748 -4.58105c2.35742 -1.60254 4.94043 -3.20508 7.41016 -4.69434c1.24414 -0.735352 2.46973 -1.4707 3.71387 -2.22461c3.09277 -1.71582 6.05371 -3.4502 9.25977 -5.18457
c2.46973 -1.35742 5.07227 -2.71484 7.65527 -3.95898c3.46973 -1.84766 7.05273 -3.4502 10.6357 -5.05273c0.603516 -0.376953 1.22559 -0.62207 1.84766 -0.867188c0.490234 -0.245117 1.1123 -0.490234 1.60254 -0.735352
c2.46973 -1.1123 4.82715 -2.11133 7.41016 -3.0918c0.245117 -0.131836 0.490234 -0.245117 0.753906 -0.376953h0.113281c4.07324 -1.60254 8.27832 -3.0918 12.3516 -4.5625h0.245117c4.20508 -1.48926 8.41016 -2.84668 12.6152 -4.07227
c3.20605 -0.999023 6.41211 -1.86621 9.75 -2.60156c0.980469 -0.376953 2.09277 -0.62207 3.0918 -0.735352c2.84766 -0.62207 5.56348 -1.24414 8.3916 -1.84766c3.58301 -0.753906 7.29785 -1.37598 10.8809 -1.86621
c2.96094 -0.490234 5.80859 -0.867188 8.76953 -1.1123c1.1123 -0.245117 2.22461 -0.358398 3.33691 -0.490234c2.58301 -0.245117 5.18555 -0.490234 7.90039 -0.62207c1.24414 -0.245117 2.60156 -0.358398 3.95898 -0.358398
c2.09277 -0.131836 4.31738 -0.245117 6.54199 -0.376953c3.20605 -0.131836 6.43066 -0.245117 9.63672 -0.245117h3.71484c2.09277 0 4.31738 0 6.41016 0.113281c1.1123 0 2.11133 0.131836 3.22363 0.131836c2.20605 0.131836 4.43066 0.245117 6.54297 0.376953
c1.35742 0.113281 2.58301 0.113281 3.94043 0.358398c2.73438 0.131836 5.31738 0.376953 7.91992 0.62207c1.1123 0.131836 2.22461 0.245117 3.33691 0.490234c2.96094 0.245117 5.78906 0.62207 8.76855 1.1123c3.58301 0.490234 7.2793 1.24414 10.8623 1.86621
c2.84766 0.603516 5.56348 1.22559 8.41113 1.84766c0.980469 0.245117 1.97949 0.490234 3.07324 0.735352c3.33789 0.735352 6.5625 1.60254 9.76855 2.60156h0.131836c4.18652 1.22559 8.3916 2.58301 12.5967 4.07227h0.245117
c4.07324 1.4707 8.27832 2.95996 12.3516 4.5625l0.735352 0.376953c3.71484 1.48926 7.41113 2.95996 10.9941 4.69434c3.58301 1.60254 7.05273 3.20508 10.6357 5.05273c2.58301 1.24414 5.18555 2.60156 7.65527 3.95898
c3.20605 1.73438 6.18555 3.46875 9.25879 5.18457c0 0.131836 0.131836 0.131836 0.131836 0.131836c3.69629 2.22461 7.41113 4.44922 10.9941 6.78711c2.22461 1.48926 4.5625 3.0918 6.6748 4.58105c6.91992 4.94043 13.5762 9.99414 20.0059 15.5566
c2.71582 2.33789 5.43164 4.69531 8.14648 7.16504l0.867188 0.867188c2.1123 1.97949 4.20508 4.07227 6.29785 6.05176c1.97949 1.97949 3.95898 3.94043 5.93848 6.05273c2.09277 2.09277 4.07227 4.31738 5.91992 6.54199
c1.86719 1.97949 3.58301 4.07227 5.31738 6.18457c1.84766 2.09277 3.58203 4.31738 5.31641 6.54199c0.358398 0.490234 0.735352 0.980469 1.1123 1.4707c2.96094 3.84668 5.92188 7.91992 8.6377 11.9932c1.13184 1.60254 5.41211 8.46582 8.90039 14.085
c2.60254 4.20508 0.924805 9.73047 -3.56348 11.7861zM299.672 0.135742c-1.92383 -0.131836 -4.19043 -0.139648 -6.33984 -0.139648h-3.69629c-2.97949 0 -5.94043 0.113281 -8.91992 0.226562l-7.41016 0.396484c-1.33887 0.150391 -2.86621 0.150391 -4.24316 0.414062
c-2.22461 0.0751953 -4.65723 0.301758 -7.08984 0.52832l-0.603516 0.0566406c-1.43262 0.169922 -2.52637 0.301758 -3.60156 0.52832c-2.75293 0.226562 -5.6377 0.603516 -8.67383 1.1123c-3.62012 0.47168 -7.33496 1.11328 -10.9365 1.84863l-8.42871 1.84766
c-0.697266 0.0947266 -2.03613 0.321289 -3.39355 0.830078c-3.09277 0.678711 -6.33594 1.5459 -9.63574 2.54492c-4.0918 1.22559 -8.20215 2.5459 -12.3125 3.97852l-0.62207 0.131836l-2.58301 0.942383c-3.12988 1.15039 -6.31641 2.28223 -9.44629 3.50781
l-0.660156 0.226562l-0.810547 0.415039c-2.37598 0.867188 -4.77051 1.88574 -7.27832 3.01758l-1.65918 0.753906c-0.697266 0.263672 -1.35742 0.546875 -2.03613 0.961914c-3.375 1.50879 -7.0332 3.13086 -10.54 5.0166
c-2.52637 1.1875 -5.16602 2.58301 -7.67383 3.94043c-2.07422 1.13184 -4.05371 2.26367 -6.0332 3.35742l-6.99609 4.0918c-2.50781 1.50879 -5.14746 3.14941 -7.52344 4.77148c-2.22461 1.48926 -4.58203 3.11133 -6.69434 4.60059
c-1.8291 1.22559 -3.62012 2.48926 -5.39258 3.88477c-3.80859 2.77148 -6.69336 5.01562 -9.31445 7.20312c-1.86719 1.48926 -3.75293 2.99805 -5.52539 4.65723l-0.584961 0.508789c-2.52637 2.16895 -5.03418 4.35645 -7.54199 6.6377
c-0.339844 0.188477 -0.791992 0.640625 -1.22559 1.28223c-0.716797 0.603516 -1.79199 1.62207 -2.84766 2.65918c-1.03711 1.01855 -2.07422 2.01758 -3.11133 2.97949c-2.43262 2.30078 -4.375 4.28027 -6.09082 6.22266
c-1.8291 1.8291 -3.80859 4.0166 -5.95801 6.59961c-2.92285 3.24316 -5.97754 6.88281 -9.2959 11.0127c-0.867188 0.999023 -1.79102 2.18652 -2.58301 3.35547c-3.11133 4.05371 -6.05273 8.12695 -8.63574 11.9922c-1.97949 2.82812 -3.95898 5.84473 -5.84473 8.84277
c-2.48926 3.95996 -4.95898 8.05176 -7.33496 12.1621l-1.1875 2.24414c-1.32031 2.28125 -2.58398 4.80762 -3.82812 7.31543c-1.60254 3.07324 -3.11133 6.18457 -4.62012 9.44629c-0.999023 2.1123 -1.99805 4.375 -2.88477 6.65625
c-2.33789 5.35547 -4.63867 11.2383 -7.18457 18.46l-2.24414 6.71289c-0.867188 2.79102 -1.75391 5.54395 -2.50781 8.42871c-0.791992 2.52637 -1.56543 5.41113 -2.24414 8.50391c-1.0752 4.29883 -2.07422 8.89941 -2.97949 13.6328
c-0.188477 0.678711 -0.283203 1.39551 -0.283203 2.01758c-0.584961 2.96094 -1.20703 6.31738 -1.69727 9.67383c-0.660156 5.11035 -1.26367 9.8623 -1.62207 14.6143c-0.62207 5.41211 -0.867188 10.9746 -1.1123 16.3486
c-0.226562 4.99707 -0.188477 10.2012 0.113281 16.8955c3.12988 77.4629 39.4473 150.211 99.6182 199.615c0.62207 0.641602 1.5459 1.43359 2.33789 2.09375l0.753906 0.52832c2.03613 1.64062 4.0918 3.24316 6.18457 4.88379l1.52734 1.1875
c2.92285 2.14941 5.90234 4.26172 8.90039 6.26074c2.39453 1.79102 5.03418 3.43164 7.59863 4.99707l12.4639 7.48633c2.56445 1.39551 5.11035 2.77246 7.71289 4.09277c3.18652 1.71582 6.44824 3.33789 9.69141 4.84668
c6.07227 2.84766 12.6152 5.61914 20.0254 8.4668l6.37305 2.24414c3.33789 1.24414 6.71289 2.35645 10.1074 3.35547c6.84473 2.1875 13.0107 3.86621 18.7998 5.11035c8.59863 1.86719 16.4619 3.31934 24.0049 4.35645l1.28223 0.169922
c3.6582 0.433594 7.24121 0.867188 10.9375 1.20703c3.0166 0.263672 6.12793 0.508789 9.12598 0.640625c1.8291 0.150391 3.69629 0.207031 5.54395 0.263672l2.73438 0.0947266c4.99707 0.113281 10.0322 0.113281 14.9727 0l4.0166 -0.0947266
c1.50879 -0.0751953 2.97949 -0.113281 4.4502 -0.283203c2.82812 -0.113281 5.93945 -0.358398 8.9375 -0.62207c3.71484 -0.320312 7.29785 -0.753906 10.9561 -1.20605l1.26367 -0.169922c7.58008 -1.03711 15.4434 -2.46973 24.042 -4.35547
c5.78906 -1.24414 11.9551 -2.92285 18.8379 -5.11035c3.35645 -0.961914 6.73145 -2.07422 10.2383 -3.375l6.12793 -2.20605c7.4668 -2.84766 14.0293 -5.61914 20.1016 -8.50391c0.753906 -0.339844 1.20605 -0.566406 1.75293 -0.961914
c2.33789 -0.999023 5.22266 -2.39453 7.99414 -3.90332c2.16895 -1.0752 4.33789 -2.2627 6.54395 -3.43164l8.3916 -4.88379c3.84668 -2.35742 8.58008 -5.29883 12.8232 -8.24023c2.75293 -1.8291 5.54395 -3.80859 8.24023 -5.78809h0.0380859l2.05566 -1.50879
c2.37598 -1.84766 4.67676 -3.63867 6.97754 -5.52441c0.848633 -0.62207 1.81055 -1.43262 2.64062 -2.2627c17.4043 -14.3311 33.0928 -30.8682 46.4805 -49.0078c2.71582 -3.67676 3.73438 -8.01367 2.9043 -12.2188
c-0.830078 -4.0918 -3.35645 -7.59863 -7.12793 -9.84277l-57.2109 -34.168c-7.3916 -4.39355 -17.1025 -2.73438 -22.5898 3.90332c-1.09375 1.32031 -2.03613 2.45215 -2.60156 3.09277c-2.13086 2.50781 -4.12988 4.88379 -6.39258 7.01465
c-3.0166 3.41309 -6.24121 6.6748 -10.54 10.5596l-0.678711 0.508789c-0.52832 0.47168 -1.15039 1 -1.75391 1.50879c-0.62207 0.52832 -1.26367 1.0752 -1.8291 1.58398c-1.43359 1.43262 -2.8291 2.46973 -4.31836 3.54492l-3.62012 2.65918
c-0.546875 0.415039 -1.05566 0.811523 -1.52734 1.2832c-0.226562 0.150391 -0.886719 0.583984 -1.43359 0.923828c-1.0752 0.867188 -2.09375 1.5459 -2.99902 2.11133c-0.697266 0.508789 -1.35742 0.885742 -1.96094 1.2627
c-0.433594 0.245117 -0.867188 0.490234 -1.26367 0.735352c-0.848633 0.56543 -1.64062 1.1123 -2.45117 1.77246c-0.886719 0.603516 -1.88574 1.24414 -2.97949 1.8291h-0.0751953l-0.678711 0.339844c-1.05566 0.678711 -1.69727 1.07422 -2.50781 1.48926
c-0.0380859 0 -0.283203 0.131836 -0.52832 0.245117l-0.980469 0.508789c-0.207031 0.169922 -0.508789 0.301758 -0.848633 0.490234c-0.301758 0.150391 -0.62207 0.282227 -0.905273 0.470703c-5.4873 3.22461 -11.8232 6.24121 -19.3467 9.20215l-0.415039 0.131836
c-1.88574 0.697266 -3.6582 1.39453 -5.65723 2.22461c-0.150391 0.0380859 -0.338867 0.0566406 -0.527344 0.113281l-0.56543 0.131836c-1.67871 0.584961 -3.45117 1.18848 -5.35547 1.66016c-1.77246 0.735352 -3.43164 1.20703 -5.43066 1.56543l-1.99902 0.62207
c-0.320312 0.0185547 -0.546875 0.113281 -0.678711 0.151367c-2.30078 0.640625 -4.07324 1.1123 -5.97754 1.4707c-2.52637 0.508789 -4.75098 0.980469 -6.99512 1.20703l-2.63965 0.52832c-0.980469 0.226562 -1.97949 0.321289 -2.94141 0.47168
c-0.942383 0.113281 -1.86621 0.245117 -2.75293 0.395508c-2.65918 0.320312 -5.18555 0.583984 -7.84473 0.697266c-2.79102 0.263672 -5.33691 0.376953 -8.0332 0.490234h-12.9922c-2.45117 -0.113281 -5.01562 -0.226562 -7.56152 -0.47168
c-2.65918 -0.131836 -5.18555 -0.376953 -7.84473 -0.735352c-0.923828 -0.150391 -1.8291 -0.263672 -2.75293 -0.376953c-1.1875 -0.150391 -2.41309 -0.282227 -3.58203 -0.583984l-3.12988 -0.546875c-0.716797 -0.0947266 -1.43359 -0.189453 -2.16895 -0.339844
l-3.67676 -0.716797c-1.92383 -0.376953 -3.71484 -0.848633 -5.39355 -1.32031c-0.52832 -0.113281 -0.754883 -0.188477 -0.981445 -0.263672c-0.358398 -0.113281 -0.678711 -0.226562 -1.05566 -0.283203l-1.01855 -0.283203
c-2.24414 -0.490234 -3.94141 -0.961914 -5.46875 -1.60352c-1.4707 -0.395508 -2.62109 -0.753906 -3.82812 -1.16895l-2.31934 -0.716797c-0.169922 -0.0566406 -0.339844 -0.0751953 -0.490234 -0.09375c-1.99902 -0.810547 -3.88477 -1.5459 -5.78906 -2.24316
l-0.452148 -0.150391c-3.28125 -1.33887 -6.39258 -2.62109 -9.42871 -4.20508l-2.01758 -0.886719c-2.75293 -1.30078 -5.33594 -2.54492 -7.8623 -4.09082l-0.735352 -0.396484c-0.283203 -0.169922 -0.603516 -0.320312 -0.905273 -0.56543l-1.86719 -0.830078
c-0.773438 -0.490234 -1.49023 -0.885742 -2.28223 -1.39453l-0.753906 -0.339844c-1.05566 -0.584961 -2.03613 -1.18848 -2.92285 -1.86719l-0.62207 -0.47168c-0.245117 -0.245117 -0.508789 -0.47168 -0.753906 -0.62207l-0.52832 -0.263672
c-0.0751953 -0.0380859 -0.320312 -0.188477 -0.490234 -0.301758c-1.16895 -0.56543 -1.84766 -1.03711 -2.56445 -1.5459l-0.735352 -0.490234c-0.52832 -0.320312 -0.980469 -0.660156 -1.45215 -1c-0.47168 -0.358398 -0.961914 -0.716797 -1.50879 -1.09375
c-0.339844 -0.207031 -0.623047 -0.395508 -0.886719 -0.583984c-0.339844 -0.263672 -0.698242 -0.490234 -1.03809 -0.716797c-0.735352 -0.508789 -1.62207 -1.22559 -2.4707 -1.86719l-1.69727 -1.30078c-1.67773 -1.26367 -3.14844 -2.35742 -4.67578 -3.90332
l-0.905273 -0.641602c-0.415039 -0.320312 -0.811523 -0.697266 -1.24512 -1.03711c-0.62207 -0.546875 -1.24414 -1.0752 -1.86621 -1.56543c-3.58301 -3.35645 -7.44824 -6.95801 -10.6914 -10.8232c-5.90234 -5.99609 -11.3711 -12.6523 -16.4434 -19.8555
c-0.697266 -1.03711 -1.30078 -1.99902 -2.01758 -3.20605c-0.961914 -1.33887 -1.71582 -2.58301 -2.52637 -3.82715c-0.56543 -0.886719 -1.13086 -1.77344 -1.73438 -2.69727c-1.58398 -2.50781 -3.24316 -5.52441 -5.05371 -9.14453
c-1.35742 -2.50781 -2.58301 -4.92188 -3.80859 -7.48633c-7.99512 -16.9707 -13.0859 -34.9971 -15.1221 -53.5332c-0.339844 -2.84766 -0.603516 -5.9209 -0.735352 -8.8623c-0.245117 -3.12988 -0.358398 -6.25977 -0.358398 -9.42773
c0 -1.0752 0.0185547 -2.20703 0.0566406 -3.35742c0.0185547 -1.22559 0.0566406 -2.46973 0.0566406 -3.67676v-0.62207c1.16895 -33.1309 11.7471 -65.0547 30.6221 -92.2646l2.45117 -3.56348c2.69629 -3.86523 5.16602 -7.0332 7.50391 -9.69238l0.339844 -0.301758
c0.415039 -0.376953 0.811523 -0.773438 1.13184 -1.18848c2.71484 -3.35645 5.58105 -6.42969 8.48535 -9.08887c2.86621 -2.99805 5.90234 -5.73242 9.24023 -8.69336h0.546875l0.716797 -1.26367l0.678711 -0.245117c3.86523 -3.31836 6.91992 -5.71289 9.86133 -7.80566
c1.4707 -1.13184 3.07324 -2.22559 4.71387 -3.30078h0.0751953l0.716797 -0.47168c1.41406 -1.0752 3.09277 -2.31934 4.88379 -3.26172c1.01855 -0.716797 1.90527 -1.26367 2.79199 -1.69727c2.16895 -1.43262 3.92285 -2.45117 5.67676 -3.33789l6.24121 -3.2998
c0.810547 -0.395508 1.60254 -0.772461 2.35645 -1.20605l2.07422 -0.942383c1.69727 -0.773438 3.41309 -1.58398 5.2041 -2.2627c4.60059 -1.96094 8.89941 -3.46973 12.8779 -4.79004c2.28125 -0.830078 4.67578 -1.69727 7.20215 -2.30078
c1.75391 -0.56543 3.22461 -0.960938 4.7334 -1.35742l1.9043 -0.508789c1.86719 -0.47168 3.79102 -0.830078 5.7334 -1.18848c0.452148 -0.0751953 0.960938 -0.188477 1.45117 -0.283203l0.980469 -0.207031c2.30078 -0.508789 4.375 -0.867188 6.5625 -1.2627
c2.1875 -0.358398 4.26172 -0.603516 6.29785 -0.810547c4.50684 -0.358398 9.2207 -0.753906 14.0859 -0.753906l0.980469 -0.226562c0.0947266 -0.0185547 0.584961 -0.0185547 0.868164 -0.0185547c1.22559 0 2.39453 0 3.50684 0.113281l0.283203 0.0185547
l0.263672 -0.0380859c0.546875 -0.0751953 0.773438 -0.0751953 1.0752 -0.0185547l0.301758 0.0566406l0.301758 -0.0185547c1.41406 -0.113281 2.5459 -0.0947266 3.90332 -0.113281c0.546875 0 0.584961 0 0.791992 0.0947266l0.810547 0.150391
c4.7334 0 9.44727 0.376953 14.0107 0.753906c2.2627 0.226562 4.29883 0.453125 6.20312 0.811523c2.35742 0.376953 4.52637 0.753906 6.58203 1.22559l0.584961 0.113281c0.546875 0.0751953 1.1875 0.169922 1.67773 0.320312
c2.35742 0.433594 4.26172 0.791992 6.05273 1.28223c2.20605 0.62207 4.41211 1.22559 6.48633 1.8291c1.4707 0.358398 2.75293 0.735352 4.03516 1.15039c5.75098 1.86719 14.0859 4.90332 18.875 7.09082c3.48828 1.58398 7.07129 3.28125 10.5596 5.07227
l8.33496 4.77051c0.830078 0.490234 1.79199 1.09375 2.75391 1.69727c1.65918 0.942383 3.26172 2.07422 4.8457 3.22461l0.773438 0.433594c17.4795 11.4834 39.1641 38.8252 47.7246 50.083c3.46973 4.56348 9.56055 6.09082 14.8213 3.67676l69.4482 -31.7734
c2.71484 -1.22559 4.77051 -3.58301 5.6377 -6.43066c0.848633 -2.84766 0.452148 -5.94043 -1.11328 -8.50488c-5.12891 -8.24023 -8.05176 -12.8789 -8.95703 -14.1797c-2.62109 -3.90332 -5.54395 -7.97656 -8.71191 -12.0869l-1.09375 -1.43262
c-1.79102 -2.30078 -3.54492 -4.54492 -5.41211 -6.69434c-1.81055 -2.1875 -3.52637 -4.26172 -5.37402 -6.22266c-2.07422 -2.50781 -4.07324 -4.69531 -5.97754 -6.59961c-1.94238 -2.07422 -3.92188 -4.05371 -5.9209 -6.05273
c-1.09375 -1.01855 -2.13086 -2.03711 -3.18652 -3.05566c-1.03711 -1.01855 -2.1123 -2.03711 -3.16797 -3.03613l-0.810547 -0.810547c-2.50781 -2.28125 -4.90234 -4.37402 -7.33496 -6.4668l-0.942383 -0.791992c-5.80762 -5.03516 -12.2188 -10.0322 -20.1572 -15.708
c-2.13086 -1.48926 -4.48828 -3.11133 -6.73242 -4.60059c-3.31836 -2.1875 -6.71289 -4.24316 -10.1445 -6.29883v-0.113281l-4.375 -2.43262c-1.96094 -1.13184 -3.95996 -2.24414 -6.05273 -3.37598c-2.50781 -1.35742 -5.12891 -2.75293 -7.75 -3.99707
c-3.56348 -1.8291 -7.0332 -3.45117 -10.6533 -5.0918c-3.48828 -1.67773 -7.18457 -3.14844 -10.748 -4.58105l-0.905273 -0.433594c-3.41309 -1.33887 -6.71289 -2.5459 -9.97461 -3.71484l-3.375 -1.09375c-3.75293 -1.35742 -7.97656 -2.73438 -12.2197 -3.97852
l-0.62207 -0.0947266c-2.80957 -0.923828 -6.03418 -1.79102 -9.40918 -2.54492c-0.848633 -0.188477 -1.62207 -0.376953 -2.37598 -0.56543l-12.5957 -2.65918c-2.52637 -0.452148 -5.07227 -0.904297 -7.56152 -1.24414
c-2.96094 -0.508789 -5.86523 -0.885742 -8.88184 -1.14941c-0.791992 -0.188477 -1.86719 -0.320312 -2.96094 -0.433594l-0.980469 -0.113281c-2.41406 -0.226562 -4.86523 -0.453125 -7.41113 -0.566406c-0.678711 -0.131836 -1.58398 -0.207031 -2.50781 -0.263672
l-7.65527 -0.452148c-0.942383 -0.0185547 -1.41406 -0.0371094 -1.9043 -0.0751953c-0.56543 -0.0380859 -1.13086 -0.0566406 -1.71582 -0.0566406zM204.914 18.7207l-2.20312 0.814453c-3.24316 1.1875 -6.52441 2.375 -9.73047 3.61914l-0.867188 0.396484
c-2.56445 0.961914 -4.86523 1.94238 -7.24121 2.99805l-1.86719 0.848633c-0.47168 0.188477 -0.961914 0.376953 -1.75391 0.810547c-3.46973 1.56543 -7.0332 3.16797 -10.4844 5.01562c-2.56445 1.20703 -5.12891 2.5459 -7.56152 3.88477
c-2.07422 1.1123 -4.0166 2.22461 -5.97754 3.33691l-6.91992 4.03516c-2.43262 1.45215 -4.99707 3.03613 -7.31641 4.63867c-2.20605 1.4707 -4.54395 3.05469 -6.6748 4.56348c-1.81055 1.20703 -3.48828 2.43262 -5.24219 3.79004
c-3.77148 2.75293 -6.59961 4.94043 -9.18262 7.08984c-1.81055 1.45215 -3.63965 2.9043 -5.37402 4.52637l-0.660156 0.56543c-2.48926 2.14941 -4.97852 4.29883 -7.44824 6.54297l-0.848633 0.867188c-1.05566 0.961914 -2.09277 1.96094 -3.12988 2.97949
c-1.05566 1.03711 -2.11133 2.05566 -3.16699 3.03613c-2.31934 2.1875 -4.16699 4.0918 -5.88281 6.01562c-1.84766 1.8291 -3.7334 3.94141 -5.8457 6.44922c-2.92285 3.26172 -5.9209 6.8252 -9.23926 10.9736c-0.810547 0.923828 -1.62109 1.96094 -2.39453 3.11133
c-3.16797 4.0918 -6.03418 8.08984 -8.58008 11.918c-1.96094 2.79102 -3.92188 5.73242 -5.75098 8.67383c-2.45117 3.94141 -4.9209 7.99512 -7.18359 11.917l-1.16895 2.22461c-1.35742 2.31934 -2.56445 4.7334 -3.80859 7.20312
c-1.58398 3.07324 -3.03613 6.12793 -4.52539 9.31445c-0.980469 2.05566 -1.94238 4.22461 -2.80957 6.4873c-2.31934 5.33594 -4.58203 11.1436 -7.08984 18.2148l-2.22461 6.6377c-0.848633 2.69629 -1.71582 5.37402 -2.46973 8.27832
c-0.810547 2.52637 -1.5459 5.29785 -2.1875 8.27734c-1.0752 4.28027 -2.05566 8.80566 -2.97949 13.6143c-0.131836 0.508789 -0.169922 0.867188 -0.208008 1.45215c-0.62207 3.2998 -1.24414 6.61816 -1.75293 10.2197
c-0.603516 4.65723 -1.18848 9.33398 -1.56543 14.1045c-0.603516 5.33594 -0.848633 10.8232 -1.09375 16.1406c-0.207031 4.8457 -0.168945 9.93652 0.114258 16.499c3.07324 76.2178 38.8066 147.797 98.2051 196.56c0.490234 0.508789 1.05566 0.999023 1.58398 1.45117
l0.716797 0.508789c2.20605 1.81055 4.43066 3.52637 6.6748 5.31738l1.48926 1.16895c2.80957 2.07422 5.75098 4.14844 8.76758 6.16602c2.33789 1.73438 4.90234 3.31836 7.3916 4.86426l11.5781 6.97656l0.678711 0.358398
c2.5459 1.39551 5.03516 2.75293 7.65625 4.05371c3.16797 1.71582 6.33594 3.31836 9.52246 4.78906c5.95898 2.79102 12.125 5.39355 19.3662 8.16504l6.65625 2.37598c3.2998 1.20703 6.58105 2.31934 9.91895 3.2998c6.75098 2.14941 12.7852 3.79004 18.4424 4.99707
c8.50391 1.86719 16.2539 3.28125 23.6455 4.2998l1.26367 0.150391c3.60156 0.433594 7.16504 0.867188 10.7666 1.20703c2.94141 0.245117 5.99609 0.47168 9.03223 0.62207c1.8291 0.150391 3.62012 0.207031 5.41113 0.245117l2.73438 0.113281
c4.86523 0.150391 9.82422 0.150391 14.7646 0l3.90332 -0.0947266c1.39551 -0.0566406 2.75293 -0.0947266 4.28027 -0.264648c2.94141 -0.150391 5.99609 -0.357422 8.91895 -0.602539c3.62012 -0.358398 7.16504 -0.773438 10.7852 -1.22559l1.20703 -0.150391
c7.44824 -1.01855 15.1982 -2.43262 23.6836 -4.2998c5.65723 -1.20703 11.6914 -2.84766 18.5176 -5.0166c3.2998 -0.961914 6.56152 -2.03711 9.99316 -3.31934l6.12793 -2.1875c7.29785 -2.79102 13.7471 -5.52539 20.1201 -8.52344
c0.301758 -0.131836 0.415039 -0.188477 1.01855 -0.584961c2.65918 -1.20703 5.4502 -2.52734 8.20312 -4.03613c2.16895 -1.0752 4.2998 -2.22559 6.46875 -3.41309l8.22168 -4.77051c3.75293 -2.31934 8.42969 -5.22363 12.5967 -8.1084
c2.94141 -1.96094 5.88281 -4.03516 8.69238 -6.10938l1.41406 -1.01855c2.35742 -1.8291 4.62012 -3.60156 6.99609 -5.52539c0.773438 -0.56543 1.54688 -1.22559 2.37695 -2.03613c17.291 -14.2559 32.7344 -30.5293 45.8965 -48.3672
c1.97949 -2.67773 2.71484 -5.78906 2.11133 -8.76855c-0.56543 -2.86621 -2.35645 -5.33594 -5.05273 -6.93848l-57.1914 -34.168c-5.5625 -3.31836 -12.8408 -2.03613 -16.9893 2.94238c-1.1123 1.35742 -2.07422 2.48926 -2.63965 3.16797
c-2.1123 2.46973 -4.28125 5.01562 -6.5625 7.18457c-3.12988 3.56348 -6.61816 7.0332 -11.3135 11.2949l-0.753906 0.56543v0c-0.396484 0.339844 -0.792969 0.679688 -1.20801 1.03809c-0.603516 0.508789 -1.20703 1.01758 -1.65918 1.41309
c-1.58398 1.58398 -3.18652 2.75293 -4.73242 3.90332l-3.54492 2.56445c-0.395508 0.320312 -0.791016 0.603516 -1.33789 1.13184c-0.546875 0.415039 -1.35742 0.961914 -1.75391 1.16895c-0.942383 0.810547 -2.14941 1.62109 -3.07324 2.18652
c-0.697266 0.508789 -1.50781 0.980469 -2.26172 1.43262l-1.05566 0.603516c-0.678711 0.47168 -1.35742 0.905273 -2.1875 1.58398c-1.30078 0.905273 -2.60156 1.71582 -4.03418 2.46973l-0.358398 0.169922c-0.886719 0.546875 -1.62207 0.999023 -2.5459 1.4707
l-0.52832 0.245117c-0.169922 0.0751953 -0.339844 0.169922 -0.490234 0.226562c-0.47168 0.339844 -0.943359 0.566406 -1.33984 0.773438c-0.188477 0.0751953 -0.376953 0.169922 -0.603516 0.301758c-5.78906 3.39453 -12.4453 6.5625 -20.3086 9.65527
l-0.52832 0.150391c-1.8291 0.678711 -3.54492 1.39551 -5.4873 2.1875l-1.28223 0.263672c-1.69727 0.603516 -3.50781 1.20703 -5.11035 1.56543c-1.73438 0.753906 -3.71387 1.33887 -5.69336 1.65918c-0.263672 0.0947266 -0.546875 0.169922 -1.28223 0.396484
c-0.245117 0.0751953 -0.415039 0.09375 -0.509766 0.09375l-1.33887 0.396484c-2.07422 0.584961 -3.90332 1.0752 -5.9209 1.43359c-2.37598 0.490234 -4.80859 0.999023 -7.12793 1.22559c-0.169922 0.0566406 -0.546875 0.131836 -0.791992 0.150391
c-0.0947266 0.0380859 -0.283203 0.0947266 -0.546875 0.132812l-0.376953 0.0947266c-1.28223 0.301758 -2.60254 0.47168 -3.90332 0.641602c-0.848633 0.113281 -1.69727 0.208008 -2.73438 0.37793c-2.77148 0.396484 -5.43066 0.641602 -8.1084 0.754883
c-2.77148 0.245117 -5.41113 0.376953 -8.23926 0.508789h-13.1992c-2.63965 -0.131836 -5.26074 -0.245117 -7.78711 -0.490234c-2.65918 -0.131836 -5.31836 -0.376953 -8.31641 -0.773438c-0.830078 -0.131836 -1.66016 -0.245117 -2.50879 -0.358398
c-1.35742 -0.169922 -2.71484 -0.339844 -4.43066 -0.754883c-0.301758 -0.0380859 -0.62207 -0.113281 -0.56543 -0.131836l-1.8291 -0.207031c-0.810547 -0.113281 -1.56445 -0.208008 -2.39453 -0.37793l-3.69629 -0.716797
c-2.05566 -0.395508 -3.95996 -0.904297 -5.50586 -1.35645c-0.52832 -0.0947266 -0.961914 -0.226562 -1.3584 -0.358398c-0.188477 -0.0380859 -0.358398 -0.113281 -0.263672 -0.113281l-1.1123 -0.245117c-0.301758 -0.0751953 -0.603516 -0.169922 -0.546875 -0.188477
c-2.1875 -0.415039 -4.14844 -0.980469 -5.69434 -1.62207c-1.28223 -0.358398 -2.50781 -0.754883 -3.79004 -1.16992l-1.33887 -0.490234l-0.150391 0.0947266l-1.28223 -0.376953c-2.03613 -0.848633 -3.94043 -1.56543 -5.84473 -2.28223l-0.640625 -0.207031
c-3.05469 -1.24414 -6.22266 -2.54492 -9.39062 -4.14746l-2.35742 -1.09375c-2.71484 -1.30078 -5.54297 -2.63965 -8.25879 -4.29883l-0.508789 -0.283203c-0.415039 -0.226562 -0.810547 -0.453125 -1.20605 -0.736328
c-0.283203 -0.0947266 -0.584961 -0.226562 -0.961914 -0.396484l-0.773438 -0.395508c-0.56543 -0.339844 -1.1875 -0.698242 -1.82812 -1.0752l-0.52832 -0.263672c-1.65918 -0.905273 -2.92285 -1.71582 -3.6582 -2.31934
c-0.52832 -0.283203 -0.924805 -0.641602 -1.3584 -1.03711c-0.396484 -0.188477 -0.736328 -0.395508 -0.868164 -0.527344c-0.999023 -0.433594 -1.9043 -1.03711 -2.86621 -1.69727l-0.62207 -0.433594c-0.584961 -0.358398 -1.13184 -0.754883 -1.69727 -1.16992
c-0.415039 -0.320312 -0.830078 -0.640625 -1.24512 -0.904297c-0.339844 -0.207031 -0.698242 -0.452148 -1.05664 -0.71582c-0.263672 -0.169922 -0.527344 -0.358398 -0.923828 -0.603516c-0.905273 -0.640625 -1.88574 -1.39453 -2.79102 -2.11133l-1.60254 -1.26367
c-1.52734 -1.13184 -2.97949 -2.20703 -4.50684 -3.63965l-0.603516 -0.490234c-0.640625 -0.52832 -1.28125 -1.0752 -1.92285 -1.62207c-0.603516 -0.508789 -1.18848 -0.999023 -1.90527 -1.58398c-3.80859 -3.56348 -7.75 -7.25977 -11.0684 -11.1816
c-5.93945 -6.05273 -11.5771 -12.8789 -16.8008 -20.3457c-0.753906 -1.13184 -1.39551 -2.15039 -2.07422 -3.2627c-0.905273 -1.28223 -1.71582 -2.56445 -2.5459 -3.86523c-0.546875 -0.848633 -1.1123 -1.73535 -1.71582 -2.65918
c-1.67773 -2.71582 -3.41211 -5.82715 -5.25977 -9.52344c-1.37695 -2.50781 -2.62109 -4.99707 -3.88477 -7.63672c-8.20215 -17.4238 -13.4258 -35.9033 -15.5186 -54.8916c-0.376953 -2.96094 -0.62207 -6.12891 -0.735352 -9.1084
c-0.245117 -3.14941 -0.395508 -6.41113 -0.395508 -9.69238c0 -1.1123 0.0380859 -2.28125 0.0761719 -3.48828c0.0380859 -1.1875 0.0566406 -2.35645 0.0566406 -3.54395v-0.697266c1.1875 -34.0547 12.0488 -66.7891 31.3955 -94.6963l2.46973 -3.58301
c2.80957 -3.97852 5.35547 -7.27832 7.91992 -10.1631l0.56543 -0.546875c0.207031 -0.207031 0.414062 -0.376953 0.640625 -0.660156c2.9043 -3.56348 5.9209 -6.78809 8.88184 -9.52246c3.07324 -3.18652 6.48633 -6.25977 10.0127 -9.38965l0.131836 -0.0947266
c0.207031 -0.245117 0.470703 -0.47168 0.753906 -0.660156c0.207031 -0.188477 0.452148 -0.338867 0.791992 -0.508789c3.84668 -3.26172 6.90137 -5.65625 9.80566 -7.73047c1.5459 -1.1875 3.2998 -2.375 5.43066 -3.80762l0.415039 -0.226562
c1.48926 -1.1123 3.18652 -2.33789 4.86523 -3.20508c0.942383 -0.678711 2.03613 -1.35742 2.90332 -1.75293c2.07422 -1.39551 3.99805 -2.52734 5.8457 -3.45117l6.37305 -3.35645c0.735352 -0.358398 1.43262 -0.678711 2.2998 -1.15039l2.16895 -0.999023
c1.79102 -0.830078 3.60156 -1.67871 5.41211 -2.35742c4.65723 -1.99902 9.06934 -3.52637 13.0674 -4.84668c2.22461 -0.830078 4.88379 -1.75391 7.4668 -2.35742c1.64062 -0.56543 3.20605 -0.980469 4.82812 -1.39551l1.9043 -0.508789
c1.99902 -0.52832 4.03516 -0.905273 6.10938 -1.28223c0.433594 -0.0751953 0.848633 -0.169922 1.24512 -0.264648c0.433594 -0.0947266 0.830078 -0.169922 1.09375 -0.208008c2.2627 -0.508789 4.39355 -0.905273 6.75098 -1.28223
c2.14941 -0.376953 4.28027 -0.62207 6.50488 -0.867188c4.54395 -0.376953 9.20117 -0.753906 14.1035 -0.772461c0.753906 -0.245117 1.48926 -0.245117 2.01758 -0.245117c1.32031 0 2.64062 0 3.86621 0.113281c0.753906 -0.0947266 1.37598 -0.0947266 2.03613 0
c1.43262 -0.113281 2.6582 -0.113281 3.97852 -0.113281c0.603516 0 1.18848 0 1.96191 0.245117c4.77051 0.0185547 9.46582 0.414062 14.1992 0.772461c2.28125 0.245117 4.4502 0.508789 6.54297 0.867188c2.28125 0.376953 4.5625 0.753906 6.95703 1.30078
c0.791992 0.113281 1.69727 0.263672 2.07422 0.433594c2.16895 0.376953 4.22461 0.753906 6.14844 1.28223c2.24414 0.603516 4.46875 1.22559 6.46777 1.8291c1.45215 0.339844 2.86621 0.773438 4.26172 1.22559c5.8457 1.9043 14.3691 4.99707 19.3096 7.24121
c3.58301 1.64062 7.22266 3.35645 10.8428 5.24219l8.41016 4.80859c0.867188 0.508789 1.88574 1.13086 2.84766 1.73438c1.52734 0.867188 3.07324 1.94238 4.78906 3.16797l0.62207 0.339844c18.1025 11.748 40.4102 39.8066 49.1592 51.3281
c2.20605 2.92285 6.14746 3.84668 9.50391 2.33789l69.4482 -31.7539c1.56543 -0.735352 2.75293 -2.09277 3.26172 -3.7334s0.263672 -3.43164 -0.641602 -4.90234c-5.01562 -8.07031 -7.97656 -12.7656 -8.84375 -14.0293
c-2.58301 -3.86523 -5.46777 -7.86328 -8.59766 -11.8984l-1.0752 -1.45215c-1.71582 -2.1875 -3.39355 -4.375 -5.41113 -6.65625c-1.64062 -1.99902 -3.2998 -4.0166 -5.16699 -5.99609c-2.09277 -2.50781 -3.97852 -4.60059 -5.8457 -6.44824
c-1.94238 -2.07422 -3.92188 -4.03516 -5.82617 -5.93945c-1.0752 -0.999023 -2.13086 -2.03613 -3.18652 -3.05469c-1.03711 -1.01855 -2.07422 -2.03711 -3.16797 -3.05566l-0.773438 -0.773438c-2.39453 -2.1875 -4.78906 -4.26172 -7.18359 -6.33594
l-0.942383 -0.810547c-5.69434 -4.92188 -12.0117 -9.84375 -19.8369 -15.4248c-2.07422 -1.4707 -4.41211 -3.07324 -6.59961 -4.52539c-3.41309 -2.22461 -6.93945 -4.35547 -10.4658 -6.46777l-1.64062 -0.0947266v-0.905273l-2.14941 -1.20703
c-1.94238 -1.1123 -3.90332 -2.22461 -5.97754 -3.33691c-2.43262 -1.33887 -4.99707 -2.67773 -7.61816 -3.94141c-3.54492 -1.8291 -6.95801 -3.41309 -10.5781 -5.01562c-3.41309 -1.65918 -7.01465 -3.11133 -11.0312 -4.7334l-0.546875 -0.283203
c-3.18652 -1.24414 -6.44824 -2.43164 -9.67285 -3.58203l-2.86621 -0.961914c-4.14844 -1.4707 -8.31543 -2.79102 -11.9922 -3.94141l-0.640625 -0.0947266c-3.20605 -0.980469 -6.33594 -1.81055 -9.56055 -2.5459
c-0.905273 -0.188477 -1.69727 -0.395508 -2.48926 -0.583984l-12.332 -2.60254c-2.46973 -0.452148 -4.95898 -0.904297 -7.44824 -1.24414c-2.9043 -0.490234 -5.67578 -0.848633 -8.8623 -1.13184c-0.942383 -0.207031 -1.88477 -0.320312 -3.07227 -0.470703
l-0.603516 -0.0566406c-2.33789 -0.226562 -4.71387 -0.433594 -7.48535 -0.583984c-0.810547 -0.150391 -1.5459 -0.188477 -2.31934 -0.245117l-7.78809 -0.452148c-0.603516 0 -1.16895 -0.0380859 -1.73438 -0.0761719
c-0.490234 -0.0185547 -0.961914 -0.0566406 -1.62207 -0.0566406c-2.01758 -0.131836 -4.12988 -0.131836 -6.14746 -0.131836h-3.84668c-2.92285 0 -5.82715 0.113281 -8.75 0.226562l-7.44824 0.396484c-1.1875 0 -2.41309 0.113281 -3.8457 0.376953
c-2.46973 0.113281 -4.8457 0.320312 -7.20312 0.527344l-0.830078 0.0947266c-0.942383 0.131836 -1.88477 0.226562 -3.11035 0.47168c-2.9043 0.263672 -5.69531 0.62207 -8.65625 1.1123c-3.54492 0.47168 -7.25977 1.09375 -10.7109 1.81055l-8.59863 1.88574
c-0.905273 0.113281 -1.8291 0.339844 -2.86621 0.698242c-3.26172 0.735352 -6.41113 1.56543 -9.61719 2.56445c-4.16699 1.22559 -8.33398 2.56445 -12.4824 4.03516z" />
    <glyph glyph-name="c" unicode="&#xe7;" horiz-adv-x="566" 
d="M520.873 146.194l-69.4248 31.7578c-4.28027 1.96094 -9.31543 0.735352 -12.1436 -2.99805c-9.40918 -12.3887 -31.0186 -39.4102 -48.6113 -50.8184h-0.131836c-1.73438 -1.22559 -3.4502 -2.46973 -5.18457 -3.4502
c-0.999023 -0.62207 -1.97949 -1.24414 -2.84668 -1.73438c-2.82812 -1.60254 -5.5625 -3.20508 -8.39062 -4.80762c-3.52637 -1.8291 -7.12793 -3.52637 -10.6729 -5.12891c-5.12891 -2.33789 -13.7275 -5.43066 -19.083 -7.16504
c-1.33887 -0.433594 -2.69629 -0.848633 -4.0918 -1.16895c-2.09277 -0.62207 -4.31738 -1.24414 -6.54199 -1.86621c-1.84766 -0.490234 -3.82715 -0.867188 -5.91992 -1.22559c-0.753906 -0.245117 -1.73438 -0.376953 -2.46973 -0.490234
c-2.1123 -0.508789 -4.33691 -0.867188 -6.56152 -1.24414h-0.113281c-1.97949 -0.376953 -4.07227 -0.62207 -6.29688 -0.867188h-0.131836c-4.69531 -0.358398 -9.39062 -0.735352 -14.1992 -0.735352c-0.62207 -0.245117 -0.999023 -0.245117 -1.60254 -0.245117
c-1.35742 0 -2.60156 0 -4.09082 0.113281c-0.603516 -0.113281 -1.1123 -0.113281 -1.84766 0c-1.22559 -0.113281 -2.58301 -0.113281 -3.94043 -0.113281c-0.508789 0 -1.1123 0 -1.62109 0.245117c-4.94043 0 -9.63574 0.376953 -14.3311 0.735352
c-2.09277 0.245117 -4.18555 0.490234 -6.29785 0.867188h-0.113281c-2.22461 0.376953 -4.33691 0.735352 -6.54297 1.24414c-0.753906 0.113281 -1.62109 0.358398 -2.46973 0.490234c-1.97949 0.358398 -3.95898 0.735352 -5.93848 1.22559
c-2.22461 0.62207 -4.31738 1.1123 -6.54199 1.86621c-2.60254 0.603516 -5.07324 1.4707 -7.41113 2.33789c-4.4502 1.48926 -8.65527 2.95996 -12.9736 4.82715c-2.60254 0.980469 -5.07227 2.22461 -7.54199 3.31836c-1.1123 0.62207 -2.22461 1.1123 -3.4502 1.73438
l-5.07227 2.71582c-1.97949 0.999023 -3.82715 2.11133 -5.6748 3.33691c-0.999023 0.490234 -1.97949 1.1123 -2.84668 1.73438c-1.84766 0.980469 -3.58203 2.22461 -5.18457 3.4502h-0.131836c-1.84766 1.24414 -3.69531 2.46973 -5.29785 3.71387
c-3.46973 2.46973 -6.80762 5.18555 -10.0137 7.90039c-0.376953 0.131836 -0.490234 0.245117 -0.62207 0.376953c-0.245117 0.113281 -0.490234 0.358398 -0.603516 0.62207h-0.131836c-3.33789 2.96094 -6.78906 6.05371 -9.88184 9.25977
c-3.09277 2.84766 -6.05371 6.05371 -8.76855 9.3916c-0.376953 0.490234 -0.867188 0.867188 -1.35742 1.35742c-2.71582 3.09277 -5.31836 6.54395 -7.65625 9.88184c-0.867188 1.24414 -1.62109 2.33789 -2.46973 3.58203
c-18.4229 26.5684 -29.7744 58.5488 -31.0186 93.5088v0.62207c0 2.35742 -0.113281 4.82715 -0.113281 7.0332c0 3.22461 0.113281 6.43066 0.358398 9.52344c0.131836 2.96094 0.376953 6.05371 0.753906 9.01465c2.09277 19.1582 7.41016 37.4297 15.3105 54.2305
c1.22559 2.60254 2.46973 5.07227 3.82715 7.54199c1.60254 3.20605 3.33691 6.41211 5.18457 9.3916c1.48926 2.22461 2.71484 4.31738 4.2041 6.41016c0.735352 1.24414 1.35742 2.22461 2.09277 3.33691c4.94043 7.05273 10.5029 13.8408 16.5557 20.0254
c3.33789 3.94141 7.16602 7.52441 10.9941 11.1074c1.24414 0.999023 2.46973 2.11133 3.71387 3.0918h0.113281c1.86719 1.84766 3.58301 3.0918 5.5625 4.5625c1.1123 0.867188 2.46973 1.97949 3.71387 2.84668c0.603516 0.376953 1.22559 0.867188 1.84766 1.24414
c1.1123 0.735352 1.97949 1.4707 2.95996 2.09277c1.1123 0.735352 2.11133 1.48926 3.22363 1.97949c0.358398 0.245117 0.735352 0.490234 1.09375 0.603516c0.376953 0.263672 0.753906 0.753906 1.24414 0.999023c1.1123 0.867188 2.33789 1.60254 3.71484 2.33789
h0.113281c0.980469 0.62207 1.84766 1.1123 2.71484 1.62109c0.376953 0.113281 0.753906 0.358398 1.24414 0.490234c0.603516 0.490234 1.22559 0.735352 1.84766 1.1123c3.20605 1.97949 6.54395 3.4502 9.88184 5.05273h0.131836
c3.33789 1.73438 6.65625 3.0918 9.99414 4.44922h0.131836c1.97949 0.735352 3.94043 1.48926 6.05273 2.35645c0.113281 0 0.358398 0 0.62207 0.113281h0.113281c1.97949 0.62207 3.71387 1.24414 5.56152 1.73438c1.84766 0.735352 3.69531 1.22559 5.5625 1.60254
c0.358398 0.131836 0.867188 0.245117 1.22559 0.376953h0.131836c0.62207 0.113281 1.1123 0.358398 1.84766 0.490234c1.73438 0.490234 3.58203 0.980469 5.56152 1.35742c1.22559 0.245117 2.46973 0.490234 3.69531 0.735352
c1.37695 0.245117 2.60254 0.376953 4.0918 0.62207c0.358398 0.131836 0.735352 0.131836 1.1123 0.245117c2.09277 0.490234 4.31738 0.62207 6.41016 0.999023h0.131836c2.71582 0.358398 5.31836 0.603516 7.90137 0.735352
c2.60254 0.245117 5.18555 0.376953 7.78809 0.490234h13.0859c2.71582 -0.113281 5.31836 -0.245117 8.0332 -0.490234c2.71582 -0.131836 5.31836 -0.376953 8.03418 -0.735352h0.113281c1.97949 -0.376953 4.2041 -0.508789 6.31641 -0.999023
c0.113281 -0.113281 0.358398 -0.113281 0.490234 -0.113281c0.245117 0 0.358398 -0.131836 0.735352 -0.131836c0.245117 0 0.376953 -0.113281 0.62207 -0.113281c2.33789 -0.263672 4.69531 -0.753906 7.0332 -1.24414h0.131836
c1.97949 -0.376953 3.82715 -0.867188 5.91992 -1.48926c0.245117 0 0.376953 -0.113281 0.62207 -0.113281c0.245117 -0.131836 0.490234 -0.131836 0.867188 -0.245117c0.376953 -0.131836 0.867188 -0.245117 1.22559 -0.376953
c1.97949 -0.376953 3.84668 -0.867188 5.5625 -1.60254c1.97949 -0.490234 3.82715 -1.1123 5.56152 -1.73438h0.131836c0.358398 -0.113281 0.603516 -0.113281 0.735352 -0.113281c2.09277 -0.867188 3.95996 -1.62109 5.9209 -2.35645h0.131836
c6.91992 -2.71484 13.708 -5.80762 20.0059 -9.50391c0.62207 -0.376953 1.35742 -0.62207 1.97949 -1.1123c0.376953 -0.131836 0.735352 -0.376953 1.1123 -0.490234c0.980469 -0.508789 1.73438 -0.999023 2.71484 -1.62109h0.131836
c1.35742 -0.735352 2.58301 -1.4707 3.82715 -2.33789c0.735352 -0.62207 1.4707 -1.1123 2.22461 -1.60254c0.980469 -0.62207 2.22461 -1.24414 3.20508 -1.97949c0.980469 -0.62207 2.09277 -1.35742 2.95996 -2.09277
c0.62207 -0.376953 1.35742 -0.867188 1.86621 -1.24414c0.603516 -0.62207 1.35742 -1.1123 2.09277 -1.73438c0.490234 -0.358398 0.980469 -0.735352 1.48926 -1.1123h0.113281c1.97949 -1.4707 3.82715 -2.71484 5.6748 -4.5625
c1.1123 -0.980469 2.46973 -2.09277 3.58203 -3.0918h0.131836c3.95996 -3.58301 7.65625 -7.16602 11.126 -11.1074c2.33789 -2.22461 4.43066 -4.69434 6.54297 -7.16406c0.56543 -0.678711 1.50781 -1.81055 2.62012 -3.14941
c4.8457 -5.8457 13.2559 -7.31641 19.7988 -3.41309l57.1914 34.1494c6.82617 4.0918 8.31543 12.4834 3.58203 18.8945c-13.3506 18.1025 -28.9453 34.4697 -46.2744 48.7627c-0.735352 0.735352 -1.60254 1.4707 -2.46973 2.09277
c-2.71582 2.22461 -5.43164 4.31738 -8.2793 6.54199h-0.131836c-2.82812 2.1123 -5.78906 4.20508 -8.76855 6.18457c-4.07324 2.82812 -8.67383 5.65625 -12.6719 8.14551c-2.77148 1.60254 -5.52441 3.20508 -8.27734 4.80762
c-2.20605 1.20703 -4.375 2.37598 -6.59961 3.48828c-2.71582 1.4707 -5.56348 2.82812 -8.2793 4.07227c-0.490234 0.376953 -0.867188 0.490234 -1.35742 0.735352c-6.54297 3.09277 -13.1055 5.80762 -19.8936 8.41016
c-2.09277 0.735352 -4.07227 1.4707 -6.18457 2.22461c-3.31836 1.22559 -6.65625 2.33789 -10.126 3.33691c-6.16602 1.96094 -12.3506 3.69531 -18.6484 5.05273c-7.90039 1.73438 -15.8203 3.20508 -23.834 4.31738c-4.0918 0.508789 -8.0332 0.999023 -12.1064 1.35742
c-2.97949 0.263672 -6.05273 0.508789 -9.03223 0.62207c-2.09277 0.245117 -4.18555 0.245117 -6.41016 0.376953h-1.86719c-4.94043 0.113281 -9.88086 0.113281 -14.8213 0c-2.71582 -0.131836 -5.43164 -0.131836 -8.2793 -0.376953
c-2.96094 -0.113281 -6.05371 -0.358398 -9.01465 -0.62207c-4.07324 -0.358398 -8.0332 -0.848633 -12.1064 -1.35742c-8.0332 -1.1123 -15.9336 -2.58301 -23.834 -4.31738c-6.31738 -1.35742 -12.4834 -3.0918 -18.668 -5.05273
c-3.33789 -0.999023 -6.65625 -2.11133 -9.99414 -3.33691c-2.1123 -0.753906 -4.07324 -1.48926 -6.18555 -2.22461h-0.113281c-6.80762 -2.60254 -13.3506 -5.31836 -19.8936 -8.41113c-3.20605 -1.4707 -6.43066 -3.09277 -9.63672 -4.80859
c-2.82812 -1.41406 -5.54395 -2.92285 -8.33496 -4.43164c-3.18652 -1.9043 -6.37305 -3.80859 -9.52246 -5.69434c-3.20605 -2.03613 -6.60059 -4.01562 -9.69336 -6.31641c-2.96094 -1.96094 -5.94043 -4.07324 -8.76855 -6.16602
c-2.84766 -2.22461 -5.56348 -4.31738 -8.27832 -6.54199h-0.131836c-0.735352 -0.62207 -1.60254 -1.35742 -2.33789 -2.11133c-57.9463 -47.5557 -95.6211 -118.456 -98.8271 -198.012c-0.245117 -5.44922 -0.376953 -10.9932 -0.131836 -16.6875
c0.245117 -5.43066 0.490234 -10.8613 1.1123 -16.3105c0.376953 -4.80859 0.999023 -9.63574 1.60254 -14.4443c0.508789 -3.33789 1.1123 -6.67578 1.73438 -10.0137c0 -0.490234 0.131836 -1.1123 0.245117 -1.60254
c0.867188 -4.56348 1.84766 -9.14551 2.95996 -13.5957c0.62207 -2.82812 1.35742 -5.67578 2.22461 -8.3916c0.753906 -2.84766 1.62109 -5.56348 2.46973 -8.27832c0.753906 -2.22461 1.48926 -4.44922 2.22461 -6.67383
c2.22461 -6.29785 4.58203 -12.4639 7.16504 -18.4033c0.867188 -2.22461 1.86621 -4.44922 2.84668 -6.54199c1.48926 -3.20605 2.95996 -6.29883 4.5625 -9.3916c1.24414 -2.46973 2.46973 -4.93945 3.82715 -7.29688
c0.376953 -0.735352 0.753906 -1.35742 1.1123 -2.09277c2.35742 -4.07324 4.82715 -8.14648 7.29688 -12.1064c1.84766 -2.96094 3.82715 -5.92188 5.80664 -8.76953c2.71582 -4.07324 5.67676 -8.14648 8.6377 -11.9932
c0.753906 -1.1123 1.62109 -2.20605 2.46973 -3.20508c2.97949 -3.69629 6.05273 -7.41113 9.27734 -10.9941c1.84766 -2.22461 3.82715 -4.44922 5.91992 -6.54199c1.86719 -2.1123 3.82812 -4.07324 5.94043 -6.05273c2.09277 -1.97949 4.18555 -4.07227 6.29785 -6.05176
c0.245117 -0.376953 0.490234 -0.62207 0.867188 -0.867188c2.71582 -2.46973 5.43164 -4.82715 8.14746 -7.16504c1.73438 -1.60254 3.58203 -3.0918 5.42969 -4.5625c2.97949 -2.46973 6.05273 -4.82715 9.27734 -7.16504
c1.71582 -1.35742 3.4502 -2.60156 5.29785 -3.82715c2.1123 -1.48926 4.4502 -3.0918 6.6748 -4.58105c2.35742 -1.60254 4.94043 -3.20508 7.41016 -4.69434c1.24414 -0.735352 2.46973 -1.4707 3.71387 -2.22461c3.09277 -1.71582 6.05371 -3.4502 9.25977 -5.18457
c2.46973 -1.35742 5.07227 -2.71484 7.65527 -3.95898c3.46973 -1.84766 7.05273 -3.4502 10.6357 -5.05273c0.603516 -0.376953 1.22559 -0.62207 1.84766 -0.867188c0.490234 -0.245117 1.1123 -0.490234 1.60254 -0.735352
c2.46973 -1.1123 4.82715 -2.11133 7.41016 -3.0918c0.245117 -0.131836 0.490234 -0.245117 0.753906 -0.376953h0.113281c4.07324 -1.60254 8.27832 -3.0918 12.3516 -4.5625h0.245117c4.20508 -1.48926 8.41016 -2.84668 12.6152 -4.07227
c3.20605 -0.999023 6.41211 -1.86621 9.75 -2.60156c0.980469 -0.376953 2.09277 -0.62207 3.0918 -0.735352c2.84766 -0.62207 5.56348 -1.24414 8.3916 -1.84766c3.58301 -0.753906 7.29785 -1.37598 10.8809 -1.86621
c2.96094 -0.490234 5.80859 -0.867188 8.76953 -1.1123c1.1123 -0.245117 2.22461 -0.358398 3.33691 -0.490234c2.58301 -0.245117 5.18555 -0.490234 7.90039 -0.62207c1.24414 -0.245117 2.60156 -0.358398 3.95898 -0.358398
c2.09277 -0.131836 4.31738 -0.245117 6.54199 -0.376953c3.20605 -0.131836 6.43066 -0.245117 9.63672 -0.245117h3.71484c2.09277 0 4.31738 0 6.41016 0.113281c1.1123 0 2.11133 0.131836 3.22363 0.131836c2.20605 0.131836 4.43066 0.245117 6.54297 0.376953
c1.35742 0.113281 2.58301 0.113281 3.94043 0.358398c2.73438 0.131836 5.31738 0.376953 7.91992 0.62207c1.1123 0.131836 2.22461 0.245117 3.33691 0.490234c2.96094 0.245117 5.78906 0.62207 8.76855 1.1123c3.58301 0.490234 7.2793 1.24414 10.8623 1.86621
c2.84766 0.603516 5.56348 1.22559 8.41113 1.84766c0.980469 0.245117 1.97949 0.490234 3.07324 0.735352c3.33789 0.735352 6.5625 1.60254 9.76855 2.60156h0.131836c4.18652 1.22559 8.3916 2.58301 12.5967 4.07227h0.245117
c4.07324 1.4707 8.27832 2.95996 12.3516 4.5625l0.735352 0.376953c3.71484 1.48926 7.41113 2.95996 10.9941 4.69434c3.58301 1.60254 7.05273 3.20508 10.6357 5.05273c2.58301 1.24414 5.18555 2.60156 7.65527 3.95898
c3.20605 1.73438 6.18555 3.46875 9.25879 5.18457c0 0.131836 0.131836 0.131836 0.131836 0.131836c3.69629 2.22461 7.41113 4.44922 10.9941 6.78711c2.22461 1.48926 4.5625 3.0918 6.6748 4.58105c6.91992 4.94043 13.5762 9.99414 20.0059 15.5566
c2.71582 2.33789 5.43164 4.69531 8.14648 7.16504l0.867188 0.867188c2.1123 1.97949 4.20508 4.07227 6.29785 6.05176c1.97949 1.97949 3.95898 3.94043 5.93848 6.05273c2.09277 2.09277 4.07227 4.31738 5.91992 6.54199
c1.86719 1.97949 3.58301 4.07227 5.31738 6.18457c1.84766 2.09277 3.58203 4.31738 5.31641 6.54199c0.358398 0.490234 0.735352 0.980469 1.1123 1.4707c2.96094 3.84668 5.92188 7.91992 8.6377 11.9932c1.13184 1.60254 5.41211 8.46582 8.90039 14.085
c2.60254 4.20508 0.924805 9.73047 -3.56348 11.7861zM299.672 0.135742c-1.92383 -0.131836 -4.19043 -0.139648 -6.33984 -0.139648h-3.69629c-2.97949 0 -5.94043 0.113281 -8.91992 0.226562l-7.41016 0.396484c-1.33887 0.150391 -2.86621 0.150391 -4.24316 0.414062
c-2.22461 0.0751953 -4.65723 0.301758 -7.08984 0.52832l-0.603516 0.0566406c-1.43262 0.169922 -2.52637 0.301758 -3.60156 0.52832c-2.75293 0.226562 -5.6377 0.603516 -8.67383 1.1123c-3.62012 0.47168 -7.33496 1.11328 -10.9365 1.84863l-8.42871 1.84766
c-0.697266 0.0947266 -2.03613 0.321289 -3.39355 0.830078c-3.09277 0.678711 -6.33594 1.5459 -9.63574 2.54492c-4.0918 1.22559 -8.20215 2.5459 -12.3125 3.97852l-0.62207 0.131836l-2.58301 0.942383c-3.12988 1.15039 -6.31641 2.28223 -9.44629 3.50781
l-0.660156 0.226562l-0.810547 0.415039c-2.37598 0.867188 -4.77051 1.88574 -7.27832 3.01758l-1.65918 0.753906c-0.697266 0.263672 -1.35742 0.546875 -2.03613 0.961914c-3.375 1.50879 -7.0332 3.13086 -10.54 5.0166
c-2.52637 1.1875 -5.16602 2.58301 -7.67383 3.94043c-2.07422 1.13184 -4.05371 2.26367 -6.0332 3.35742l-6.99609 4.0918c-2.50781 1.50879 -5.14746 3.14941 -7.52344 4.77148c-2.22461 1.48926 -4.58203 3.11133 -6.69434 4.60059
c-1.8291 1.22559 -3.62012 2.48926 -5.39258 3.88477c-3.80859 2.77148 -6.69336 5.01562 -9.31445 7.20312c-1.86719 1.48926 -3.75293 2.99805 -5.52539 4.65723l-0.584961 0.508789c-2.52637 2.16895 -5.03418 4.35645 -7.54199 6.6377
c-0.339844 0.188477 -0.791992 0.640625 -1.22559 1.28223c-0.716797 0.603516 -1.79199 1.62207 -2.84766 2.65918c-1.03711 1.01855 -2.07422 2.01758 -3.11133 2.97949c-2.43262 2.30078 -4.375 4.28027 -6.09082 6.22266
c-1.8291 1.8291 -3.80859 4.0166 -5.95801 6.59961c-2.92285 3.24316 -5.97754 6.88281 -9.2959 11.0127c-0.867188 0.999023 -1.79102 2.18652 -2.58301 3.35547c-3.11133 4.05371 -6.05273 8.12695 -8.63574 11.9922c-1.97949 2.82812 -3.95898 5.84473 -5.84473 8.84277
c-2.48926 3.95996 -4.95898 8.05176 -7.33496 12.1621l-1.1875 2.24414c-1.32031 2.28125 -2.58398 4.80762 -3.82812 7.31543c-1.60254 3.07324 -3.11133 6.18457 -4.62012 9.44629c-0.999023 2.1123 -1.99805 4.375 -2.88477 6.65625
c-2.33789 5.35547 -4.63867 11.2383 -7.18457 18.46l-2.24414 6.71289c-0.867188 2.79102 -1.75391 5.54395 -2.50781 8.42871c-0.791992 2.52637 -1.56543 5.41113 -2.24414 8.50391c-1.0752 4.29883 -2.07422 8.89941 -2.97949 13.6328
c-0.188477 0.678711 -0.283203 1.39551 -0.283203 2.01758c-0.584961 2.96094 -1.20703 6.31738 -1.69727 9.67383c-0.660156 5.11035 -1.26367 9.8623 -1.62207 14.6143c-0.62207 5.41211 -0.867188 10.9746 -1.1123 16.3486
c-0.226562 4.99707 -0.188477 10.2012 0.113281 16.8955c3.12988 77.4629 39.4473 150.211 99.6182 199.615c0.62207 0.641602 1.5459 1.43359 2.33789 2.09375l0.753906 0.52832c2.03613 1.64062 4.0918 3.24316 6.18457 4.88379l1.52734 1.1875
c2.92285 2.14941 5.90234 4.26172 8.90039 6.26074c2.39453 1.79102 5.03418 3.43164 7.59863 4.99707l12.4639 7.48633c2.56445 1.39551 5.11035 2.77246 7.71289 4.09277c3.18652 1.71582 6.44824 3.33789 9.69141 4.84668
c6.07227 2.84766 12.6152 5.61914 20.0254 8.4668l6.37305 2.24414c3.33789 1.24414 6.71289 2.35645 10.1074 3.35547c6.84473 2.1875 13.0107 3.86621 18.7998 5.11035c8.59863 1.86719 16.4619 3.31934 24.0049 4.35645l1.28223 0.169922
c3.6582 0.433594 7.24121 0.867188 10.9375 1.20703c3.0166 0.263672 6.12793 0.508789 9.12598 0.640625c1.8291 0.150391 3.69629 0.207031 5.54395 0.263672l2.73438 0.0947266c4.99707 0.113281 10.0322 0.113281 14.9727 0l4.0166 -0.0947266
c1.50879 -0.0751953 2.97949 -0.113281 4.4502 -0.283203c2.82812 -0.113281 5.93945 -0.358398 8.9375 -0.62207c3.71484 -0.320312 7.29785 -0.753906 10.9561 -1.20605l1.26367 -0.169922c7.58008 -1.03711 15.4434 -2.46973 24.042 -4.35547
c5.78906 -1.24414 11.9551 -2.92285 18.8379 -5.11035c3.35645 -0.961914 6.73145 -2.07422 10.2383 -3.375l6.12793 -2.20605c7.4668 -2.84766 14.0293 -5.61914 20.1016 -8.50391c0.753906 -0.339844 1.20605 -0.566406 1.75293 -0.961914
c2.33789 -0.999023 5.22266 -2.39453 7.99414 -3.90332c2.16895 -1.0752 4.33789 -2.2627 6.54395 -3.43164l8.3916 -4.88379c3.84668 -2.35742 8.58008 -5.29883 12.8232 -8.24023c2.75293 -1.8291 5.54395 -3.80859 8.24023 -5.78809h0.0380859l2.05566 -1.50879
c2.37598 -1.84766 4.67676 -3.63867 6.97754 -5.52441c0.848633 -0.62207 1.81055 -1.43262 2.64062 -2.2627c17.4043 -14.3311 33.0928 -30.8682 46.4805 -49.0078c2.71582 -3.67676 3.73438 -8.01367 2.9043 -12.2188
c-0.830078 -4.0918 -3.35645 -7.59863 -7.12793 -9.84277l-57.2109 -34.168c-7.3916 -4.39355 -17.1025 -2.73438 -22.5898 3.90332c-1.09375 1.32031 -2.03613 2.45215 -2.60156 3.09277c-2.13086 2.50781 -4.12988 4.88379 -6.39258 7.01465
c-3.0166 3.41309 -6.24121 6.6748 -10.54 10.5596l-0.678711 0.508789c-0.52832 0.47168 -1.15039 1 -1.75391 1.50879c-0.62207 0.52832 -1.26367 1.0752 -1.8291 1.58398c-1.43359 1.43262 -2.8291 2.46973 -4.31836 3.54492l-3.62012 2.65918
c-0.546875 0.415039 -1.05566 0.811523 -1.52734 1.2832c-0.226562 0.150391 -0.886719 0.583984 -1.43359 0.923828c-1.0752 0.867188 -2.09375 1.5459 -2.99902 2.11133c-0.697266 0.508789 -1.35742 0.885742 -1.96094 1.2627
c-0.433594 0.245117 -0.867188 0.490234 -1.26367 0.735352c-0.848633 0.56543 -1.64062 1.1123 -2.45117 1.77246c-0.886719 0.603516 -1.88574 1.24414 -2.97949 1.8291h-0.0751953l-0.678711 0.339844c-1.05566 0.678711 -1.69727 1.07422 -2.50781 1.48926
c-0.0380859 0 -0.283203 0.131836 -0.52832 0.245117l-0.980469 0.508789c-0.207031 0.169922 -0.508789 0.301758 -0.848633 0.490234c-0.301758 0.150391 -0.62207 0.282227 -0.905273 0.470703c-5.4873 3.22461 -11.8232 6.24121 -19.3467 9.20215l-0.415039 0.131836
c-1.88574 0.697266 -3.6582 1.39453 -5.65723 2.22461c-0.150391 0.0380859 -0.338867 0.0566406 -0.527344 0.113281l-0.56543 0.131836c-1.67871 0.584961 -3.45117 1.18848 -5.35547 1.66016c-1.77246 0.735352 -3.43164 1.20703 -5.43066 1.56543l-1.99902 0.62207
c-0.320312 0.0185547 -0.546875 0.113281 -0.678711 0.151367c-2.30078 0.640625 -4.07324 1.1123 -5.97754 1.4707c-2.52637 0.508789 -4.75098 0.980469 -6.99512 1.20703l-2.63965 0.52832c-0.980469 0.226562 -1.97949 0.321289 -2.94141 0.47168
c-0.942383 0.113281 -1.86621 0.245117 -2.75293 0.395508c-2.65918 0.320312 -5.18555 0.583984 -7.84473 0.697266c-2.79102 0.263672 -5.33691 0.376953 -8.0332 0.490234h-12.9922c-2.45117 -0.113281 -5.01562 -0.226562 -7.56152 -0.47168
c-2.65918 -0.131836 -5.18555 -0.376953 -7.84473 -0.735352c-0.923828 -0.150391 -1.8291 -0.263672 -2.75293 -0.376953c-1.1875 -0.150391 -2.41309 -0.282227 -3.58203 -0.583984l-3.12988 -0.546875c-0.716797 -0.0947266 -1.43359 -0.189453 -2.16895 -0.339844
l-3.67676 -0.716797c-1.92383 -0.376953 -3.71484 -0.848633 -5.39355 -1.32031c-0.52832 -0.113281 -0.754883 -0.188477 -0.981445 -0.263672c-0.358398 -0.113281 -0.678711 -0.226562 -1.05566 -0.283203l-1.01855 -0.283203
c-2.24414 -0.490234 -3.94141 -0.961914 -5.46875 -1.60352c-1.4707 -0.395508 -2.62109 -0.753906 -3.82812 -1.16895l-2.31934 -0.716797c-0.169922 -0.0566406 -0.339844 -0.0751953 -0.490234 -0.09375c-1.99902 -0.810547 -3.88477 -1.5459 -5.78906 -2.24316
l-0.452148 -0.150391c-3.28125 -1.33887 -6.39258 -2.62109 -9.42871 -4.20508l-2.01758 -0.886719c-2.75293 -1.30078 -5.33594 -2.54492 -7.8623 -4.09082l-0.735352 -0.396484c-0.283203 -0.169922 -0.603516 -0.320312 -0.905273 -0.56543l-1.86719 -0.830078
c-0.773438 -0.490234 -1.49023 -0.885742 -2.28223 -1.39453l-0.753906 -0.339844c-1.05566 -0.584961 -2.03613 -1.18848 -2.92285 -1.86719l-0.62207 -0.47168c-0.245117 -0.245117 -0.508789 -0.47168 -0.753906 -0.62207l-0.52832 -0.263672
c-0.0751953 -0.0380859 -0.320312 -0.188477 -0.490234 -0.301758c-1.16895 -0.56543 -1.84766 -1.03711 -2.56445 -1.5459l-0.735352 -0.490234c-0.52832 -0.320312 -0.980469 -0.660156 -1.45215 -1c-0.47168 -0.358398 -0.961914 -0.716797 -1.50879 -1.09375
c-0.339844 -0.207031 -0.623047 -0.395508 -0.886719 -0.583984c-0.339844 -0.263672 -0.698242 -0.490234 -1.03809 -0.716797c-0.735352 -0.508789 -1.62207 -1.22559 -2.4707 -1.86719l-1.69727 -1.30078c-1.67773 -1.26367 -3.14844 -2.35742 -4.67578 -3.90332
l-0.905273 -0.641602c-0.415039 -0.320312 -0.811523 -0.697266 -1.24512 -1.03711c-0.62207 -0.546875 -1.24414 -1.0752 -1.86621 -1.56543c-3.58301 -3.35645 -7.44824 -6.95801 -10.6914 -10.8232c-5.90234 -5.99609 -11.3711 -12.6523 -16.4434 -19.8555
c-0.697266 -1.03711 -1.30078 -1.99902 -2.01758 -3.20605c-0.961914 -1.33887 -1.71582 -2.58301 -2.52637 -3.82715c-0.56543 -0.886719 -1.13086 -1.77344 -1.73438 -2.69727c-1.58398 -2.50781 -3.24316 -5.52441 -5.05371 -9.14453
c-1.35742 -2.50781 -2.58301 -4.92188 -3.80859 -7.48633c-7.99512 -16.9707 -13.0859 -34.9971 -15.1221 -53.5332c-0.339844 -2.84766 -0.603516 -5.9209 -0.735352 -8.8623c-0.245117 -3.12988 -0.358398 -6.25977 -0.358398 -9.42773
c0 -1.0752 0.0185547 -2.20703 0.0566406 -3.35742c0.0185547 -1.22559 0.0566406 -2.46973 0.0566406 -3.67676v-0.62207c1.16895 -33.1309 11.7471 -65.0547 30.6221 -92.2646l2.45117 -3.56348c2.69629 -3.86523 5.16602 -7.0332 7.50391 -9.69238l0.339844 -0.301758
c0.415039 -0.376953 0.811523 -0.773438 1.13184 -1.18848c2.71484 -3.35645 5.58105 -6.42969 8.48535 -9.08887c2.86621 -2.99805 5.90234 -5.73242 9.24023 -8.69336h0.546875l0.716797 -1.26367l0.678711 -0.245117c3.86523 -3.31836 6.91992 -5.71289 9.86133 -7.80566
c1.4707 -1.13184 3.07324 -2.22559 4.71387 -3.30078h0.0751953l0.716797 -0.47168c1.41406 -1.0752 3.09277 -2.31934 4.88379 -3.26172c1.01855 -0.716797 1.90527 -1.26367 2.79199 -1.69727c2.16895 -1.43262 3.92285 -2.45117 5.67676 -3.33789l6.24121 -3.2998
c0.810547 -0.395508 1.60254 -0.772461 2.35645 -1.20605l2.07422 -0.942383c1.69727 -0.773438 3.41309 -1.58398 5.2041 -2.2627c4.60059 -1.96094 8.89941 -3.46973 12.8779 -4.79004c2.28125 -0.830078 4.67578 -1.69727 7.20215 -2.30078
c1.75391 -0.56543 3.22461 -0.960938 4.7334 -1.35742l1.9043 -0.508789c1.86719 -0.47168 3.79102 -0.830078 5.7334 -1.18848c0.452148 -0.0751953 0.960938 -0.188477 1.45117 -0.283203l0.980469 -0.207031c2.30078 -0.508789 4.375 -0.867188 6.5625 -1.2627
c2.1875 -0.358398 4.26172 -0.603516 6.29785 -0.810547c4.50684 -0.358398 9.2207 -0.753906 14.0859 -0.753906l0.980469 -0.226562c0.0947266 -0.0185547 0.584961 -0.0185547 0.868164 -0.0185547c1.22559 0 2.39453 0 3.50684 0.113281l0.283203 0.0185547
l0.263672 -0.0380859c0.546875 -0.0751953 0.773438 -0.0751953 1.0752 -0.0185547l0.301758 0.0566406l0.301758 -0.0185547c1.41406 -0.113281 2.5459 -0.0947266 3.90332 -0.113281c0.546875 0 0.584961 0 0.791992 0.0947266l0.810547 0.150391
c4.7334 0 9.44727 0.376953 14.0107 0.753906c2.2627 0.226562 4.29883 0.453125 6.20312 0.811523c2.35742 0.376953 4.52637 0.753906 6.58203 1.22559l0.584961 0.113281c0.546875 0.0751953 1.1875 0.169922 1.67773 0.320312
c2.35742 0.433594 4.26172 0.791992 6.05273 1.28223c2.20605 0.62207 4.41211 1.22559 6.48633 1.8291c1.4707 0.358398 2.75293 0.735352 4.03516 1.15039c5.75098 1.86719 14.0859 4.90332 18.875 7.09082c3.48828 1.58398 7.07129 3.28125 10.5596 5.07227
l8.33496 4.77051c0.830078 0.490234 1.79199 1.09375 2.75391 1.69727c1.65918 0.942383 3.26172 2.07422 4.8457 3.22461l0.773438 0.433594c17.4795 11.4834 39.1641 38.8252 47.7246 50.083c3.46973 4.56348 9.56055 6.09082 14.8213 3.67676l69.4482 -31.7734
c2.71484 -1.22559 4.77051 -3.58301 5.6377 -6.43066c0.848633 -2.84766 0.452148 -5.94043 -1.11328 -8.50488c-5.12891 -8.24023 -8.05176 -12.8789 -8.95703 -14.1797c-2.62109 -3.90332 -5.54395 -7.97656 -8.71191 -12.0869l-1.09375 -1.43262
c-1.79102 -2.30078 -3.54492 -4.54492 -5.41211 -6.69434c-1.81055 -2.1875 -3.52637 -4.26172 -5.37402 -6.22266c-2.07422 -2.50781 -4.07324 -4.69531 -5.97754 -6.59961c-1.94238 -2.07422 -3.92188 -4.05371 -5.9209 -6.05273
c-1.09375 -1.01855 -2.13086 -2.03711 -3.18652 -3.05566c-1.03711 -1.01855 -2.1123 -2.03711 -3.16797 -3.03613l-0.810547 -0.810547c-2.50781 -2.28125 -4.90234 -4.37402 -7.33496 -6.4668l-0.942383 -0.791992c-5.80762 -5.03516 -12.2188 -10.0322 -20.1572 -15.708
c-2.13086 -1.48926 -4.48828 -3.11133 -6.73242 -4.60059c-3.31836 -2.1875 -6.71289 -4.24316 -10.1445 -6.29883v-0.113281l-4.375 -2.43262c-1.96094 -1.13184 -3.95996 -2.24414 -6.05273 -3.37598c-2.50781 -1.35742 -5.12891 -2.75293 -7.75 -3.99707
c-3.56348 -1.8291 -7.0332 -3.45117 -10.6533 -5.0918c-3.48828 -1.67773 -7.18457 -3.14844 -10.748 -4.58105l-0.905273 -0.433594c-3.41309 -1.33887 -6.71289 -2.5459 -9.97461 -3.71484l-3.375 -1.09375c-3.75293 -1.35742 -7.97656 -2.73438 -12.2197 -3.97852
l-0.62207 -0.0947266c-2.80957 -0.923828 -6.03418 -1.79102 -9.40918 -2.54492c-0.848633 -0.188477 -1.62207 -0.376953 -2.37598 -0.56543l-12.5957 -2.65918c-2.52637 -0.452148 -5.07227 -0.904297 -7.56152 -1.24414
c-2.96094 -0.508789 -5.86523 -0.885742 -8.88184 -1.14941c-0.791992 -0.188477 -1.86719 -0.320312 -2.96094 -0.433594l-0.980469 -0.113281c-2.41406 -0.226562 -4.86523 -0.453125 -7.41113 -0.566406c-0.678711 -0.131836 -1.58398 -0.207031 -2.50781 -0.263672
l-7.65527 -0.452148c-0.942383 -0.0185547 -1.41406 -0.0371094 -1.9043 -0.0751953c-0.56543 -0.0380859 -1.13086 -0.0566406 -1.71582 -0.0566406zM204.914 18.7207l-2.20312 0.814453c-3.24316 1.1875 -6.52441 2.375 -9.73047 3.61914l-0.867188 0.396484
c-2.56445 0.961914 -4.86523 1.94238 -7.24121 2.99805l-1.86719 0.848633c-0.47168 0.188477 -0.961914 0.376953 -1.75391 0.810547c-3.46973 1.56543 -7.0332 3.16797 -10.4844 5.01562c-2.56445 1.20703 -5.12891 2.5459 -7.56152 3.88477
c-2.07422 1.1123 -4.0166 2.22461 -5.97754 3.33691l-6.91992 4.03516c-2.43262 1.45215 -4.99707 3.03613 -7.31641 4.63867c-2.20605 1.4707 -4.54395 3.05469 -6.6748 4.56348c-1.81055 1.20703 -3.48828 2.43262 -5.24219 3.79004
c-3.77148 2.75293 -6.59961 4.94043 -9.18262 7.08984c-1.81055 1.45215 -3.63965 2.9043 -5.37402 4.52637l-0.660156 0.56543c-2.48926 2.14941 -4.97852 4.29883 -7.44824 6.54297l-0.848633 0.867188c-1.05566 0.961914 -2.09277 1.96094 -3.12988 2.97949
c-1.05566 1.03711 -2.11133 2.05566 -3.16699 3.03613c-2.31934 2.1875 -4.16699 4.0918 -5.88281 6.01562c-1.84766 1.8291 -3.7334 3.94141 -5.8457 6.44922c-2.92285 3.26172 -5.9209 6.8252 -9.23926 10.9736c-0.810547 0.923828 -1.62109 1.96094 -2.39453 3.11133
c-3.16797 4.0918 -6.03418 8.08984 -8.58008 11.918c-1.96094 2.79102 -3.92188 5.73242 -5.75098 8.67383c-2.45117 3.94141 -4.9209 7.99512 -7.18359 11.917l-1.16895 2.22461c-1.35742 2.31934 -2.56445 4.7334 -3.80859 7.20312
c-1.58398 3.07324 -3.03613 6.12793 -4.52539 9.31445c-0.980469 2.05566 -1.94238 4.22461 -2.80957 6.4873c-2.31934 5.33594 -4.58203 11.1436 -7.08984 18.2148l-2.22461 6.6377c-0.848633 2.69629 -1.71582 5.37402 -2.46973 8.27832
c-0.810547 2.52637 -1.5459 5.29785 -2.1875 8.27734c-1.0752 4.28027 -2.05566 8.80566 -2.97949 13.6143c-0.131836 0.508789 -0.169922 0.867188 -0.208008 1.45215c-0.62207 3.2998 -1.24414 6.61816 -1.75293 10.2197
c-0.603516 4.65723 -1.18848 9.33398 -1.56543 14.1045c-0.603516 5.33594 -0.848633 10.8232 -1.09375 16.1406c-0.207031 4.8457 -0.168945 9.93652 0.114258 16.499c3.07324 76.2178 38.8066 147.797 98.2051 196.56c0.490234 0.508789 1.05566 0.999023 1.58398 1.45117
l0.716797 0.508789c2.20605 1.81055 4.43066 3.52637 6.6748 5.31738l1.48926 1.16895c2.80957 2.07422 5.75098 4.14844 8.76758 6.16602c2.33789 1.73438 4.90234 3.31836 7.3916 4.86426l11.5781 6.97656l0.678711 0.358398
c2.5459 1.39551 5.03516 2.75293 7.65625 4.05371c3.16797 1.71582 6.33594 3.31836 9.52246 4.78906c5.95898 2.79102 12.125 5.39355 19.3662 8.16504l6.65625 2.37598c3.2998 1.20703 6.58105 2.31934 9.91895 3.2998c6.75098 2.14941 12.7852 3.79004 18.4424 4.99707
c8.50391 1.86719 16.2539 3.28125 23.6455 4.2998l1.26367 0.150391c3.60156 0.433594 7.16504 0.867188 10.7666 1.20703c2.94141 0.245117 5.99609 0.47168 9.03223 0.62207c1.8291 0.150391 3.62012 0.207031 5.41113 0.245117l2.73438 0.113281
c4.86523 0.150391 9.82422 0.150391 14.7646 0l3.90332 -0.0947266c1.39551 -0.0566406 2.75293 -0.0947266 4.28027 -0.264648c2.94141 -0.150391 5.99609 -0.357422 8.91895 -0.602539c3.62012 -0.358398 7.16504 -0.773438 10.7852 -1.22559l1.20703 -0.150391
c7.44824 -1.01855 15.1982 -2.43262 23.6836 -4.2998c5.65723 -1.20703 11.6914 -2.84766 18.5176 -5.0166c3.2998 -0.961914 6.56152 -2.03711 9.99316 -3.31934l6.12793 -2.1875c7.29785 -2.79102 13.7471 -5.52539 20.1201 -8.52344
c0.301758 -0.131836 0.415039 -0.188477 1.01855 -0.584961c2.65918 -1.20703 5.4502 -2.52734 8.20312 -4.03613c2.16895 -1.0752 4.2998 -2.22559 6.46875 -3.41309l8.22168 -4.77051c3.75293 -2.31934 8.42969 -5.22363 12.5967 -8.1084
c2.94141 -1.96094 5.88281 -4.03516 8.69238 -6.10938l1.41406 -1.01855c2.35742 -1.8291 4.62012 -3.60156 6.99609 -5.52539c0.773438 -0.56543 1.54688 -1.22559 2.37695 -2.03613c17.291 -14.2559 32.7344 -30.5293 45.8965 -48.3672
c1.97949 -2.67773 2.71484 -5.78906 2.11133 -8.76855c-0.56543 -2.86621 -2.35645 -5.33594 -5.05273 -6.93848l-57.1914 -34.168c-5.5625 -3.31836 -12.8408 -2.03613 -16.9893 2.94238c-1.1123 1.35742 -2.07422 2.48926 -2.63965 3.16797
c-2.1123 2.46973 -4.28125 5.01562 -6.5625 7.18457c-3.12988 3.56348 -6.61816 7.0332 -11.3135 11.2949l-0.753906 0.56543v0c-0.396484 0.339844 -0.792969 0.679688 -1.20801 1.03809c-0.603516 0.508789 -1.20703 1.01758 -1.65918 1.41309
c-1.58398 1.58398 -3.18652 2.75293 -4.73242 3.90332l-3.54492 2.56445c-0.395508 0.320312 -0.791016 0.603516 -1.33789 1.13184c-0.546875 0.415039 -1.35742 0.961914 -1.75391 1.16895c-0.942383 0.810547 -2.14941 1.62109 -3.07324 2.18652
c-0.697266 0.508789 -1.50781 0.980469 -2.26172 1.43262l-1.05566 0.603516c-0.678711 0.47168 -1.35742 0.905273 -2.1875 1.58398c-1.30078 0.905273 -2.60156 1.71582 -4.03418 2.46973l-0.358398 0.169922c-0.886719 0.546875 -1.62207 0.999023 -2.5459 1.4707
l-0.52832 0.245117c-0.169922 0.0751953 -0.339844 0.169922 -0.490234 0.226562c-0.47168 0.339844 -0.943359 0.566406 -1.33984 0.773438c-0.188477 0.0751953 -0.376953 0.169922 -0.603516 0.301758c-5.78906 3.39453 -12.4453 6.5625 -20.3086 9.65527
l-0.52832 0.150391c-1.8291 0.678711 -3.54492 1.39551 -5.4873 2.1875l-1.28223 0.263672c-1.69727 0.603516 -3.50781 1.20703 -5.11035 1.56543c-1.73438 0.753906 -3.71387 1.33887 -5.69336 1.65918c-0.263672 0.0947266 -0.546875 0.169922 -1.28223 0.396484
c-0.245117 0.0751953 -0.415039 0.09375 -0.509766 0.09375l-1.33887 0.396484c-2.07422 0.584961 -3.90332 1.0752 -5.9209 1.43359c-2.37598 0.490234 -4.80859 0.999023 -7.12793 1.22559c-0.169922 0.0566406 -0.546875 0.131836 -0.791992 0.150391
c-0.0947266 0.0380859 -0.283203 0.0947266 -0.546875 0.132812l-0.376953 0.0947266c-1.28223 0.301758 -2.60254 0.47168 -3.90332 0.641602c-0.848633 0.113281 -1.69727 0.208008 -2.73438 0.37793c-2.77148 0.396484 -5.43066 0.641602 -8.1084 0.754883
c-2.77148 0.245117 -5.41113 0.376953 -8.23926 0.508789h-13.1992c-2.63965 -0.131836 -5.26074 -0.245117 -7.78711 -0.490234c-2.65918 -0.131836 -5.31836 -0.376953 -8.31641 -0.773438c-0.830078 -0.131836 -1.66016 -0.245117 -2.50879 -0.358398
c-1.35742 -0.169922 -2.71484 -0.339844 -4.43066 -0.754883c-0.301758 -0.0380859 -0.62207 -0.113281 -0.56543 -0.131836l-1.8291 -0.207031c-0.810547 -0.113281 -1.56445 -0.208008 -2.39453 -0.37793l-3.69629 -0.716797
c-2.05566 -0.395508 -3.95996 -0.904297 -5.50586 -1.35645c-0.52832 -0.0947266 -0.961914 -0.226562 -1.3584 -0.358398c-0.188477 -0.0380859 -0.358398 -0.113281 -0.263672 -0.113281l-1.1123 -0.245117c-0.301758 -0.0751953 -0.603516 -0.169922 -0.546875 -0.188477
c-2.1875 -0.415039 -4.14844 -0.980469 -5.69434 -1.62207c-1.28223 -0.358398 -2.50781 -0.754883 -3.79004 -1.16992l-1.33887 -0.490234l-0.150391 0.0947266l-1.28223 -0.376953c-2.03613 -0.848633 -3.94043 -1.56543 -5.84473 -2.28223l-0.640625 -0.207031
c-3.05469 -1.24414 -6.22266 -2.54492 -9.39062 -4.14746l-2.35742 -1.09375c-2.71484 -1.30078 -5.54297 -2.63965 -8.25879 -4.29883l-0.508789 -0.283203c-0.415039 -0.226562 -0.810547 -0.453125 -1.20605 -0.736328
c-0.283203 -0.0947266 -0.584961 -0.226562 -0.961914 -0.396484l-0.773438 -0.395508c-0.56543 -0.339844 -1.1875 -0.698242 -1.82812 -1.0752l-0.52832 -0.263672c-1.65918 -0.905273 -2.92285 -1.71582 -3.6582 -2.31934
c-0.52832 -0.283203 -0.924805 -0.641602 -1.3584 -1.03711c-0.396484 -0.188477 -0.736328 -0.395508 -0.868164 -0.527344c-0.999023 -0.433594 -1.9043 -1.03711 -2.86621 -1.69727l-0.62207 -0.433594c-0.584961 -0.358398 -1.13184 -0.754883 -1.69727 -1.16992
c-0.415039 -0.320312 -0.830078 -0.640625 -1.24512 -0.904297c-0.339844 -0.207031 -0.698242 -0.452148 -1.05664 -0.71582c-0.263672 -0.169922 -0.527344 -0.358398 -0.923828 -0.603516c-0.905273 -0.640625 -1.88574 -1.39453 -2.79102 -2.11133l-1.60254 -1.26367
c-1.52734 -1.13184 -2.97949 -2.20703 -4.50684 -3.63965l-0.603516 -0.490234c-0.640625 -0.52832 -1.28125 -1.0752 -1.92285 -1.62207c-0.603516 -0.508789 -1.18848 -0.999023 -1.90527 -1.58398c-3.80859 -3.56348 -7.75 -7.25977 -11.0684 -11.1816
c-5.93945 -6.05273 -11.5771 -12.8789 -16.8008 -20.3457c-0.753906 -1.13184 -1.39551 -2.15039 -2.07422 -3.2627c-0.905273 -1.28223 -1.71582 -2.56445 -2.5459 -3.86523c-0.546875 -0.848633 -1.1123 -1.73535 -1.71582 -2.65918
c-1.67773 -2.71582 -3.41211 -5.82715 -5.25977 -9.52344c-1.37695 -2.50781 -2.62109 -4.99707 -3.88477 -7.63672c-8.20215 -17.4238 -13.4258 -35.9033 -15.5186 -54.8916c-0.376953 -2.96094 -0.62207 -6.12891 -0.735352 -9.1084
c-0.245117 -3.14941 -0.395508 -6.41113 -0.395508 -9.69238c0 -1.1123 0.0380859 -2.28125 0.0761719 -3.48828c0.0380859 -1.1875 0.0566406 -2.35645 0.0566406 -3.54395v-0.697266c1.1875 -34.0547 12.0488 -66.7891 31.3955 -94.6963l2.46973 -3.58301
c2.80957 -3.97852 5.35547 -7.27832 7.91992 -10.1631l0.56543 -0.546875c0.207031 -0.207031 0.414062 -0.376953 0.640625 -0.660156c2.9043 -3.56348 5.9209 -6.78809 8.88184 -9.52246c3.07324 -3.18652 6.48633 -6.25977 10.0127 -9.38965l0.131836 -0.0947266
c0.207031 -0.245117 0.470703 -0.47168 0.753906 -0.660156c0.207031 -0.188477 0.452148 -0.338867 0.791992 -0.508789c3.84668 -3.26172 6.90137 -5.65625 9.80566 -7.73047c1.5459 -1.1875 3.2998 -2.375 5.43066 -3.80762l0.415039 -0.226562
c1.48926 -1.1123 3.18652 -2.33789 4.86523 -3.20508c0.942383 -0.678711 2.03613 -1.35742 2.90332 -1.75293c2.07422 -1.39551 3.99805 -2.52734 5.8457 -3.45117l6.37305 -3.35645c0.735352 -0.358398 1.43262 -0.678711 2.2998 -1.15039l2.16895 -0.999023
c1.79102 -0.830078 3.60156 -1.67871 5.41211 -2.35742c4.65723 -1.99902 9.06934 -3.52637 13.0674 -4.84668c2.22461 -0.830078 4.88379 -1.75391 7.4668 -2.35742c1.64062 -0.56543 3.20605 -0.980469 4.82812 -1.39551l1.9043 -0.508789
c1.99902 -0.52832 4.03516 -0.905273 6.10938 -1.28223c0.433594 -0.0751953 0.848633 -0.169922 1.24512 -0.264648c0.433594 -0.0947266 0.830078 -0.169922 1.09375 -0.208008c2.2627 -0.508789 4.39355 -0.905273 6.75098 -1.28223
c2.14941 -0.376953 4.28027 -0.62207 6.50488 -0.867188c4.54395 -0.376953 9.20117 -0.753906 14.1035 -0.772461c0.753906 -0.245117 1.48926 -0.245117 2.01758 -0.245117c1.32031 0 2.64062 0 3.86621 0.113281c0.753906 -0.0947266 1.37598 -0.0947266 2.03613 0
c1.43262 -0.113281 2.6582 -0.113281 3.97852 -0.113281c0.603516 0 1.18848 0 1.96191 0.245117c4.77051 0.0185547 9.46582 0.414062 14.1992 0.772461c2.28125 0.245117 4.4502 0.508789 6.54297 0.867188c2.28125 0.376953 4.5625 0.753906 6.95703 1.30078
c0.791992 0.113281 1.69727 0.263672 2.07422 0.433594c2.16895 0.376953 4.22461 0.753906 6.14844 1.28223c2.24414 0.603516 4.46875 1.22559 6.46777 1.8291c1.45215 0.339844 2.86621 0.773438 4.26172 1.22559c5.8457 1.9043 14.3691 4.99707 19.3096 7.24121
c3.58301 1.64062 7.22266 3.35645 10.8428 5.24219l8.41016 4.80859c0.867188 0.508789 1.88574 1.13086 2.84766 1.73438c1.52734 0.867188 3.07324 1.94238 4.78906 3.16797l0.62207 0.339844c18.1025 11.748 40.4102 39.8066 49.1592 51.3281
c2.20605 2.92285 6.14746 3.84668 9.50391 2.33789l69.4482 -31.7539c1.56543 -0.735352 2.75293 -2.09277 3.26172 -3.7334s0.263672 -3.43164 -0.641602 -4.90234c-5.01562 -8.07031 -7.97656 -12.7656 -8.84375 -14.0293
c-2.58301 -3.86523 -5.46777 -7.86328 -8.59766 -11.8984l-1.0752 -1.45215c-1.71582 -2.1875 -3.39355 -4.375 -5.41113 -6.65625c-1.64062 -1.99902 -3.2998 -4.0166 -5.16699 -5.99609c-2.09277 -2.50781 -3.97852 -4.60059 -5.8457 -6.44824
c-1.94238 -2.07422 -3.92188 -4.03516 -5.82617 -5.93945c-1.0752 -0.999023 -2.13086 -2.03613 -3.18652 -3.05469c-1.03711 -1.01855 -2.07422 -2.03711 -3.16797 -3.05566l-0.773438 -0.773438c-2.39453 -2.1875 -4.78906 -4.26172 -7.18359 -6.33594
l-0.942383 -0.810547c-5.69434 -4.92188 -12.0117 -9.84375 -19.8369 -15.4248c-2.07422 -1.4707 -4.41211 -3.07324 -6.59961 -4.52539c-3.41309 -2.22461 -6.93945 -4.35547 -10.4658 -6.46777l-1.64062 -0.0947266v-0.905273l-2.14941 -1.20703
c-1.94238 -1.1123 -3.90332 -2.22461 -5.97754 -3.33691c-2.43262 -1.33887 -4.99707 -2.67773 -7.61816 -3.94141c-3.54492 -1.8291 -6.95801 -3.41309 -10.5781 -5.01562c-3.41309 -1.65918 -7.01465 -3.11133 -11.0312 -4.7334l-0.546875 -0.283203
c-3.18652 -1.24414 -6.44824 -2.43164 -9.67285 -3.58203l-2.86621 -0.961914c-4.14844 -1.4707 -8.31543 -2.79102 -11.9922 -3.94141l-0.640625 -0.0947266c-3.20605 -0.980469 -6.33594 -1.81055 -9.56055 -2.5459
c-0.905273 -0.188477 -1.69727 -0.395508 -2.48926 -0.583984l-12.332 -2.60254c-2.46973 -0.452148 -4.95898 -0.904297 -7.44824 -1.24414c-2.9043 -0.490234 -5.67578 -0.848633 -8.8623 -1.13184c-0.942383 -0.207031 -1.88477 -0.320312 -3.07227 -0.470703
l-0.603516 -0.0566406c-2.33789 -0.226562 -4.71387 -0.433594 -7.48535 -0.583984c-0.810547 -0.150391 -1.5459 -0.188477 -2.31934 -0.245117l-7.78809 -0.452148c-0.603516 0 -1.16895 -0.0380859 -1.73438 -0.0761719
c-0.490234 -0.0185547 -0.961914 -0.0566406 -1.62207 -0.0566406c-2.01758 -0.131836 -4.12988 -0.131836 -6.14746 -0.131836h-3.84668c-2.92285 0 -5.82715 0.113281 -8.75 0.226562l-7.44824 0.396484c-1.1875 0 -2.41309 0.113281 -3.8457 0.376953
c-2.46973 0.113281 -4.8457 0.320312 -7.20312 0.527344l-0.830078 0.0947266c-0.942383 0.131836 -1.88477 0.226562 -3.11035 0.47168c-2.9043 0.263672 -5.69531 0.62207 -8.65625 1.1123c-3.54492 0.47168 -7.25977 1.09375 -10.7109 1.81055l-8.59863 1.88574
c-0.905273 0.113281 -1.8291 0.339844 -2.86621 0.698242c-3.26172 0.735352 -6.41113 1.56543 -9.61719 2.56445c-4.16699 1.22559 -8.33398 2.56445 -12.4824 4.03516z" />
    <glyph glyph-name="d" unicode="d" horiz-adv-x="619" 
d="M17.9707 262.388c0 144.912 119.341 262.258 266.61 262.258c32.6973 0 94.7725 0.415039 177.251 -55.5703c0.546875 -0.358398 1.28223 0 1.28223 0.660156v446.201c0 5.26074 4.28027 9.55957 9.56055 9.55957h78.9141c5.28027 0 9.56055 -4.28027 9.56055 -9.56055
v-905.79c0 -6.90137 -8.25879 -10.4277 -13.2373 -5.65723l-69.2783 66.5254c-3.33789 3.22461 -8.54199 3.45117 -12.0869 0.453125c-25.5312 -21.5723 -82.2324 -71.4668 -181.983 -71.4668c-147.25 -0 -266.593 117.476 -266.593 262.388zM123.999 262.39
c0 -81.9121 61.4355 -149.777 141.387 -161.28c7.99512 -1.1875 16.1973 -1.75293 24.3809 -1.75293c64.1689 0 119.739 35.8838 147.232 88.1543c7.80664 15.0098 13.4639 31.1885 16.1982 48.5557c1.35742 8.56055 2.14941 17.3477 2.14941 26.3232
c0 26.9082 -6.6377 52.2705 -18.3477 74.502c-27.4932 52.6475 -83.0635 88.5312 -147.232 88.5312c-91.4727 0 -165.768 -73.125 -165.768 -163.033z" />
    </font>
</defs>
</svg>
